<svg width="51" height="57" viewBox="0 0 51 57" fill="none" xmlns="http://www.w3.org/2000/svg">
<path d="M50.0065 14.6443C49.8444 14.3364 49.087 12.9729 46.4939 10.3874C43.9008 7.80191 42.545 7.03693 42.237 6.87479C41.7277 6.60928 40.9562 6.63104 40.4959 6.93682C40.1199 7.19569 39.7781 7.50097 39.4785 7.84544C39.1769 8.18686 38.9179 8.56357 38.707 8.96734C38.4556 9.45593 38.5133 10.2176 38.8158 10.6769C38.9453 10.876 39.435 11.4538 40.5569 12.6279L37.6819 15.5062C34.3184 12.8089 30.2594 11.1202 25.9754 10.6355V7.62019C29.0625 7.58536 31.5251 7.4994 31.8363 7.43193C32.4892 7.29265 33.178 6.69742 33.3847 6.06846C33.5477 5.5429 33.6467 4.99961 33.6796 4.45035C33.7169 3.90124 33.6855 3.34962 33.5861 2.8083C33.4566 2.1554 32.8178 1.48291 32.1573 1.27507C31.7579 1.15211 27.7752 0.641754 23.3638 0.641754C18.9523 0.641754 14.9696 1.15211 14.5703 1.27616C13.9098 1.484 13.271 2.15975 13.1415 2.80939C13.0422 3.35035 13.0107 3.9016 13.0479 4.45035C13.0809 4.99924 13.1799 5.54216 13.3428 6.06737C13.5496 6.69633 14.2406 7.29156 14.8913 7.43084C15.2069 7.49831 17.665 7.58428 20.7522 7.6191V10.6355C9.31552 11.9315 0.428436 21.6434 0.428436 33.4207C0.428436 46.0881 10.6975 56.356 23.3638 56.356C36.0301 56.356 46.2991 46.0881 46.2991 33.4207C46.3063 28.2623 44.5674 23.2534 41.3654 19.2092L44.2566 16.3212C45.4319 17.4496 46.0086 17.9393 46.2088 18.0688C46.6724 18.368 47.4276 18.4246 47.9183 18.1776C48.3208 17.9641 48.696 17.7029 49.0359 17.3996C49.3798 17.099 49.685 16.7569 49.9445 16.381C50.2503 15.9251 50.272 15.1525 50.0065 14.6443ZM34.3543 40.9356C34.0455 41.3887 33.5693 41.7005 33.0306 41.8026C32.4918 41.9046 31.9346 41.7885 31.4815 41.4797L22.1984 35.1324C21.9199 34.9424 21.6922 34.6872 21.535 34.389C21.3778 34.0909 21.2958 33.7588 21.2963 33.4218V19.0449C21.2963 18.4965 21.5141 17.9707 21.9018 17.5829C22.2896 17.1952 22.8154 16.9774 23.3638 16.9774C23.9121 16.9774 24.438 17.1952 24.8257 17.5829C25.2135 17.9707 25.4313 18.4965 25.4313 19.0449V32.3303L33.8102 38.0617C34.0347 38.2146 34.2269 38.4103 34.3757 38.6375C34.5246 38.8647 34.6272 39.119 34.6777 39.3859C34.7283 39.6528 34.7257 39.927 34.6702 40.1929C34.6147 40.4588 34.5074 40.7112 34.3543 40.9356Z" fill="url(#paint0_linear_803_639)"/>
<defs>
<linearGradient id="paint0_linear_803_639" x1="25.3097" y1="0.641754" x2="25.3097" y2="56.356" gradientUnits="userSpaceOnUse">
<stop stop-color="#D4D4D4"/>
<stop offset="1" stop-color="#919191"/>
</linearGradient>
</defs>
</svg>
