<svg width="60" height="60" viewBox="0 0 60 60" fill="none" xmlns="http://www.w3.org/2000/svg">
<path d="M39.6885 48.7185L40.1398 48.4064C41.5523 47.4297 42.2587 46.9412 42.8905 46.4175C46.3236 43.5722 48.6295 39.606 49.3969 35.2264C49.5382 34.4203 49.6116 33.5677 49.7584 31.8623L49.8343 30.9806C50.0772 28.1579 50.053 25.3187 49.7619 22.5006L49.6718 21.6285C49.1624 16.6967 46.1348 12.3743 41.661 10.1916C34.3054 6.60281 25.6946 6.60281 18.339 10.1916C13.8652 12.3743 10.8376 16.6967 10.3282 21.6285L10.2381 22.5006C9.94699 25.3187 9.92277 28.1579 10.1657 30.9806L10.2416 31.8624C10.3884 33.5677 10.4618 34.4203 10.6031 35.2264C11.3705 39.606 13.6764 43.5722 17.1095 46.4175C17.7413 46.9412 18.4478 47.4297 19.8602 48.4064L20.3115 48.7185C22.2318 50.0464 23.1921 50.7104 24.1544 51.1718C27.8482 52.9427 32.1518 52.9427 35.8456 51.1718C36.8079 50.7104 37.7682 50.0464 39.6885 48.7185Z" stroke="url(#paint0_linear_983_1007)" stroke-width="3.75"/>
<path d="M24.4508 28.0492C23.7186 27.3169 22.5314 27.3169 21.7992 28.0492C21.0669 28.7814 21.0669 29.9686 21.7992 30.7008L24.4508 28.0492ZM28.125 34.375L26.7992 35.7008C27.1587 36.0604 27.6489 36.2585 28.1573 36.2497C28.6657 36.241 29.1488 36.0261 29.4957 35.6543L28.125 34.375ZM38.2457 26.2793C38.9523 25.5223 38.9114 24.3358 38.1543 23.6293C37.3973 22.9227 36.2108 22.9636 35.5043 23.7207L38.2457 26.2793ZM21.7992 30.7008L26.7992 35.7008L29.4508 33.0492L24.4508 28.0492L21.7992 30.7008ZM29.4957 35.6543L38.2457 26.2793L35.5043 23.7207L26.7543 33.0957L29.4957 35.6543Z" fill="url(#paint1_linear_983_1007)"/>
<defs>
<linearGradient id="paint0_linear_983_1007" x1="30" y1="7.5" x2="30" y2="52.5" gradientUnits="userSpaceOnUse">
<stop stop-color="#002F5C"/>
<stop offset="1" stop-color="#0055AE"/>
</linearGradient>
<linearGradient id="paint1_linear_983_1007" x1="30" y1="25" x2="30" y2="34.375" gradientUnits="userSpaceOnUse">
<stop stop-color="#002F5C"/>
<stop offset="1" stop-color="#0055AE"/>
</linearGradient>
</defs>
</svg>
