<svg width="113" height="113" viewBox="0 0 113 113" fill="none" xmlns="http://www.w3.org/2000/svg">
<path d="M72.3627 93.7398C93.0041 84.9044 102.575 61.0087 93.7395 40.3672C84.9041 19.7257 61.0084 10.155 40.3669 18.9904C19.7254 27.8258 10.1547 51.7215 18.9901 72.363C27.8255 93.0045 51.7212 102.575 72.3627 93.7398Z" fill="url(#paint0_linear_138_1214)"/>
<path d="M40.6655 58.9457L36.2989 60.8148C34.19 61.7175 33.2122 64.1588 34.1149 66.2677L41.1975 82.8143C42.1002 84.9231 44.5416 85.901 46.6504 84.9983L51.0171 83.1292C53.1259 82.2265 54.1037 79.7852 53.201 77.6763L46.1184 61.1297C45.2157 59.0208 42.7744 58.043 40.6655 58.9457Z" fill="white"/>
<path d="M79.6975 47.745C79.0324 46.1913 77.7542 45.11 76.2924 44.6297C76.7473 43.4815 76.7692 42.1614 76.246 40.939C75.1947 38.4829 72.3404 37.3397 69.8843 38.391L62.2474 41.6599L60.0681 36.5687C59.0567 34.2058 57.5574 32.5207 55.6126 31.5612C53.7187 30.6275 51.4966 30.9713 49.9437 32.4426C48.3492 33.9538 47.8726 36.2249 48.7297 38.2274L51.5198 44.7458C53.0259 48.2642 49.4263 53.6913 47.9118 55.4859C47.4191 56.0698 47.6576 57.7044 48.2416 58.1974L53.6898 70.9258L59.5895 73.7253C61.306 74.4128 63.1871 74.3909 64.887 73.6632L79.3251 67.4832C81.7812 66.4318 82.9244 63.5776 81.8731 61.1214C81.7248 60.7751 81.528 60.4611 81.31 60.1641C82.5869 58.8023 83.0199 56.7633 82.2396 54.9403C81.7164 53.7181 80.7462 52.8225 79.6014 52.359C80.263 50.97 80.3627 49.299 79.6975 47.745Z" fill="white"/>
<defs>
<linearGradient id="paint0_linear_138_1214" x1="72.3627" y1="93.7398" x2="40.3669" y2="18.9904" gradientUnits="userSpaceOnUse">
<stop stop-color="#0064E1"/>
<stop offset="0.9944" stop-color="#26B7FF"/>
</linearGradient>
</defs>
</svg>
