<svg width="283" height="269" viewBox="0 0 283 269" fill="none" xmlns="http://www.w3.org/2000/svg">
<path d="M150.584 13.8706C150.425 13.6604 150.319 13.5028 150.266 13.3451L146.031 4.62323C145.925 4.4656 145.819 4.25544 145.713 4.09781C145.607 3.94019 145.501 3.8351 145.396 3.73002L142.59 0.945312C142.696 1.0504 142.802 1.15548 142.907 1.3131C143.013 1.47073 143.119 1.62835 143.225 1.83852L147.46 10.5604C147.566 10.7706 147.672 10.9282 147.778 11.0859C147.884 11.2435 147.99 11.3486 148.148 11.5062L150.954 14.2909C150.795 14.1333 150.69 13.9756 150.584 13.8706Z" fill="url(#paint0_linear_588_2320)"/>
<path d="M140.263 0C141.428 0 142.592 0.6305 143.227 1.83896L147.463 10.5609C147.992 11.6117 148.945 12.2948 150.11 12.5049L159.797 13.9235C162.497 14.2913 163.556 17.6015 161.597 19.493L154.503 26.2183C153.656 27.0064 153.286 28.1623 153.445 29.3183L155.033 38.8808C155.403 40.9825 153.656 42.7164 151.751 42.7164C151.221 42.7164 150.745 42.6113 150.215 42.3486L141.639 37.83C141.11 37.5673 140.581 37.4097 139.998 37.4097C139.416 37.4097 138.834 37.5673 138.304 37.83L129.622 42.3486C129.093 42.6113 128.616 42.7164 128.087 42.7164C126.181 42.7164 124.487 40.9825 124.858 38.8808L126.605 29.3183C126.816 28.1623 126.446 27.0064 125.599 26.2183L118.664 19.4404C116.705 17.5489 117.817 14.2388 120.517 13.871L130.204 12.4524C131.369 12.2948 132.375 11.5592 132.904 10.5083L137.298 1.78642C137.934 0.6305 139.098 0 140.263 0Z" fill="url(#paint1_radial_588_2320)"/>
<path d="M151.803 42.1446C151.38 42.1446 150.956 42.0396 150.586 41.8294L141.904 37.3108C141.321 36.9956 140.633 36.8379 139.945 36.8379C139.257 36.8379 138.568 36.9956 137.986 37.3108L129.304 41.8294C128.881 42.0396 128.51 42.1446 128.086 42.1446C127.292 42.1446 126.551 41.7769 126.075 41.1989C125.598 40.6209 125.387 39.8328 125.545 39.0447L127.292 29.4821C127.557 28.116 127.081 26.7499 126.128 25.8042L119.087 18.9738C118.346 18.2382 118.134 17.2399 118.452 16.2941C118.769 15.2958 119.563 14.6128 120.622 14.5077L130.31 13.0891C131.686 12.8789 132.851 12.0383 133.486 10.8298L137.88 2.10789C138.357 1.16214 139.257 0.636719 140.262 0.636719C141.321 0.636719 142.168 1.16214 142.645 2.10789L146.88 10.8298C147.462 12.0383 148.68 12.9315 150.003 13.0891L159.691 14.5077C160.697 14.6653 161.491 15.2958 161.809 16.2941C162.126 17.2924 161.862 18.2907 161.12 19.0263L154.08 25.8042C153.074 26.7499 152.65 28.116 152.862 29.4821L154.45 39.0447C154.556 39.8328 154.344 40.5684 153.868 41.1989C153.338 41.7769 152.544 42.1446 151.803 42.1446Z" fill="url(#paint2_linear_588_2320)"/>
<path d="M164.668 21.8588C164.774 21.7537 164.88 21.596 164.933 21.491L164.986 21.4384C165.039 21.3333 165.092 21.1757 165.144 21.0706C165.144 21.0181 165.144 21.0181 165.197 20.9655C165.25 20.8605 165.25 20.7554 165.303 20.6503C165.303 20.5978 165.303 20.5978 165.303 20.5452C165.356 20.3876 165.356 20.2825 165.356 20.1249C165.356 20.1249 165.356 20.1249 165.356 20.0723C165.356 19.9147 165.356 19.7571 165.356 19.5995V19.5469C165.356 19.3893 165.303 19.2842 165.303 19.1266C165.303 19.074 165.303 19.074 165.303 19.0215C165.25 18.9164 165.25 18.8113 165.197 18.7062C165.197 18.7062 165.197 18.6537 165.144 18.6537C165.092 18.5486 165.039 18.4435 164.986 18.2859L164.933 18.2334C164.88 18.1283 164.827 18.0758 164.774 17.9707C164.774 17.9181 164.721 17.9181 164.721 17.8656C164.615 17.7605 164.562 17.6554 164.456 17.5503L161.65 14.7656C161.756 14.8707 161.862 14.9758 161.915 15.0809C161.915 15.0809 161.915 15.0809 161.968 15.1334C161.968 15.1334 161.968 15.186 162.021 15.186C162.074 15.291 162.127 15.3436 162.18 15.4487L162.233 15.5012C162.286 15.6063 162.339 15.7114 162.392 15.869V15.9215C162.445 16.0266 162.445 16.1317 162.497 16.2368C162.497 16.2893 162.497 16.2893 162.497 16.3419C162.55 16.4995 162.55 16.6046 162.55 16.7622V16.8148C162.55 16.9724 162.55 17.13 162.55 17.2876C162.55 17.4453 162.497 17.5503 162.497 17.708V17.7605V17.813C162.497 17.9181 162.445 18.0232 162.392 18.1283V18.1808C162.339 18.2859 162.286 18.4435 162.233 18.5486C162.233 18.5486 162.233 18.5486 162.233 18.6012C162.233 18.6012 162.233 18.6537 162.18 18.6537C162.127 18.8113 162.021 18.9164 161.915 19.0215C161.915 19.0215 161.915 19.0215 161.915 19.074C161.809 19.1791 161.756 19.2842 161.65 19.3368L154.504 26.2197C154.398 26.3248 154.292 26.4299 154.239 26.535C154.133 26.6926 154.027 26.8502 153.921 27.0078C153.868 27.0604 153.868 27.1129 153.868 27.1655C153.815 27.2705 153.763 27.3756 153.71 27.4282C153.71 27.4807 153.657 27.5333 153.657 27.5858C153.604 27.6909 153.604 27.796 153.551 27.901C153.551 27.9536 153.498 28.0061 153.498 28.0587C153.445 28.2163 153.445 28.3739 153.445 28.5315C153.445 28.5315 153.445 28.5315 153.445 28.5841C153.445 28.7417 153.445 28.8993 153.445 29.057C153.445 29.162 153.445 29.2671 153.498 29.3722L155.086 38.9348C155.086 39.0399 155.086 39.0924 155.139 39.145V39.1975C155.139 39.3551 155.139 39.5128 155.139 39.6704V39.7229C155.139 39.828 155.086 39.9856 155.086 40.0907V40.1433C155.086 40.1958 155.086 40.1958 155.086 40.2483C155.086 40.3534 155.033 40.406 154.98 40.511V40.5636V40.6161C154.927 40.7212 154.874 40.8263 154.821 40.9839C154.821 40.9839 154.821 40.9839 154.821 41.0365C154.715 41.1941 154.663 41.2992 154.557 41.4568C154.557 41.4568 154.557 41.5093 154.504 41.5093L154.451 41.5619C154.398 41.6144 154.345 41.667 154.345 41.7195C154.292 41.772 154.292 41.8246 154.239 41.8246C154.186 41.8771 154.133 41.9297 154.08 41.9297C154.027 41.9822 153.974 41.9822 153.974 42.0348C153.921 42.0873 153.868 42.0873 153.815 42.1398C153.763 42.1924 153.71 42.1924 153.657 42.2449C153.604 42.2975 153.551 42.2975 153.498 42.35C153.445 42.35 153.392 42.4025 153.339 42.4025C153.286 42.4551 153.233 42.4551 153.127 42.5076C153.074 42.5076 153.021 42.5602 152.968 42.5602C152.916 42.5602 152.81 42.6127 152.757 42.6127C152.704 42.6127 152.651 42.6653 152.598 42.6653C152.545 42.6653 152.439 42.7178 152.386 42.7178C152.333 42.7178 152.28 42.7178 152.28 42.7178C152.174 42.7178 152.016 42.7178 151.91 42.7178C151.38 42.7178 150.904 42.6127 150.374 42.35L141.64 37.8314C141.11 37.5687 140.581 37.4111 139.998 37.4111C139.416 37.4111 138.834 37.5687 138.304 37.8314L129.622 42.35C129.093 42.6127 128.617 42.7178 128.087 42.7178C127.187 42.7178 126.34 42.35 125.758 41.772L128.564 44.5568C129.146 45.1347 129.993 45.5025 130.893 45.5025C131.422 45.5025 131.899 45.3974 132.428 45.1347L141.11 40.6161C141.64 40.3534 142.222 40.1958 142.751 40.1958C143.334 40.1958 143.863 40.3534 144.392 40.6161L153.021 45.1347C153.551 45.3974 154.027 45.5025 154.557 45.5025C154.663 45.5025 154.821 45.5025 154.927 45.5025C154.98 45.5025 155.033 45.5025 155.033 45.5025C155.086 45.5025 155.192 45.5025 155.245 45.45C155.298 45.45 155.351 45.45 155.404 45.3974C155.457 45.3974 155.562 45.3449 155.615 45.3449C155.668 45.3449 155.721 45.2923 155.774 45.2923C155.827 45.2923 155.88 45.2398 155.986 45.1873C156.039 45.1873 156.092 45.1347 156.145 45.1347C156.198 45.0822 156.251 45.0822 156.304 45.0296C156.357 44.9771 156.41 44.9771 156.462 44.9245C156.515 44.872 156.568 44.872 156.621 44.8195C156.674 44.7669 156.727 44.7669 156.727 44.7144C156.78 44.6618 156.833 44.6618 156.833 44.6093C156.886 44.5568 156.886 44.5568 156.939 44.5042C156.992 44.4517 157.045 44.3991 157.045 44.3466C157.098 44.2941 157.098 44.294 157.098 44.2415C157.204 44.0839 157.309 43.9788 157.362 43.8212V43.7686C157.415 43.6636 157.468 43.5585 157.521 43.4008C157.521 43.3483 157.574 43.2958 157.574 43.2958C157.627 43.1907 157.627 43.1381 157.68 43.0331C157.68 42.9805 157.68 42.928 157.733 42.8754C157.733 42.7703 157.786 42.6653 157.786 42.5076V42.4551C157.786 42.2975 157.786 42.1398 157.786 41.9822C157.786 41.8771 157.786 41.7721 157.733 41.667L156.145 32.1044C156.145 31.9993 156.145 31.9468 156.092 31.8417V31.7891C156.092 31.6315 156.092 31.4739 156.092 31.3163C156.092 31.1586 156.145 31.001 156.145 30.8434C156.145 30.8434 156.145 30.8434 156.145 30.7908C156.145 30.7383 156.145 30.7383 156.198 30.6858C156.251 30.5807 156.251 30.4756 156.304 30.3705V30.318C156.304 30.2654 156.357 30.2654 156.357 30.2129C156.41 30.1078 156.462 30.0027 156.515 29.9502C156.515 29.8976 156.515 29.8976 156.568 29.8451C156.568 29.8451 156.568 29.7925 156.621 29.7925C156.727 29.6349 156.833 29.4773 156.939 29.3197C157.045 29.2146 157.151 29.1095 157.204 29.0044L164.244 22.2265C164.35 22.1215 164.403 22.0164 164.509 21.9638C164.668 21.9113 164.668 21.9113 164.668 21.8588Z" fill="url(#paint3_linear_588_2320)"/>
<path d="M76.0055 35.6165C75.8676 35.509 75.7726 35.4261 75.7116 35.3342L71.4981 30.47C71.4031 30.3871 71.2991 30.2706 71.2042 30.1877C71.1092 30.1048 71.0233 30.0556 70.9373 30.0065L68.6602 28.7031C68.7461 28.7523 68.832 28.8015 68.927 28.8844C69.0219 28.9672 69.1169 29.0501 69.2209 29.1666L73.4344 34.0309C73.5384 34.1474 73.6333 34.2303 73.7283 34.3131C73.8232 34.396 73.9092 34.4452 74.0381 34.519L76.3153 35.8223C76.1864 35.7485 76.0914 35.6656 76.0055 35.6165Z" fill="url(#paint4_linear_588_2320)"/>
<path d="M67.0049 28.4972C67.7515 28.2972 68.6065 28.5013 69.2214 29.1669L73.4349 34.0312C73.9548 34.6139 74.6831 34.8881 75.4659 34.8228L81.9206 34.0681C83.7147 33.8401 84.9621 35.7804 84.0313 37.3295L80.6387 42.8598C80.231 43.5106 80.192 44.3153 80.4924 45.0291L83.1533 50.887C83.752 52.1707 82.9298 53.5825 81.708 53.9098C81.3686 54.0008 81.045 54.0153 80.6605 53.9378L74.386 52.5141C74.0015 52.4366 73.635 52.4265 73.2617 52.5265C72.8883 52.6266 72.5421 52.8277 72.2478 53.087L67.4579 57.4754C67.1636 57.7347 66.8762 57.884 66.5368 57.9749C65.315 58.3023 63.9311 57.4817 63.8076 56.0706L63.2849 49.6398C63.2221 48.8624 62.7859 48.185 62.1075 47.8252L56.497 44.6711C54.9163 43.7949 55.0604 41.4818 56.7281 40.7822L62.6954 38.2085C63.415 37.9074 63.9335 37.263 64.0924 36.4983L65.4111 30.1518C65.6198 29.3016 66.2582 28.6973 67.0049 28.4972Z" fill="url(#paint5_radial_588_2320)"/>
<path d="M81.6414 53.5337C81.3699 53.6065 81.0803 53.6119 80.8066 53.5408L74.4643 52.1353C74.0368 52.0332 73.5685 52.0504 73.1273 52.1686C72.686 52.2868 72.2719 52.5061 71.9527 52.8082L67.1628 57.1966C66.9274 57.4041 66.7079 57.5351 66.4363 57.6079C65.9273 57.7443 65.3889 57.6358 64.9842 57.3471C64.5794 57.0584 64.3083 56.5895 64.2747 56.057L63.752 49.6262C63.687 48.7049 63.1469 47.9109 62.3735 47.4683L56.6861 44.2987C56.0846 43.9544 55.7773 43.3508 55.8185 42.6899C55.8506 41.9953 56.2424 41.421 56.9031 41.1717L62.8704 38.598C63.7168 38.2268 64.319 37.4878 64.5187 36.6039L65.8374 30.2574C65.9804 29.5692 66.4671 29.0778 67.112 28.905C67.7908 28.7231 68.4241 28.9144 68.892 29.4389L73.1055 34.3031C73.6865 34.9779 74.6205 35.3413 75.4961 35.215L81.9508 34.4603C82.6227 34.3886 83.2401 34.6564 83.6153 35.2419C83.9904 35.8273 83.9922 36.5128 83.6434 37.1117L80.2938 42.6666C79.8114 43.4457 79.7745 44.3943 80.145 45.2337L82.8059 51.0916C83.0092 51.5787 82.9998 52.0867 82.8026 52.5727C82.5625 53.0342 82.1166 53.4064 81.6414 53.5337Z" fill="url(#paint6_linear_588_2320)"/>
<path d="M86.4065 38.3163C86.4563 38.2307 86.4972 38.1115 86.513 38.035L86.538 37.9922C86.5538 37.9158 86.5607 37.8056 86.5766 37.7292C86.5676 37.6955 86.5676 37.6955 86.5925 37.6527C86.6084 37.5762 86.5903 37.5089 86.6062 37.4324C86.5972 37.3987 86.5972 37.3987 86.5881 37.365C86.595 37.2549 86.577 37.1875 86.5499 37.0864C86.5499 37.0864 86.5499 37.0864 86.5409 37.0528C86.5138 36.9517 86.4867 36.8506 86.4596 36.7496L86.4506 36.7159C86.4235 36.6149 86.3715 36.5566 86.3444 36.4555C86.3354 36.4218 86.3354 36.4218 86.3264 36.3881C86.2744 36.3299 86.2564 36.2625 86.2044 36.2042C86.2044 36.2042 86.1953 36.1705 86.1614 36.1796C86.1094 36.1214 86.0574 36.0631 85.9964 35.9711L85.9534 35.9465C85.9014 35.8883 85.8585 35.8637 85.8065 35.8054C85.7975 35.7717 85.7635 35.7808 85.7545 35.7471C85.6686 35.6979 85.6166 35.6397 85.5306 35.5905L83.2534 34.2871C83.3394 34.3363 83.4253 34.3855 83.4773 34.4438C83.4773 34.4438 83.4773 34.4438 83.5203 34.4684C83.5203 34.4684 83.5293 34.5021 83.5632 34.493C83.6152 34.5512 83.6582 34.5758 83.7102 34.6341L83.7531 34.6587C83.8051 34.717 83.8571 34.7753 83.9181 34.8672L83.9272 34.9009C83.9792 34.9592 83.9972 35.0265 84.0492 35.0848C84.0582 35.1185 84.0582 35.1185 84.0673 35.1522C84.1283 35.2442 84.1463 35.3115 84.1734 35.4126L84.1824 35.4463C84.2095 35.5473 84.2366 35.6484 84.2637 35.7494C84.2907 35.8505 84.2749 35.927 84.3019 36.028L84.311 36.0617L84.32 36.0954C84.338 36.1627 84.3221 36.2392 84.3063 36.3157L84.3153 36.3494C84.2994 36.4258 84.2925 36.536 84.2766 36.6124C84.2766 36.6124 84.2766 36.6124 84.2857 36.6461C84.2857 36.6461 84.2947 36.6798 84.2608 36.6889C84.2539 36.7991 84.2041 36.8846 84.1542 36.9702C84.1542 36.9702 84.1542 36.9702 84.1633 37.0039C84.1134 37.0894 84.0976 37.1659 84.0387 37.2178L80.6392 42.8582C80.5894 42.9438 80.5396 43.0293 80.5237 43.1058C80.4829 43.225 80.4421 43.3443 80.4013 43.4635C80.3764 43.5063 80.3854 43.54 80.3944 43.5737C80.3785 43.6501 80.3626 43.7266 80.3377 43.7694C80.3467 43.8031 80.3218 43.8458 80.3309 43.8795C80.315 43.956 80.333 44.0234 80.3171 44.0998C80.3262 44.1335 80.3012 44.1763 80.3103 44.21C80.3034 44.3201 80.3305 44.4212 80.3576 44.5222C80.3576 44.5222 80.3576 44.5222 80.3666 44.5559C80.3937 44.657 80.4207 44.758 80.4478 44.8591C80.4659 44.9265 80.4839 44.9938 80.5359 45.0521L83.1969 50.91C83.2149 50.9773 83.2239 51.011 83.2669 51.0356L83.2759 51.0693C83.303 51.1704 83.3301 51.2714 83.3572 51.3725L83.3662 51.4062C83.3842 51.4735 83.3774 51.5837 83.3954 51.6511L83.4044 51.6847C83.4135 51.7184 83.4135 51.7184 83.4225 51.7521C83.4406 51.8195 83.4156 51.8623 83.3998 51.9387L83.4088 51.9724L83.4178 52.0061C83.4019 52.0826 83.386 52.159 83.3792 52.2692C83.3792 52.2692 83.3792 52.2692 83.3882 52.3029C83.3474 52.4221 83.3315 52.4986 83.2907 52.6178C83.2907 52.6178 83.2997 52.6515 83.2658 52.6606L83.2409 52.7034C83.216 52.7461 83.191 52.7889 83.2001 52.8226C83.1752 52.8654 83.1842 52.8991 83.1502 52.9082C83.1253 52.9509 83.1004 52.9937 83.0665 53.0028C83.0416 53.0456 83.0076 53.0547 83.0166 53.0884C82.9917 53.1312 82.9578 53.1402 82.9329 53.183C82.908 53.2258 82.874 53.2349 82.8491 53.2777C82.8242 53.3205 82.7903 53.3296 82.7653 53.3723C82.7314 53.3814 82.7065 53.4242 82.6726 53.4333C82.6476 53.4761 82.6137 53.4852 82.5548 53.537C82.5209 53.5461 82.496 53.5889 82.462 53.598C82.4281 53.6071 82.3693 53.659 82.3353 53.6681C82.3014 53.6772 82.2765 53.72 82.2425 53.729C82.2086 53.7381 82.1497 53.79 82.1158 53.7991C82.0818 53.8082 82.0479 53.8173 82.0479 53.8173C81.98 53.8355 81.8782 53.8628 81.8103 53.881C81.4709 53.9719 81.1474 53.9864 80.7629 53.9089L74.3866 52.5125C74.002 52.435 73.6356 52.4249 73.2622 52.5249C72.8889 52.625 72.5426 52.826 72.2484 53.0854L67.4585 57.4738C67.1642 57.7331 66.8768 57.8823 66.5374 57.9733C65.9604 58.1279 65.3542 58.0376 64.8816 57.7671L67.1587 59.0704C67.6314 59.3409 68.2376 59.4312 68.8146 59.2766C69.154 59.1857 69.4414 59.0365 69.7356 58.7771L74.5256 54.3887C74.8198 54.1294 75.1661 53.9283 75.5055 53.8373C75.8788 53.7373 76.2453 53.7474 76.6298 53.8249L82.9383 55.2395C83.3228 55.317 83.6463 55.3025 83.9857 55.2116C84.0536 55.1934 84.1554 55.1661 84.2233 55.1479C84.2572 55.1388 84.2912 55.1297 84.2912 55.1297C84.3251 55.1206 84.393 55.1024 84.4179 55.0597C84.4518 55.0506 84.4858 55.0415 84.5107 54.9987C84.5446 54.9896 84.6035 54.9377 84.6374 54.9286C84.6714 54.9195 84.6963 54.8768 84.7302 54.8677C84.7642 54.8586 84.7891 54.8158 84.8479 54.7639C84.8819 54.7548 84.9068 54.712 84.9407 54.7029C84.9656 54.6602 84.9996 54.6511 85.0245 54.6083C85.0494 54.5655 85.0833 54.5564 85.1083 54.5136C85.1332 54.4709 85.1671 54.4618 85.192 54.419C85.2169 54.3762 85.2509 54.3671 85.2418 54.3334C85.2668 54.2906 85.3007 54.2816 85.2917 54.2479C85.3166 54.2051 85.3166 54.2051 85.3415 54.1623C85.3664 54.1195 85.3913 54.0768 85.3823 54.0431C85.4072 54.0003 85.4072 54.0003 85.3982 53.9666C85.439 53.8474 85.4888 53.7618 85.4957 53.6517L85.4867 53.618C85.5025 53.5415 85.5184 53.465 85.5253 53.3549C85.5163 53.3212 85.5412 53.2784 85.5412 53.2784C85.5571 53.202 85.548 53.1683 85.5639 53.0918C85.5549 53.0581 85.5459 53.0244 85.5708 52.9817C85.5527 52.9143 85.5686 52.8378 85.5416 52.7368L85.5325 52.7031C85.5055 52.602 85.4784 52.501 85.4513 52.3999C85.4332 52.3325 85.4152 52.2652 85.3632 52.2069L82.7023 46.349C82.6842 46.2817 82.6752 46.248 82.6232 46.1897L82.6142 46.156C82.5871 46.055 82.56 45.9539 82.5329 45.8528C82.5059 45.7518 82.5127 45.6416 82.4856 45.5406C82.4856 45.5406 82.4856 45.5406 82.4766 45.5069C82.4676 45.4732 82.4676 45.4732 82.4925 45.4304C82.5084 45.354 82.4903 45.2866 82.5062 45.2101L82.4972 45.1764C82.4882 45.1428 82.5221 45.1337 82.5131 45.1C82.529 45.0235 82.5449 44.9471 82.5698 44.9043C82.5608 44.8706 82.5608 44.8706 82.5857 44.8278C82.5857 44.8278 82.5766 44.7941 82.6106 44.785C82.6514 44.6658 82.6922 44.5465 82.733 44.4273C82.7828 44.3417 82.8326 44.2562 82.8485 44.1797L86.1982 38.6248C86.248 38.5393 86.2639 38.4628 86.3228 38.4109C86.4155 38.35 86.4155 38.35 86.4065 38.3163Z" fill="#A54A00"/>
<path d="M109.096 26.182C108.966 26.0648 108.877 25.9753 108.823 25.8791L104.974 20.722C104.885 20.6325 104.79 20.5087 104.701 20.4191C104.612 20.3296 104.53 20.2743 104.448 20.219L102.271 18.7539C102.354 18.8092 102.436 18.8645 102.524 18.954C102.613 19.0436 102.702 19.1331 102.797 19.2569L106.647 24.414C106.742 24.5378 106.83 24.6273 106.919 24.7169C107.008 24.8064 107.09 24.8617 107.213 24.9446L109.39 26.4098C109.267 26.3268 109.178 26.2373 109.096 26.182Z" fill="url(#paint7_linear_588_2320)"/>
<path d="M100.637 18.4271C101.396 18.2817 102.234 18.5474 102.799 19.2559L106.648 24.413C107.125 25.0319 107.831 25.3583 108.617 25.3499L115.109 25.0655C116.915 24.9683 118.018 26.994 116.978 28.4715L113.193 33.7411C112.739 34.3606 112.642 35.1603 112.889 35.8941L115.118 41.9296C115.622 43.2534 114.7 44.6017 113.457 44.8396C113.112 44.9056 112.788 44.8966 112.411 44.7914L106.256 42.9162C105.878 42.811 105.513 42.7743 105.134 42.847C104.754 42.9197 104.394 43.0951 104.082 43.3325L98.9861 47.3617C98.6738 47.599 98.3763 47.727 98.0312 47.7931C96.7888 48.0309 95.4681 47.1121 95.4473 45.6958L95.3926 39.244C95.3864 38.464 95.0005 37.7568 94.35 37.3487L88.9832 33.7959C87.4702 32.8073 87.7818 30.5107 89.4959 29.934L95.6342 27.8C96.3738 27.5519 96.9377 26.9469 97.1516 26.1958L98.9273 19.9616C99.1972 19.1288 99.8777 18.5724 100.637 18.4271Z" fill="url(#paint8_radial_588_2320)"/>
<path d="M113.42 44.4605C113.144 44.5134 112.854 44.4978 112.587 44.407L106.363 42.545C105.944 42.4122 105.476 42.3953 105.027 42.4812C104.578 42.5671 104.149 42.7558 103.809 43.034L98.7135 47.0632C98.4637 47.253 98.2352 47.3678 97.9591 47.4207C97.4415 47.5198 96.9124 47.3725 96.5297 47.0552C96.147 46.7379 95.9105 46.2506 95.9157 45.717L95.861 39.2652C95.8631 38.3416 95.382 37.5106 94.6427 37.013L89.2003 33.4391C88.6254 33.0521 88.3627 32.4277 88.4517 31.7716C88.5342 31.0812 88.9666 30.5368 89.6437 30.3361L95.782 28.2022C96.6531 27.8934 97.3074 27.2 97.5706 26.3329L99.3464 20.0988C99.5389 19.4228 100.06 18.968 100.716 18.8424C101.406 18.7103 102.024 18.9471 102.452 19.5041L106.302 24.6613C106.832 25.3764 107.737 25.8067 108.62 25.7442L115.112 25.4599C115.788 25.4371 116.384 25.749 116.716 26.3601C117.047 26.9712 116.999 27.6551 116.608 28.2271L112.864 33.5243C112.327 34.2663 112.221 35.2097 112.529 36.0738L114.758 42.1094C114.926 42.6099 114.88 43.1159 114.648 43.5863C114.375 44.0292 113.903 44.368 113.42 44.4605Z" fill="url(#paint9_linear_588_2320)"/>
<path d="M119.274 29.6262C119.33 29.5444 119.379 29.4285 119.4 29.3534L119.428 29.3125C119.45 29.2374 119.465 29.128 119.486 29.0529C119.48 29.0187 119.48 29.0187 119.507 28.9778C119.529 28.9027 119.516 28.8342 119.537 28.7591C119.531 28.7248 119.531 28.7248 119.524 28.6906C119.539 28.5812 119.526 28.5127 119.506 28.41C119.506 28.41 119.506 28.41 119.5 28.3757C119.48 28.273 119.46 28.1702 119.44 28.0675L119.434 28.0332C119.414 27.9305 119.367 27.8686 119.347 27.7658C119.34 27.7316 119.34 27.7316 119.334 27.6973C119.286 27.6354 119.273 27.5669 119.225 27.505C119.225 27.505 119.219 27.4708 119.184 27.4774C119.137 27.4155 119.089 27.3536 119.035 27.2574L118.994 27.2298C118.946 27.1679 118.905 27.1402 118.858 27.0784C118.851 27.0441 118.817 27.0507 118.81 27.0165C118.728 26.9612 118.68 26.8993 118.598 26.844L116.421 25.3789C116.504 25.4341 116.586 25.4894 116.633 25.5513C116.633 25.5513 116.633 25.5513 116.674 25.579C116.674 25.579 116.681 25.6132 116.715 25.6066C116.763 25.6685 116.804 25.6962 116.852 25.7581L116.893 25.7857C116.94 25.8476 116.988 25.9095 117.042 26.0056L117.049 26.0399C117.096 26.1018 117.11 26.1703 117.157 26.2322C117.164 26.2664 117.164 26.2664 117.17 26.3007C117.225 26.3968 117.238 26.4653 117.257 26.5681L117.264 26.6023C117.284 26.7051 117.303 26.8078 117.323 26.9106C117.343 27.0133 117.321 27.0885 117.341 27.1912L117.347 27.2255L117.354 27.2597C117.367 27.3282 117.346 27.4033 117.324 27.4784L117.331 27.5127C117.309 27.5878 117.295 27.6972 117.273 27.7723C117.273 27.7723 117.273 27.7723 117.28 27.8065C117.28 27.8065 117.286 27.8408 117.252 27.8474C117.237 27.9567 117.181 28.0385 117.125 28.1202C117.125 28.1202 117.125 28.1202 117.132 28.1544C117.076 28.2361 117.054 28.3113 116.992 28.3587L113.192 33.7376C113.136 33.8194 113.08 33.9011 113.059 33.9762C113.01 34.0922 112.96 34.2081 112.911 34.3241C112.883 34.3649 112.89 34.3992 112.896 34.4335C112.875 34.5086 112.853 34.5837 112.825 34.6245C112.832 34.6588 112.804 34.6996 112.811 34.7339C112.789 34.809 112.802 34.8775 112.781 34.9526C112.787 34.9869 112.759 35.0277 112.766 35.062C112.751 35.1713 112.771 35.2741 112.791 35.3768C112.791 35.3768 112.791 35.3768 112.797 35.4111C112.817 35.5139 112.836 35.6166 112.856 35.7194C112.869 35.7879 112.882 35.8564 112.93 35.9183L115.159 41.9538C115.172 42.0223 115.178 42.0565 115.22 42.0842L115.226 42.1184C115.246 42.2212 115.265 42.3239 115.285 42.4267L115.292 42.4609C115.305 42.5294 115.29 42.6388 115.303 42.7073L115.31 42.7416C115.316 42.7758 115.316 42.7758 115.323 42.8101C115.336 42.8786 115.308 42.9194 115.287 42.9945L115.293 43.0288L115.3 43.063C115.278 43.1381 115.257 43.2132 115.242 43.3226C115.242 43.3226 115.242 43.3226 115.249 43.3569C115.199 43.4728 115.178 43.5479 115.128 43.6639C115.128 43.6639 115.135 43.6982 115.101 43.7048L115.073 43.7456C115.045 43.7865 115.017 43.8273 115.023 43.8616C114.995 43.9025 115.002 43.9367 114.967 43.9433C114.939 43.9842 114.911 44.025 114.877 44.0316C114.849 44.0725 114.814 44.0791 114.821 44.1134C114.793 44.1542 114.759 44.1608 114.731 44.2017C114.703 44.2425 114.668 44.2491 114.64 44.29C114.612 44.3309 114.578 44.3375 114.55 44.3783C114.515 44.3849 114.487 44.4258 114.453 44.4324C114.425 44.4733 114.39 44.4799 114.328 44.5273C114.293 44.5339 114.265 44.5748 114.231 44.5814C114.196 44.588 114.134 44.6355 114.099 44.6421C114.065 44.6487 114.037 44.6896 114.002 44.6962C113.968 44.7028 113.905 44.7502 113.871 44.7568C113.836 44.7635 113.802 44.7701 113.802 44.7701C113.733 44.7833 113.629 44.8031 113.56 44.8163C113.215 44.8824 112.892 44.8733 112.514 44.7682L106.255 42.9128C105.878 42.8076 105.513 42.7709 105.133 42.8436C104.754 42.9163 104.394 43.0917 104.081 43.329L98.9856 47.3583C98.6733 47.5956 98.3758 47.7236 98.0307 47.7896C97.444 47.902 96.846 47.7679 96.3942 47.4638L98.5708 48.929C99.0226 49.2331 99.6207 49.3671 100.207 49.2548C100.552 49.1887 100.85 49.0607 101.162 48.8234L106.258 44.7942C106.57 44.5568 106.93 44.3814 107.275 44.3153C107.655 44.2426 108.02 44.2793 108.398 44.3845L114.587 46.2531C114.965 46.3583 115.288 46.3673 115.633 46.3013C115.702 46.288 115.806 46.2682 115.875 46.255C115.91 46.2484 115.944 46.2418 115.944 46.2418C115.979 46.2352 116.048 46.222 116.076 46.1811C116.11 46.1745 116.145 46.1679 116.172 46.127C116.207 46.1204 116.269 46.073 116.304 46.0664C116.338 46.0598 116.366 46.0189 116.401 46.0123C116.435 46.0057 116.463 45.9648 116.526 45.9174C116.56 45.9107 116.588 45.8699 116.623 45.8633C116.651 45.8224 116.685 45.8158 116.713 45.775C116.741 45.7341 116.776 45.7275 116.804 45.6866C116.832 45.6458 116.866 45.6392 116.894 45.5983C116.922 45.5574 116.957 45.5508 116.95 45.5166C116.978 45.4757 117.012 45.4691 117.006 45.4349C117.034 45.394 117.034 45.394 117.062 45.3531C117.09 45.3123 117.118 45.2714 117.111 45.2372C117.139 45.1963 117.139 45.1963 117.133 45.1621C117.182 45.0461 117.238 44.9644 117.253 44.855L117.246 44.8208C117.267 44.7457 117.289 44.6706 117.304 44.5612C117.297 44.5269 117.325 44.4861 117.325 44.4861C117.346 44.411 117.34 44.3767 117.361 44.3016C117.355 44.2674 117.348 44.2331 117.376 44.1922C117.363 44.1237 117.384 44.0486 117.365 43.9459L117.358 43.9116C117.339 43.8089 117.319 43.7061 117.299 43.6034C117.286 43.5349 117.273 43.4664 117.225 43.4045L114.996 37.369C114.983 37.3005 114.977 37.2662 114.929 37.2043L114.923 37.1701C114.903 37.0673 114.883 36.9645 114.864 36.8618C114.844 36.759 114.859 36.6497 114.839 36.5469C114.839 36.5469 114.839 36.5469 114.833 36.5127C114.826 36.4784 114.826 36.4784 114.854 36.4376C114.875 36.3625 114.862 36.294 114.884 36.2188L114.877 36.1846C114.87 36.1503 114.905 36.1437 114.898 36.1095C114.92 36.0344 114.941 35.9593 114.969 35.9184C114.963 35.8841 114.963 35.8841 114.991 35.8433C114.991 35.8433 114.984 35.809 115.019 35.8024C115.068 35.6865 115.117 35.5705 115.167 35.4545C115.222 35.3728 115.278 35.2911 115.3 35.216L119.044 29.9188C119.1 29.8371 119.121 29.762 119.183 29.7145C119.28 29.6604 119.28 29.6604 119.274 29.6262Z" fill="url(#paint10_linear_588_2320)"/>
<path d="M207.024 35.6165C207.162 35.509 207.257 35.4261 207.318 35.3342L211.531 30.47C211.626 30.3871 211.73 30.2706 211.825 30.1877C211.92 30.1048 212.006 30.0556 212.092 30.0065L214.369 28.7031C214.283 28.7523 214.197 28.8015 214.102 28.8844C214.007 28.9672 213.912 29.0501 213.808 29.1666L209.595 34.0309C209.491 34.1474 209.396 34.2303 209.301 34.3131C209.206 34.396 209.12 34.4452 208.991 34.519L206.714 35.8223C206.843 35.7485 206.938 35.6656 207.024 35.6165Z" fill="url(#paint11_linear_588_2320)"/>
<path d="M216.024 28.4972C215.278 28.2972 214.423 28.5013 213.808 29.1669L209.594 34.0312C209.074 34.6139 208.346 34.8881 207.563 34.8228L201.109 34.0681C199.315 33.8401 198.067 35.7804 198.998 37.3295L202.391 42.8598C202.798 43.5106 202.837 44.3153 202.537 45.0291L199.876 50.887C199.277 52.1707 200.099 53.5825 201.321 53.9098C201.661 54.0008 201.984 54.0153 202.369 53.9378L208.643 52.5141C209.028 52.4366 209.394 52.4265 209.768 52.5265C210.141 52.6266 210.487 52.8277 210.781 53.087L215.571 57.4754C215.866 57.7347 216.153 57.884 216.492 57.9749C217.714 58.3023 219.098 57.4817 219.222 56.0706L219.744 49.6398C219.807 48.8624 220.243 48.185 220.922 47.8252L226.532 44.6711C228.113 43.7949 227.969 41.4818 226.301 40.7822L220.334 38.2085C219.614 37.9074 219.096 37.263 218.937 36.4983L217.618 30.1518C217.409 29.3016 216.771 28.6973 216.024 28.4972Z" fill="url(#paint12_radial_588_2320)"/>
<path d="M201.386 53.5337C201.657 53.6065 201.947 53.6119 202.221 53.5408L208.563 52.1353C208.991 52.0332 209.459 52.0504 209.9 52.1686C210.341 52.2868 210.755 52.5061 211.075 52.8082L215.865 57.1966C216.1 57.4041 216.319 57.5351 216.591 57.6079C217.1 57.7443 217.638 57.6358 218.043 57.3471C218.448 57.0584 218.719 56.5895 218.753 56.057L219.275 49.6262C219.34 48.7049 219.88 47.9109 220.654 47.4683L226.341 44.2987C226.943 43.9544 227.25 43.3508 227.209 42.6899C227.177 41.9953 226.785 41.421 226.124 41.1717L220.157 38.598C219.311 38.2268 218.708 37.4878 218.509 36.6039L217.19 30.2574C217.047 29.5692 216.56 29.0778 215.915 28.905C215.237 28.7231 214.603 28.9144 214.135 29.4389L209.922 34.3031C209.341 34.9779 208.407 35.3413 207.531 35.215L201.077 34.4603C200.405 34.3886 199.787 34.6564 199.412 35.2419C199.037 35.8273 199.035 36.5128 199.384 37.1117L202.734 42.6666C203.216 43.4457 203.253 44.3943 202.882 45.2337L200.221 51.0916C200.018 51.5787 200.028 52.0867 200.225 52.5727C200.465 53.0342 200.911 53.4064 201.386 53.5337Z" fill="url(#paint13_linear_588_2320)"/>
<path d="M196.623 38.3163C196.573 38.2307 196.532 38.1115 196.516 38.035L196.491 37.9922C196.475 37.9158 196.469 37.8056 196.453 37.7292C196.462 37.6955 196.462 37.6955 196.437 37.6527C196.421 37.5762 196.439 37.5089 196.423 37.4324C196.432 37.3987 196.432 37.3987 196.441 37.365C196.434 37.2549 196.452 37.1875 196.479 37.0864C196.479 37.0864 196.479 37.0864 196.488 37.0528C196.516 36.9517 196.543 36.8506 196.57 36.7496L196.579 36.7159C196.606 36.6149 196.658 36.5566 196.685 36.4555C196.694 36.4218 196.694 36.4218 196.703 36.3881C196.755 36.3299 196.773 36.2625 196.825 36.2042C196.825 36.2042 196.834 36.1705 196.868 36.1796C196.92 36.1214 196.972 36.0631 197.033 35.9711L197.076 35.9465C197.128 35.8883 197.171 35.8637 197.223 35.8054C197.232 35.7717 197.266 35.7808 197.275 35.7471C197.361 35.6979 197.413 35.6397 197.499 35.5905L199.776 34.2871C199.69 34.3363 199.604 34.3855 199.552 34.4438C199.552 34.4438 199.552 34.4438 199.509 34.4684C199.509 34.4684 199.5 34.5021 199.466 34.493C199.414 34.5512 199.371 34.5758 199.319 34.6341L199.276 34.6587C199.224 34.717 199.172 34.7753 199.111 34.8672L199.102 34.9009C199.05 34.9592 199.032 35.0265 198.98 35.0848C198.971 35.1185 198.971 35.1185 198.962 35.1522C198.901 35.2442 198.883 35.3115 198.856 35.4126L198.847 35.4463C198.82 35.5473 198.793 35.6484 198.766 35.7494C198.739 35.8505 198.754 35.927 198.727 36.028L198.718 36.0617L198.709 36.0954C198.691 36.1627 198.707 36.2392 198.723 36.3157L198.714 36.3494C198.73 36.4258 198.737 36.536 198.753 36.6124C198.753 36.6124 198.753 36.6124 198.744 36.6461C198.744 36.6461 198.735 36.6798 198.769 36.6889C198.775 36.7991 198.825 36.8846 198.875 36.9702C198.875 36.9702 198.875 36.9702 198.866 37.0039C198.916 37.0894 198.932 37.1659 198.991 37.2178L202.39 42.8582C202.44 42.9438 202.49 43.0293 202.506 43.1058C202.546 43.225 202.587 43.3443 202.628 43.4635C202.653 43.5063 202.644 43.54 202.635 43.5737C202.651 43.6501 202.667 43.7266 202.692 43.7694C202.683 43.8031 202.707 43.8458 202.698 43.8795C202.714 43.956 202.696 44.0234 202.712 44.0998C202.703 44.1335 202.728 44.1763 202.719 44.21C202.726 44.3201 202.699 44.4212 202.672 44.5222C202.672 44.5222 202.672 44.5222 202.663 44.5559C202.636 44.657 202.609 44.758 202.581 44.8591C202.563 44.9265 202.545 44.9938 202.493 45.0521L199.832 50.91C199.814 50.9773 199.805 51.011 199.762 51.0356L199.753 51.0693C199.726 51.1704 199.699 51.2714 199.672 51.3725L199.663 51.4062C199.645 51.4735 199.652 51.5837 199.634 51.6511L199.625 51.6847C199.616 51.7184 199.616 51.7184 199.607 51.7521C199.589 51.8195 199.614 51.8623 199.63 51.9387L199.621 51.9724L199.611 52.0061C199.627 52.0826 199.643 52.159 199.65 52.2692C199.65 52.2692 199.65 52.2692 199.641 52.3029C199.682 52.4221 199.698 52.4986 199.739 52.6178C199.739 52.6178 199.73 52.6515 199.764 52.6606L199.788 52.7034C199.813 52.7461 199.838 52.7889 199.829 52.8226C199.854 52.8654 199.845 52.8991 199.879 52.9082C199.904 52.9509 199.929 52.9937 199.963 53.0028C199.988 53.0456 200.022 53.0547 200.013 53.0884C200.038 53.1312 200.072 53.1402 200.096 53.183C200.121 53.2258 200.155 53.2349 200.18 53.2777C200.205 53.3205 200.239 53.3296 200.264 53.3723C200.298 53.3814 200.323 53.4242 200.357 53.4333C200.382 53.4761 200.416 53.4852 200.474 53.537C200.508 53.5461 200.533 53.5889 200.567 53.598C200.601 53.6071 200.66 53.659 200.694 53.6681C200.728 53.6772 200.753 53.72 200.787 53.729C200.821 53.7381 200.88 53.79 200.914 53.7991C200.947 53.8082 200.981 53.8173 200.981 53.8173C201.049 53.8355 201.151 53.8628 201.219 53.881C201.558 53.9719 201.882 53.9864 202.266 53.9089L208.643 52.5125C209.027 52.435 209.394 52.4249 209.767 52.5249C210.14 52.625 210.487 52.826 210.781 53.0854L215.571 57.4738C215.865 57.7331 216.153 57.8823 216.492 57.9733C217.069 58.1279 217.675 58.0376 218.148 57.7671L215.871 59.0704C215.398 59.3409 214.792 59.4312 214.215 59.2766C213.875 59.1857 213.588 59.0365 213.294 58.7771L208.504 54.3887C208.209 54.1294 207.863 53.9283 207.524 53.8373C207.15 53.7373 206.784 53.7474 206.399 53.8249L200.091 55.2395C199.707 55.317 199.383 55.3025 199.044 55.2116C198.976 55.1934 198.874 55.1661 198.806 55.1479C198.772 55.1388 198.738 55.1297 198.738 55.1297C198.704 55.1206 198.636 55.1024 198.611 55.0597C198.577 55.0506 198.544 55.0415 198.519 54.9987C198.485 54.9896 198.426 54.9377 198.392 54.9286C198.358 54.9195 198.333 54.8768 198.299 54.8677C198.265 54.8586 198.24 54.8158 198.181 54.7639C198.147 54.7548 198.123 54.712 198.089 54.7029C198.064 54.6602 198.03 54.6511 198.005 54.6083C197.98 54.5655 197.946 54.5564 197.921 54.5136C197.896 54.4709 197.862 54.4618 197.837 54.419C197.812 54.3762 197.778 54.3671 197.787 54.3334C197.763 54.2906 197.729 54.2816 197.738 54.2479C197.713 54.2051 197.713 54.2051 197.688 54.1623C197.663 54.1195 197.638 54.0768 197.647 54.0431C197.622 54.0003 197.622 54.0003 197.631 53.9666C197.59 53.8474 197.54 53.7618 197.534 53.6517L197.543 53.618C197.527 53.5415 197.511 53.465 197.504 53.3549C197.513 53.3212 197.488 53.2784 197.488 53.2784C197.472 53.202 197.481 53.1683 197.465 53.0918C197.474 53.0581 197.483 53.0244 197.459 52.9817C197.477 52.9143 197.461 52.8378 197.488 52.7368L197.497 52.7031C197.524 52.602 197.551 52.501 197.578 52.3999C197.596 52.3325 197.614 52.2652 197.666 52.2069L200.327 46.349C200.345 46.2817 200.354 46.248 200.406 46.1897L200.415 46.156C200.442 46.055 200.469 45.9539 200.496 45.8528C200.523 45.7518 200.517 45.6416 200.544 45.5406C200.544 45.5406 200.544 45.5406 200.553 45.5069C200.562 45.4732 200.562 45.4732 200.537 45.4304C200.521 45.354 200.539 45.2866 200.523 45.2101L200.532 45.1764C200.541 45.1428 200.507 45.1337 200.516 45.1C200.5 45.0235 200.484 44.9471 200.46 44.9043C200.469 44.8706 200.469 44.8706 200.444 44.8278C200.444 44.8278 200.453 44.7941 200.419 44.785C200.378 44.6658 200.337 44.5465 200.296 44.4273C200.246 44.3417 200.197 44.2562 200.181 44.1797L196.831 38.6248C196.781 38.5393 196.765 38.4628 196.707 38.4109C196.614 38.35 196.614 38.35 196.623 38.3163Z" fill="url(#paint14_linear_588_2320)"/>
<path d="M173.934 26.182C174.063 26.0648 174.152 25.9753 174.206 25.8791L178.056 20.722C178.144 20.6325 178.24 20.5087 178.328 20.4191C178.417 20.3296 178.499 20.2743 178.581 20.219L180.758 18.7539C180.676 18.8092 180.594 18.8645 180.505 18.954C180.416 19.0436 180.327 19.1331 180.232 19.2569L176.383 24.414C176.288 24.5378 176.199 24.6273 176.11 24.7169C176.021 24.8064 175.939 24.8617 175.816 24.9446L173.639 26.4098C173.763 26.3268 173.851 26.2373 173.934 26.182Z" fill="url(#paint15_linear_588_2320)"/>
<path d="M182.392 18.4271C181.633 18.2817 180.795 18.5474 180.23 19.2559L176.381 24.413C175.905 25.0319 175.198 25.3583 174.413 25.3499L167.92 25.0655C166.114 24.9683 165.011 26.994 166.052 28.4715L169.837 33.7411C170.29 34.3606 170.388 35.1603 170.14 35.8941L167.911 41.9296C167.407 43.2534 168.33 44.6017 169.572 44.8396C169.917 44.9056 170.241 44.8966 170.619 44.7914L176.773 42.9162C177.151 42.811 177.516 42.7743 177.896 42.847C178.275 42.9197 178.635 43.0951 178.948 43.3325L184.043 47.3617C184.356 47.599 184.653 47.727 184.998 47.7931C186.24 48.0309 187.561 47.1121 187.582 45.6958L187.637 39.244C187.643 38.464 188.029 37.7568 188.679 37.3487L194.046 33.7959C195.559 32.8073 195.248 30.5107 193.533 29.934L187.395 27.8C186.656 27.5519 186.092 26.9469 185.878 26.1958L184.102 19.9616C183.832 19.1288 183.152 18.5724 182.392 18.4271Z" fill="url(#paint16_radial_588_2320)"/>
<path d="M169.61 44.4605C169.886 44.5134 170.175 44.4978 170.443 44.407L176.666 42.545C177.085 42.4122 177.554 42.3953 178.002 42.4812C178.451 42.5671 178.88 42.7558 179.22 43.034L184.316 47.0632C184.566 47.253 184.794 47.3678 185.07 47.4207C185.588 47.5198 186.117 47.3725 186.5 47.0552C186.882 46.7379 187.119 46.2506 187.114 45.717L187.168 39.2652C187.166 38.3416 187.647 37.5106 188.387 37.013L193.829 33.4391C194.404 33.0521 194.667 32.4277 194.578 31.7716C194.495 31.0812 194.063 30.5368 193.386 30.3361L187.247 28.2022C186.376 27.8934 185.722 27.2 185.459 26.3329L183.683 20.0988C183.49 19.4228 182.969 18.968 182.314 18.8424C181.623 18.7103 181.006 18.9471 180.577 19.5041L176.728 24.6613C176.197 25.3764 175.292 25.8067 174.409 25.7442L167.917 25.4599C167.242 25.4371 166.645 25.749 166.314 26.3601C165.982 26.9712 166.03 27.6551 166.421 28.2271L170.165 33.5243C170.703 34.2663 170.808 35.2097 170.5 36.0738L168.271 42.1094C168.104 42.6099 168.15 43.1159 168.382 43.5863C168.655 44.0292 169.126 44.368 169.61 44.4605Z" fill="url(#paint17_linear_588_2320)"/>
<path d="M163.755 29.6262C163.7 29.5444 163.65 29.4285 163.629 29.3534L163.601 29.3125C163.579 29.2374 163.565 29.128 163.543 29.0529C163.55 29.0187 163.55 29.0187 163.522 28.9778C163.5 28.9027 163.514 28.8342 163.492 28.7591C163.499 28.7248 163.499 28.7248 163.505 28.6906C163.49 28.5812 163.504 28.5127 163.523 28.41C163.523 28.41 163.523 28.41 163.53 28.3757C163.549 28.273 163.569 28.1702 163.589 28.0675L163.595 28.0332C163.615 27.9305 163.663 27.8686 163.682 27.7658C163.689 27.7316 163.689 27.7316 163.695 27.6973C163.743 27.6354 163.756 27.5669 163.804 27.505C163.804 27.505 163.81 27.4708 163.845 27.4774C163.893 27.4155 163.94 27.3536 163.994 27.2574L164.035 27.2298C164.083 27.1679 164.124 27.1402 164.172 27.0784C164.178 27.0441 164.213 27.0507 164.219 27.0165C164.301 26.9612 164.349 26.8993 164.431 26.844L166.608 25.3789C166.526 25.4341 166.444 25.4894 166.396 25.5513C166.396 25.5513 166.396 25.5513 166.355 25.579C166.355 25.579 166.348 25.6132 166.314 25.6066C166.266 25.6685 166.225 25.6962 166.178 25.7581L166.136 25.7857C166.089 25.8476 166.041 25.9095 165.987 26.0056L165.98 26.0399C165.933 26.1018 165.92 26.1703 165.872 26.2322C165.866 26.2664 165.866 26.2664 165.859 26.3007C165.805 26.3968 165.792 26.4653 165.772 26.5681L165.765 26.6023C165.746 26.7051 165.726 26.8078 165.706 26.9106C165.687 27.0133 165.708 27.0885 165.688 27.1912L165.682 27.2255L165.675 27.2597C165.662 27.3282 165.684 27.4033 165.705 27.4784L165.698 27.5127C165.72 27.5878 165.735 27.6972 165.756 27.7723C165.756 27.7723 165.756 27.7723 165.75 27.8065C165.75 27.8065 165.743 27.8408 165.777 27.8474C165.792 27.9567 165.848 28.0385 165.904 28.1202C165.904 28.1202 165.904 28.1202 165.898 28.1544C165.953 28.2361 165.975 28.3113 166.037 28.3587L169.837 33.7376C169.893 33.8194 169.949 33.9011 169.97 33.9762C170.02 34.0922 170.069 34.2081 170.118 34.3241C170.146 34.3649 170.14 34.3992 170.133 34.4335C170.155 34.5086 170.176 34.5837 170.204 34.6245C170.197 34.6588 170.225 34.6996 170.219 34.7339C170.24 34.809 170.227 34.8775 170.248 34.9526C170.242 34.9869 170.27 35.0277 170.263 35.062C170.278 35.1713 170.258 35.2741 170.239 35.3768C170.239 35.3768 170.239 35.3768 170.232 35.4111C170.213 35.5139 170.193 35.6166 170.173 35.7194C170.16 35.7879 170.147 35.8564 170.099 35.9183L167.87 41.9538C167.857 42.0223 167.851 42.0565 167.81 42.0842L167.803 42.1184C167.784 42.2212 167.764 42.3239 167.744 42.4267L167.738 42.4609C167.724 42.5294 167.739 42.6388 167.726 42.7073L167.72 42.7416C167.713 42.7758 167.713 42.7758 167.707 42.8101C167.693 42.8786 167.721 42.9194 167.743 42.9945L167.736 43.0288L167.73 43.063C167.751 43.1381 167.772 43.2132 167.787 43.3226C167.787 43.3226 167.787 43.3226 167.781 43.3569C167.83 43.4728 167.851 43.5479 167.901 43.6639C167.901 43.6639 167.894 43.6982 167.929 43.7048L167.957 43.7456C167.985 43.7865 168.013 43.8273 168.006 43.8616C168.034 43.9025 168.027 43.9367 168.062 43.9433C168.09 43.9842 168.118 44.025 168.152 44.0316C168.18 44.0725 168.215 44.0791 168.208 44.1134C168.236 44.1542 168.271 44.1608 168.299 44.2017C168.327 44.2425 168.361 44.2491 168.389 44.29C168.417 44.3309 168.452 44.3375 168.48 44.3783C168.514 44.3849 168.542 44.4258 168.577 44.4324C168.604 44.4733 168.639 44.4799 168.701 44.5273C168.736 44.5339 168.764 44.5748 168.798 44.5814C168.833 44.588 168.895 44.6355 168.93 44.6421C168.964 44.6487 168.992 44.6896 169.027 44.6962C169.061 44.7028 169.124 44.7502 169.158 44.7568C169.193 44.7635 169.227 44.7701 169.227 44.7701C169.296 44.7833 169.4 44.8031 169.469 44.8163C169.814 44.8824 170.138 44.8733 170.516 44.7682L176.774 42.9128C177.152 42.8076 177.516 42.7709 177.896 42.8436C178.276 42.9163 178.636 43.0917 178.948 43.329L184.044 47.3583C184.356 47.5956 184.653 47.7236 184.999 47.7896C185.585 47.902 186.183 47.7679 186.635 47.4638L184.458 48.929C184.007 49.2331 183.409 49.3671 182.822 49.2548C182.477 49.1887 182.179 49.0607 181.867 48.8234L176.771 44.7942C176.459 44.5568 176.099 44.3814 175.754 44.3153C175.374 44.2426 175.01 44.2793 174.632 44.3845L168.443 46.2531C168.065 46.3583 167.741 46.3673 167.396 46.3013C167.327 46.288 167.223 46.2682 167.154 46.255C167.12 46.2484 167.085 46.2418 167.085 46.2418C167.051 46.2352 166.982 46.222 166.954 46.1811C166.919 46.1745 166.885 46.1679 166.857 46.127C166.822 46.1204 166.76 46.073 166.725 46.0664C166.691 46.0598 166.663 46.0189 166.628 46.0123C166.594 46.0057 166.566 45.9648 166.503 45.9174C166.469 45.9107 166.441 45.8699 166.406 45.8633C166.378 45.8224 166.344 45.8158 166.316 45.775C166.288 45.7341 166.254 45.7275 166.226 45.6866C166.198 45.6458 166.163 45.6392 166.135 45.5983C166.107 45.5574 166.073 45.5508 166.079 45.5166C166.051 45.4757 166.017 45.4691 166.023 45.4349C165.995 45.394 165.995 45.394 165.967 45.3531C165.94 45.3123 165.912 45.2714 165.918 45.2372C165.89 45.1963 165.89 45.1963 165.897 45.1621C165.847 45.0461 165.791 44.9644 165.777 44.855L165.783 44.8208C165.762 44.7457 165.74 44.6706 165.726 44.5612C165.732 44.5269 165.704 44.4861 165.704 44.4861C165.683 44.411 165.689 44.3767 165.668 44.3016C165.675 44.2674 165.681 44.2331 165.653 44.1922C165.666 44.1237 165.645 44.0486 165.665 43.9459L165.671 43.9116C165.691 43.8089 165.71 43.7061 165.73 43.6034C165.743 43.5349 165.756 43.4664 165.804 43.4045L168.033 37.369C168.046 37.3005 168.052 37.2662 168.1 37.2043L168.107 37.1701C168.126 37.0673 168.146 36.9645 168.166 36.8618C168.185 36.759 168.171 36.6497 168.19 36.5469C168.19 36.5469 168.19 36.5469 168.197 36.5127C168.203 36.4784 168.203 36.4784 168.175 36.4376C168.154 36.3625 168.167 36.294 168.146 36.2188L168.152 36.1846C168.159 36.1503 168.124 36.1437 168.131 36.1095C168.109 36.0344 168.088 35.9593 168.06 35.9184C168.067 35.8841 168.067 35.8841 168.039 35.8433C168.039 35.8433 168.045 35.809 168.011 35.8024C167.961 35.6865 167.912 35.5705 167.863 35.4545C167.807 35.3728 167.751 35.2911 167.73 35.216L163.986 29.9188C163.93 29.8371 163.908 29.762 163.846 29.7145C163.749 29.6604 163.749 29.6604 163.755 29.6262Z" fill="url(#paint18_linear_588_2320)"/>
<path d="M89.796 255.149L87.5246 255.387C87.2825 255.413 87.0525 255.332 86.8717 255.164C82.8563 251.343 75.1176 246.258 69.9431 242.057C67.1642 243.9 62.7012 245.803 56.9024 244.978C53.034 244.441 49.3289 242.685 46.3873 240.873C42.8358 238.693 40.3464 236.414 39.8931 235.983C39.4933 235.617 39.3016 235.124 39.3605 234.687C39.3994 234.391 39.5839 234.151 39.8497 234.018C41.4331 233.222 47.1589 230.801 54.6853 232.202C56.5652 232.564 58.5731 233.146 60.7254 233.992C56.258 229.752 53.6314 226.834 49.4748 221.559C46.571 222.657 42.1847 223.514 37.1792 221.697C29.8946 219.047 24.4397 211.402 23.8597 210.542C23.5843 210.14 23.4873 209.66 23.6445 209.271C23.7435 208.992 23.9674 208.794 24.2278 208.72C25.8293 208.318 31.5373 207.17 37.9833 209.827C39.604 210.496 41.2478 211.384 42.9771 212.531C39.8896 207.89 38.1097 204.708 35.4205 199.197C32.5768 199.647 28.4558 199.591 24.2739 197.069C18.2395 193.449 14.7241 185.623 14.3529 184.753C14.1697 184.341 14.1777 183.862 14.3767 183.538C14.537 183.288 14.7785 183.146 15.0449 183.13C16.5857 183.038 21.9774 182.984 27.3273 186.525C28.6434 187.401 29.9443 188.465 31.2718 189.782C29.3616 185.029 28.3245 181.815 26.872 176.314C24.2286 176.231 20.4985 175.457 17.1899 172.482C12.484 168.303 10.6161 161.178 10.2953 159.79C10.2067 159.391 10.3003 158.95 10.54 158.68C10.7282 158.474 10.9861 158.376 11.2573 158.406C12.6633 158.585 17.5785 159.432 21.8191 163.509C22.8451 164.509 23.8164 165.654 24.7519 167.013C23.8564 162.374 23.4576 159.246 23.0342 153.998C20.6598 153.478 17.4347 152.185 14.9314 148.997C11.3809 144.498 10.783 137.811 10.7061 136.525C10.6765 136.132 10.8337 135.742 11.1038 135.539C11.3071 135.366 11.5686 135.304 11.8101 135.383C13.0614 135.753 17.3836 137.281 20.5664 141.609C21.3284 142.648 22.0091 143.8 22.6375 145.122C22.5533 140.771 22.6757 137.832 23.1103 132.983C21.0642 132.149 18.3738 130.508 16.5993 127.268C14.0823 122.73 14.4947 116.671 14.6041 115.494C14.6357 115.129 14.8324 114.782 15.1176 114.612C15.3385 114.496 15.6049 114.479 15.8258 114.584C16.8943 115.102 20.566 117.094 22.782 121.43C23.2947 122.426 23.7235 123.511 24.0735 124.734C24.6488 120.78 25.2038 118.075 26.2871 113.741C24.5815 112.708 22.4506 110.846 21.332 107.746C19.7307 103.379 20.893 98.0232 21.1359 97.0068C21.2276 96.6591 21.4649 96.3661 21.7447 96.2551C21.9692 96.1732 22.2277 96.1926 22.4164 96.3243C23.3066 96.9186 26.3173 99.1667 27.7008 103.346C27.995 104.259 28.2249 105.226 28.3734 106.306C29.4401 102.813 30.3174 100.401 31.8866 96.588C30.5439 95.4585 28.91 93.5552 28.3151 90.6684C27.4814 86.6177 29.1551 82.0237 29.4945 81.1487C29.6244 80.832 29.8805 80.6069 30.1524 80.5317C30.3806 80.4844 30.6184 80.5293 30.7968 80.6738C31.5049 81.3105 33.8851 83.6599 34.597 87.5485C34.7243 88.3162 34.7873 89.1372 34.7974 90.0104C36.2058 86.9947 37.3087 84.9554 39.2323 81.629C38.1905 80.4795 37.0311 78.6546 36.8659 76.0841C36.6249 72.4607 38.6105 68.6149 39.0117 67.885C39.1683 67.6004 39.4281 67.4099 39.683 67.3948C39.9123 67.359 40.1193 67.4422 40.2643 67.6018C40.8316 68.2299 42.6359 70.535 42.7804 74.017C42.7997 74.6444 42.7857 75.287 42.7036 75.9485C44.3279 73.4346 45.5546 71.6854 47.6723 68.8749C46.9297 67.7988 46.1702 66.1184 46.301 63.9248C46.4848 60.793 48.5594 57.6839 48.974 57.0808C49.1482 56.8526 49.4128 56.7083 49.6573 56.7059C49.8776 56.6944 50.0754 56.8018 50.1871 56.9766C50.5984 57.5629 51.9337 59.7307 51.6674 62.7429C51.6303 63.1665 51.5611 63.6167 51.4597 64.0937C52.0684 63.3419 52.6523 62.686 53.2659 61.9804C53.8911 61.2735 54.5472 60.5284 55.3732 59.6256C55.6967 59.2652 56.2028 59.2004 56.5135 59.4941C56.8242 59.7879 56.8071 60.2909 56.4824 60.6398C54.8418 62.4442 53.844 63.5983 52.6392 65.1121C53.0859 64.9253 53.5234 64.7627 53.9567 64.6705C56.7046 63.9737 58.9315 64.9753 59.7622 65.4476C59.9333 65.5229 60.0589 65.7195 60.0807 65.927C60.1085 66.1922 60.0059 66.4361 59.8142 66.6078C58.6944 67.5998 56.4768 69.3484 53.971 70.0197C51.8513 70.5922 49.9932 70.2163 48.921 69.886C46.8573 72.6559 45.641 74.3924 44.0513 76.9026C44.6563 76.5592 45.2444 76.2759 45.8397 76.0618C48.8959 74.9712 51.5883 75.854 52.6126 76.2826C52.8207 76.3773 52.9554 76.5496 53.0154 76.7881C53.0651 77.0394 52.9905 77.327 52.8011 77.5217C51.6734 78.771 49.3683 81.0183 46.5876 82.0683C44.1881 82.9733 41.9871 82.7733 40.6995 82.5007C38.8093 85.8118 37.75 87.8233 36.3775 90.8469C37.053 90.2863 37.7637 89.8386 38.4725 89.4843C41.7521 87.8573 44.9233 88.5265 46.1272 88.8896C46.3547 88.9473 46.5483 89.1251 46.6071 89.3521C46.6926 89.6112 46.655 89.9182 46.4808 90.1464C45.3937 91.6712 43.134 94.4616 40.1839 96.0073C37.5871 97.3644 35.0402 97.4223 33.5596 97.3098C32.0055 101.157 31.1889 103.481 30.1452 106.971C30.8656 106.172 31.6249 105.521 32.4193 104.983C35.7858 102.741 39.4292 103.023 40.84 103.247C41.0779 103.292 41.2909 103.433 41.4213 103.676C41.5414 103.931 41.5395 104.246 41.3932 104.518C40.2162 106.74 38.1968 109.82 35.331 111.835C32.6504 113.725 29.8067 114.176 28.1609 114.267C27.1159 118.632 26.6063 121.215 26.0529 125.155C26.7364 124.116 27.5163 123.218 28.3581 122.465C31.5438 119.612 35.3177 119.25 37.2918 119.288C37.5594 119.283 37.7954 119.421 37.9465 119.638C38.1242 119.888 38.1594 120.222 38.0489 120.502C37.1206 123.094 35.4385 126.722 32.6406 129.382C29.9987 131.863 26.9431 132.849 25.1626 133.211C24.7626 138.055 24.6741 140.874 24.779 145.2C25.363 143.879 26.0805 142.72 26.875 141.739C29.8272 138.106 33.8828 137.097 36.0329 136.813C36.3084 136.772 36.5754 136.872 36.7713 137.073C36.9825 137.307 37.0856 137.623 37.0158 137.957C36.1971 142.146 34.711 145.753 32.6789 148.379C30.2608 151.548 27.1068 153.15 25.2498 153.893C25.7144 159.09 26.1217 162.078 27.061 166.689C27.4429 165.11 28.0033 163.676 28.6892 162.438C31.1967 158.012 35.3763 156.186 37.6465 155.493C37.9172 155.406 38.2139 155.456 38.4421 155.631C38.6969 155.837 38.8589 156.158 38.8364 156.498C38.7386 161.113 37.7834 165.224 36.1153 168.43C34.0963 172.291 31.0315 174.63 29.1926 175.767C30.6748 181.219 31.6835 184.272 33.6131 188.988C33.6929 187.196 34.0038 185.497 34.5005 184.011C36.2969 178.809 40.3886 176.036 42.6875 174.839C42.9636 174.693 43.2798 174.706 43.5492 174.83C43.8465 174.997 44.0637 175.288 44.1128 175.645C44.8851 180.553 44.689 185.12 43.5761 188.839C42.1784 193.509 39.1954 196.737 37.743 198.113C40.4529 203.599 42.1776 206.588 45.2693 211.159C44.9353 209.201 44.8761 207.307 45.0912 205.583C45.8215 199.666 49.5851 195.878 51.7809 194.143C52.0291 193.954 52.3368 193.887 52.6371 193.972C52.9861 194.075 53.2573 194.326 53.3986 194.673C55.2656 199.792 56.0453 204.548 55.709 208.78C55.2731 214.06 52.8943 218.157 51.6803 219.916C55.8412 225.121 58.3585 227.887 62.792 232.026C61.9257 229.995 61.3629 227.968 61.163 226.066C60.4776 219.656 63.5575 214.798 65.4469 212.478C65.6417 212.224 65.9537 212.086 66.271 212.111C66.6461 212.13 66.9944 212.338 67.2152 212.665C70.413 217.691 72.4009 222.518 73.1205 227.035C74.0201 232.711 72.6497 237.53 71.8393 239.69C75.2535 242.339 81.5778 247.164 85.6322 250.026C87.217 251.13 88.8741 252.366 90.2921 253.768C90.7926 254.204 90.4994 255.075 89.796 255.149Z" fill="#AEAEAE"/>
<path d="M192.841 255.152L195.112 255.391C195.354 255.417 195.584 255.336 195.765 255.168C199.78 251.347 207.519 246.262 212.694 242.061C215.473 243.904 219.936 245.807 225.734 244.982C229.603 244.445 233.308 242.689 236.249 240.877C239.801 238.697 242.29 236.417 242.744 235.987C243.143 235.621 243.335 235.128 243.276 234.691C243.237 234.395 243.053 234.154 242.787 234.022C241.204 233.226 235.478 230.805 227.951 232.206C226.072 232.568 224.064 233.149 221.911 233.996C226.379 229.756 229.005 226.838 233.162 221.563C236.066 222.66 240.452 223.518 245.458 221.701C252.742 219.051 258.197 211.406 258.777 210.546C259.052 210.143 259.149 209.664 258.992 209.274C258.893 208.996 258.669 208.798 258.409 208.724C256.807 208.322 251.099 207.174 244.653 209.831C243.033 210.5 241.389 211.388 239.66 212.535C242.747 207.893 244.527 204.712 247.216 199.201C250.06 199.651 254.181 199.595 258.363 197.073C264.397 193.452 267.913 185.627 268.284 184.757C268.467 184.345 268.459 183.866 268.26 183.542C268.1 183.292 267.858 183.15 267.592 183.133C266.051 183.041 260.659 182.988 255.309 186.529C253.993 187.405 252.692 188.469 251.365 189.786C253.275 185.033 254.312 181.819 255.765 176.318C258.408 176.235 262.138 175.461 265.447 172.486C270.153 168.306 272.021 161.182 272.341 159.794C272.43 159.395 272.336 158.954 272.097 158.684C271.909 158.477 271.651 158.38 271.379 158.41C269.973 158.589 265.058 159.436 260.818 163.513C259.792 164.513 258.82 165.658 257.885 167.017C258.78 162.378 259.179 159.249 259.602 154.002C261.977 153.482 265.202 152.189 267.705 149.001C271.256 144.502 271.854 137.815 271.931 136.529C271.96 136.136 271.803 135.746 271.533 135.543C271.33 135.37 271.068 135.308 270.827 135.387C269.575 135.757 265.253 137.284 262.07 141.613C261.308 142.652 260.628 143.804 259.999 145.125C260.083 140.774 259.961 137.836 259.526 132.987C261.572 132.153 264.263 130.512 266.037 127.272C268.554 122.733 268.142 116.675 268.033 115.498C268.001 115.133 267.804 114.786 267.519 114.616C267.298 114.5 267.032 114.483 266.811 114.588C265.742 115.105 262.071 117.098 259.855 121.434C259.342 122.43 258.913 123.515 258.563 124.738C257.988 120.784 257.433 118.079 256.35 113.745C258.055 112.712 260.186 110.849 261.305 107.75C262.906 103.383 261.744 98.0271 261.501 97.0107C261.409 96.663 261.172 96.37 260.892 96.259C260.667 96.1771 260.409 96.1965 260.22 96.3282C259.33 96.9225 256.319 99.1706 254.936 103.35C254.642 104.263 254.412 105.23 254.263 106.31C253.197 102.817 252.319 100.405 250.75 96.5919C252.093 95.4624 253.727 93.5591 254.322 90.6723C255.155 86.6216 253.482 82.0276 253.142 81.1526C253.012 80.8359 252.756 80.6108 252.484 80.5356C252.256 80.4883 252.018 80.5332 251.84 80.6777C251.132 81.3144 248.752 83.6638 248.04 87.5524C247.912 88.3201 247.849 89.1411 247.839 90.0143C246.431 86.9986 245.328 84.9593 243.404 81.6329C244.446 80.4835 245.606 78.6585 245.771 76.088C246.012 72.4646 244.026 68.6188 243.625 67.8889C243.468 67.6043 243.209 67.4138 242.954 67.3987C242.724 67.3629 242.517 67.4461 242.372 67.6057C241.805 68.2339 240.001 70.5389 239.856 74.0209C239.837 74.6483 239.851 75.2909 239.933 75.9524C238.309 73.4385 237.082 71.6893 234.964 68.8788C235.707 67.8028 236.467 66.1223 236.336 63.9287C236.152 60.7969 234.077 57.6878 233.663 57.0847C233.489 56.8566 233.224 56.7122 232.979 56.7098C232.759 56.6983 232.561 56.8057 232.45 56.9805C232.038 57.5668 230.703 59.7346 230.969 62.7468C231.006 63.1704 231.076 63.6206 231.177 64.0976C230.568 63.3458 229.984 62.6899 229.371 61.9843C228.746 61.2774 228.09 60.5323 227.263 59.6295C226.94 59.2691 226.434 59.2043 226.123 59.498C225.813 59.7918 225.83 60.2948 226.154 60.6437C227.795 62.4481 228.793 63.6022 229.998 65.116C229.551 64.9292 229.113 64.7666 228.68 64.6745C225.932 63.9776 223.705 64.9793 222.875 65.4515C222.703 65.5268 222.578 65.7234 222.556 65.9309C222.528 66.1961 222.631 66.4401 222.823 66.6118C223.942 67.6037 226.16 69.3523 228.666 70.0236C230.785 70.5961 232.644 70.2202 233.716 69.8899C235.779 72.6598 236.996 74.3963 238.585 76.9065C237.98 76.5632 237.392 76.2799 236.797 76.0657C233.741 74.9751 231.048 75.8579 230.024 76.2865C229.816 76.3812 229.681 76.5535 229.621 76.792C229.572 77.0433 229.646 77.3309 229.836 77.5256C230.963 78.7749 233.268 81.0222 236.049 82.0722C238.449 82.9772 240.65 82.7772 241.937 82.5046C243.827 85.8157 244.887 87.8272 246.259 90.8508C245.584 90.2902 244.873 89.8425 244.164 89.4882C240.885 87.8612 237.713 88.5304 236.51 88.8935C236.282 88.9512 236.088 89.129 236.03 89.356C235.944 89.6151 235.982 89.9221 236.156 90.1503C237.243 91.6751 239.503 94.4655 242.453 96.0112C245.05 97.3683 247.597 97.4262 249.077 97.3137C250.631 101.161 251.448 103.485 252.492 106.975C251.771 106.176 251.012 105.525 250.217 104.987C246.851 102.745 243.208 103.026 241.797 103.251C241.559 103.296 241.346 103.437 241.215 103.68C241.095 103.935 241.097 104.25 241.243 104.522C242.42 106.744 244.44 109.824 247.306 111.839C249.986 113.729 252.83 114.18 254.476 114.271C255.521 118.636 256.03 121.219 256.584 125.159C255.9 124.12 255.12 123.222 254.279 122.469C251.093 119.616 247.319 119.254 245.345 119.292C245.077 119.287 244.841 119.425 244.69 119.642C244.512 119.892 244.477 120.226 244.588 120.506C245.516 123.098 247.198 126.725 249.996 129.386C252.638 131.867 255.694 132.852 257.474 133.214C257.874 138.059 257.963 140.878 257.858 145.203C257.274 143.883 256.556 142.724 255.762 141.742C252.81 138.11 248.754 137.101 246.604 136.816C246.328 136.776 246.061 136.876 245.865 137.077C245.654 137.311 245.551 137.627 245.621 137.96C246.44 142.15 247.926 145.757 249.958 148.383C252.376 151.552 255.53 153.154 257.387 153.897C256.922 159.094 256.515 162.082 255.576 166.693C255.194 165.114 254.633 163.679 253.948 162.442C251.44 158.016 247.26 156.19 244.99 155.497C244.72 155.41 244.423 155.46 244.195 155.635C243.94 155.841 243.778 156.162 243.8 156.502C243.898 161.117 244.853 165.228 246.521 168.434C248.54 172.295 251.605 174.634 253.444 175.771C251.962 181.223 250.953 184.276 249.024 188.992C248.944 187.2 248.633 185.501 248.136 184.015C246.34 178.813 242.248 176.04 239.949 174.842C239.673 174.697 239.357 174.71 239.088 174.834C238.79 175 238.573 175.292 238.524 175.649C237.752 180.557 237.948 185.124 239.061 188.843C240.458 193.513 243.441 196.74 244.894 198.117C242.184 203.603 240.459 206.592 237.367 211.163C237.701 209.205 237.761 207.311 237.546 205.587C236.815 199.669 233.052 195.882 230.856 194.147C230.608 193.958 230.3 193.89 230 193.975C229.651 194.079 229.379 194.33 229.238 194.676C227.371 199.796 226.591 204.552 226.928 208.784C227.364 214.064 229.742 218.161 230.956 219.92C226.796 225.125 224.278 227.891 219.845 232.03C220.711 229.999 221.274 227.972 221.474 226.069C222.159 219.66 219.079 214.802 217.19 212.481C216.995 212.228 216.683 212.09 216.366 212.115C215.991 212.134 215.642 212.342 215.422 212.669C212.224 217.695 210.236 222.522 209.516 227.039C208.617 232.715 209.987 237.534 210.797 239.694C207.383 242.342 201.059 247.168 197.005 250.03C195.42 251.134 193.763 252.37 192.345 253.771C191.844 254.208 192.137 255.079 192.841 255.152Z" fill="#AEAEAE"/>
<path d="M81.3443 129.862L103.496 87.8664H117.341L94.6352 129.862H81.3443ZM81.3443 137.246V129.862L85.9592 126.262H132.477V137.246H81.3443ZM111.987 152.752V111.402H124.355V152.752H111.987ZM145.516 153.675C143.301 153.675 141.486 152.937 140.07 151.46C138.655 149.983 137.948 148.168 137.948 146.014C137.948 143.861 138.655 142.045 140.07 140.569C141.486 139.092 143.301 138.353 145.516 138.353C147.67 138.353 149.454 139.092 150.869 140.569C152.284 142.045 152.992 143.861 152.992 146.014C152.992 148.168 152.284 149.983 150.869 151.46C149.454 152.937 147.67 153.675 145.516 153.675ZM165.195 152.752L187.993 95.158H200.36L178.209 152.752H165.195ZM156.242 98.7576V87.8664H200.36V95.158L195.653 98.7576H156.242Z" fill="#0B0B0B"/>
<path d="M96.8226 194.238V190.691H102.278C103.393 190.691 104.252 190.412 104.855 189.854C105.479 189.274 105.792 188.482 105.792 187.478C105.792 186.563 105.479 185.805 104.855 185.202C104.252 184.577 103.393 184.265 102.278 184.265H96.8226V180.55H102.679C104.196 180.55 105.524 180.852 106.662 181.454C107.822 182.034 108.714 182.837 109.339 183.864C109.986 184.89 110.31 186.072 110.31 187.411C110.31 188.794 109.986 189.999 109.339 191.025C108.714 192.029 107.822 192.821 106.662 193.401C105.502 193.959 104.152 194.238 102.612 194.238H96.8226ZM93.476 204.077V180.55H98.0274V204.077H93.476ZM106.327 204.077L98.5628 193.903L102.746 192.598L111.849 204.077H106.327ZM120.259 204.412C118.787 204.412 117.459 204.044 116.277 203.307C115.094 202.571 114.168 201.567 113.499 200.295C112.83 199.024 112.495 197.596 112.495 196.012C112.495 194.405 112.83 192.966 113.499 191.695C114.168 190.423 115.094 189.419 116.277 188.683C117.459 187.946 118.787 187.578 120.259 187.578C121.419 187.578 122.457 187.813 123.372 188.281C124.286 188.75 125.011 189.408 125.547 190.256C126.105 191.081 126.406 192.018 126.45 193.067V198.89C126.406 199.961 126.105 200.909 125.547 201.734C125.011 202.56 124.286 203.218 123.372 203.709C122.457 204.178 121.419 204.412 120.259 204.412ZM121.062 200.362C122.289 200.362 123.282 199.961 124.041 199.158C124.799 198.332 125.179 197.272 125.179 195.978C125.179 195.13 125 194.383 124.643 193.736C124.309 193.067 123.829 192.554 123.204 192.197C122.602 191.817 121.888 191.628 121.062 191.628C120.259 191.628 119.545 191.817 118.921 192.197C118.318 192.554 117.838 193.067 117.481 193.736C117.147 194.383 116.979 195.13 116.979 195.978C116.979 196.848 117.147 197.618 117.481 198.287C117.838 198.934 118.318 199.448 118.921 199.827C119.545 200.184 120.259 200.362 121.062 200.362ZM124.944 204.077V199.727L125.647 195.777L124.944 191.895V187.913H129.295V204.077H124.944ZM135.55 204.077V181.186H139.934V204.077H135.55ZM131.768 191.762V187.913H143.715V191.762H131.768ZM146.181 204.077V187.913H150.598V204.077H146.181ZM148.39 185.303C147.676 185.303 147.084 185.068 146.616 184.6C146.147 184.109 145.913 183.507 145.913 182.793C145.913 182.101 146.147 181.51 146.616 181.019C147.084 180.528 147.676 180.283 148.39 180.283C149.126 180.283 149.717 180.528 150.163 181.019C150.632 181.51 150.866 182.101 150.866 182.793C150.866 183.507 150.632 184.109 150.163 184.6C149.717 185.068 149.126 185.303 148.39 185.303ZM165.359 204.077V194.807C165.359 193.848 165.057 193.067 164.455 192.464C163.853 191.862 163.072 191.561 162.112 191.561C161.488 191.561 160.93 191.695 160.439 191.962C159.948 192.23 159.558 192.609 159.268 193.1C159 193.591 158.866 194.16 158.866 194.807L157.159 193.937C157.159 192.665 157.427 191.561 157.963 190.624C158.52 189.664 159.279 188.917 160.238 188.381C161.22 187.846 162.324 187.578 163.551 187.578C164.734 187.578 165.794 187.879 166.731 188.482C167.668 189.062 168.404 189.832 168.94 190.791C169.475 191.728 169.743 192.743 169.743 193.836V204.077H165.359ZM154.482 204.077V187.913H158.866V204.077H154.482ZM180.034 211.239C178.316 211.239 176.799 210.927 175.483 210.302C174.167 209.699 173.118 208.84 172.337 207.725L175.115 204.947C175.74 205.684 176.431 206.241 177.19 206.621C177.971 207.022 178.908 207.223 180.001 207.223C181.362 207.223 182.433 206.877 183.214 206.185C184.017 205.494 184.418 204.534 184.418 203.307V199.258L185.155 195.711L184.452 192.163V187.913H188.803V203.24C188.803 204.847 188.423 206.241 187.665 207.424C186.928 208.629 185.902 209.566 184.586 210.235C183.269 210.904 181.752 211.239 180.034 211.239ZM179.834 203.642C178.383 203.642 177.078 203.296 175.918 202.605C174.758 201.891 173.843 200.92 173.174 199.693C172.527 198.466 172.203 197.094 172.203 195.577C172.203 194.06 172.527 192.699 173.174 191.494C173.843 190.289 174.758 189.341 175.918 188.649C177.078 187.935 178.383 187.578 179.834 187.578C181.038 187.578 182.098 187.813 183.013 188.281C183.95 188.75 184.686 189.397 185.222 190.222C185.757 191.025 186.047 191.973 186.092 193.067V198.154C186.047 199.225 185.746 200.184 185.188 201.032C184.653 201.857 183.916 202.504 182.979 202.973C182.065 203.419 181.016 203.642 179.834 203.642ZM180.704 199.66C181.507 199.66 182.199 199.492 182.779 199.158C183.381 198.801 183.85 198.321 184.184 197.719C184.519 197.094 184.686 196.391 184.686 195.61C184.686 194.807 184.519 194.104 184.184 193.502C183.85 192.899 183.381 192.431 182.779 192.096C182.199 191.739 181.507 191.561 180.704 191.561C179.901 191.561 179.198 191.739 178.595 192.096C177.993 192.431 177.524 192.911 177.19 193.535C176.855 194.138 176.688 194.829 176.688 195.61C176.688 196.369 176.855 197.06 177.19 197.685C177.524 198.287 177.993 198.767 178.595 199.124C179.198 199.481 179.901 199.66 180.704 199.66Z" fill="#0B0B0B"/>
<path d="M136.17 261.952C136.17 258.582 138.978 255.773 142.349 255.773C145.719 255.773 148.528 258.582 148.528 261.952C148.528 265.322 145.719 268.131 142.349 268.131C138.791 268.131 136.17 265.322 136.17 261.952Z" fill="#9F9F9F"/>
<path d="M163.32 257.275C163.32 254.653 165.38 252.594 168.001 252.594C170.623 252.594 172.682 254.653 172.682 257.275C172.682 259.896 170.623 261.955 168.001 261.955C165.38 261.955 163.32 259.896 163.32 257.275Z" fill="#9F9F9F"/>
<path d="M109.957 257.275C109.957 254.653 112.017 252.594 114.638 252.594C117.259 252.594 119.319 254.653 119.319 257.275C119.319 259.896 117.259 261.955 114.638 261.955C112.017 261.955 109.957 259.896 109.957 257.275Z" fill="#9F9F9F"/>
<defs>
<linearGradient id="paint0_linear_588_2320" x1="144.463" y1="0.537116" x2="149.436" y2="16.1269" gradientUnits="userSpaceOnUse">
<stop stop-color="#F4C800"/>
<stop offset="0.4641" stop-color="#EFA300"/>
<stop offset="1" stop-color="#EA7400"/>
</linearGradient>
<radialGradient id="paint1_radial_588_2320" cx="0" cy="0" r="1" gradientUnits="userSpaceOnUse" gradientTransform="translate(133.852 10.6901) scale(36.2227 35.9509)">
<stop stop-color="#F4C800"/>
<stop offset="1" stop-color="#EC8400"/>
</radialGradient>
<linearGradient id="paint2_linear_588_2320" x1="118.309" y1="21.3907" x2="161.941" y2="21.3907" gradientUnits="userSpaceOnUse">
<stop stop-color="#F7971E"/>
<stop offset="1" stop-color="#FFD200"/>
</linearGradient>
<linearGradient id="paint3_linear_588_2320" x1="146.248" y1="31.0438" x2="165.177" y2="54.1652" gradientUnits="userSpaceOnUse">
<stop stop-color="#A54A00"/>
<stop offset="1" stop-color="#E06A00"/>
</linearGradient>
<linearGradient id="paint4_linear_588_2320" x1="69.7908" y1="28.1197" x2="75.6575" y2="37.2602" gradientUnits="userSpaceOnUse">
<stop stop-color="#F4C800"/>
<stop offset="0.4641" stop-color="#EFA300"/>
<stop offset="1" stop-color="#EA7400"/>
</linearGradient>
<radialGradient id="paint5_radial_588_2320" cx="0" cy="0" r="1" gradientUnits="userSpaceOnUse" gradientTransform="translate(64.7313 36.4521) rotate(-14.9999) scale(24.0421 23.8616)">
<stop stop-color="#F4C800"/>
<stop offset="1" stop-color="#EC8400"/>
</radialGradient>
<linearGradient id="paint6_linear_588_2320" x1="56.6024" y1="45.9819" x2="84.5755" y2="38.4865" gradientUnits="userSpaceOnUse">
<stop stop-color="#F7971E"/>
<stop offset="1" stop-color="#FFD200"/>
</linearGradient>
<linearGradient id="paint7_linear_588_2320" x1="103.442" y1="18.254" x2="108.629" y2="27.7961" gradientUnits="userSpaceOnUse">
<stop stop-color="#F4C800"/>
<stop offset="0.4641" stop-color="#EFA300"/>
<stop offset="1" stop-color="#EA7400"/>
</linearGradient>
<radialGradient id="paint8_radial_588_2320" cx="0" cy="0" r="1" gradientUnits="userSpaceOnUse" gradientTransform="translate(97.7922 26.196) rotate(-10.8388) scale(24.0421 23.8616)">
<stop stop-color="#F4C800"/>
<stop offset="1" stop-color="#EC8400"/>
</radialGradient>
<linearGradient id="paint9_linear_588_2320" x1="88.9947" y1="35.1118" x2="117.438" y2="29.6659" gradientUnits="userSpaceOnUse">
<stop stop-color="#F7971E"/>
<stop offset="1" stop-color="#FFD200"/>
</linearGradient>
<linearGradient id="paint10_linear_588_2320" x1="108.412" y1="37.9129" x2="123.638" y2="50.6228" gradientUnits="userSpaceOnUse">
<stop stop-color="#A54A00"/>
<stop offset="1" stop-color="#E06A00"/>
</linearGradient>
<linearGradient id="paint11_linear_588_2320" x1="213.238" y1="28.1197" x2="207.372" y2="37.2602" gradientUnits="userSpaceOnUse">
<stop stop-color="#F4C800"/>
<stop offset="0.4641" stop-color="#EFA300"/>
<stop offset="1" stop-color="#EA7400"/>
</linearGradient>
<radialGradient id="paint12_radial_588_2320" cx="0" cy="0" r="1" gradientUnits="userSpaceOnUse" gradientTransform="translate(218.298 36.4521) rotate(-165) scale(24.0421 23.8616)">
<stop stop-color="#F4C800"/>
<stop offset="1" stop-color="#EC8400"/>
</radialGradient>
<linearGradient id="paint13_linear_588_2320" x1="226.425" y1="45.9819" x2="198.452" y2="38.4865" gradientUnits="userSpaceOnUse">
<stop stop-color="#F7971E"/>
<stop offset="1" stop-color="#FFD200"/>
</linearGradient>
<linearGradient id="paint14_linear_588_2320" x1="206.854" y1="47.3693" x2="190.747" y2="58.9409" gradientUnits="userSpaceOnUse">
<stop stop-color="#A54A00"/>
<stop offset="1" stop-color="#E06A00"/>
</linearGradient>
<linearGradient id="paint15_linear_588_2320" x1="179.588" y1="18.254" x2="174.4" y2="27.7961" gradientUnits="userSpaceOnUse">
<stop stop-color="#F4C800"/>
<stop offset="0.4641" stop-color="#EFA300"/>
<stop offset="1" stop-color="#EA7400"/>
</linearGradient>
<radialGradient id="paint16_radial_588_2320" cx="0" cy="0" r="1" gradientUnits="userSpaceOnUse" gradientTransform="translate(185.237 26.196) rotate(-169.161) scale(24.0421 23.8616)">
<stop stop-color="#F4C800"/>
<stop offset="1" stop-color="#EC8400"/>
</radialGradient>
<linearGradient id="paint17_linear_588_2320" x1="194.035" y1="35.1118" x2="165.591" y2="29.6659" gradientUnits="userSpaceOnUse">
<stop stop-color="#F7971E"/>
<stop offset="1" stop-color="#FFD200"/>
</linearGradient>
<linearGradient id="paint18_linear_588_2320" x1="174.617" y1="37.9129" x2="159.391" y2="50.6228" gradientUnits="userSpaceOnUse">
<stop stop-color="#A54A00"/>
<stop offset="1" stop-color="#E06A00"/>
</linearGradient>
</defs>
</svg>
