<svg width="85" height="85" viewBox="0 0 85 85" fill="none" xmlns="http://www.w3.org/2000/svg">
<g clip-path="url(#clip0_135_544)">
<path d="M19.7496 11C25.1331 11 29.5884 13.0413 33.4869 17.3094C35.3433 19.1651 36.6427 21.5775 37.7566 24.3611C38.8704 27.1447 39.4273 29.9282 39.4273 32.7118C39.4273 38.6501 37.5709 44.5883 33.6725 50.5266C29.7741 56.6505 24.7618 61.6609 18.2644 65.929C12.8809 69.4549 8.61121 71.3106 5.45534 71.3106C4.15587 71.3106 3.22767 70.9394 2.29947 70.1971C1.37128 69.2693 1 68.3414 1 67.0424C1 65.1867 2.11384 63.7022 4.52715 62.4032C10.0963 59.434 14.366 56.6505 16.965 53.6813C19.3783 51.0833 20.6778 49.042 20.6778 47.7431C20.6778 46.6296 19.7496 45.8873 17.8932 45.5162L16.5937 45.3306H15.1086C11.0245 44.7739 7.86865 42.9182 5.2697 39.7635C2.67075 36.6088 1.55692 32.8974 1.55692 28.4437C1.55692 23.8044 3.04203 19.9074 6.1979 16.5671C9.91068 12.8557 14.366 11 19.7496 11Z" fill="#D7EDFF"/>
<path d="M64.3042 11C69.6878 11 74.1431 13.0413 78.0416 17.3094C79.8979 19.1651 81.1974 21.5775 82.3113 24.3611C83.4251 27.1447 83.982 29.9282 83.982 32.7118C83.982 38.6501 82.1256 44.5883 78.2272 50.5266C74.3288 56.6505 69.3165 61.6609 62.8191 65.929C57.4356 69.4549 53.1659 71.3106 50.01 71.3106C48.7106 71.3106 47.7824 70.9394 46.8542 70.1971C46.1116 69.4549 45.5547 68.527 45.5547 67.228C45.5547 65.3723 46.6685 63.8877 49.0818 62.5887C54.651 59.6196 58.9207 56.836 61.5197 53.8669C63.933 51.2689 65.2324 49.2276 65.2324 47.9286C65.2324 46.8152 64.3042 46.0729 62.4479 45.7018L61.1484 45.5162H59.6633C55.5792 44.9595 52.4233 43.1038 49.8244 39.9491C47.2254 36.7944 46.1116 33.0829 46.1116 28.6292C46.1116 23.99 47.5967 20.093 50.7526 16.7527C54.2797 12.8557 58.7351 11 64.3042 11Z" fill="#D7EDFF"/>
</g>
<defs>
<clipPath id="clip0_135_544">
<rect width="82.7951" height="60.125" fill="white" transform="translate(1 11)"/>
</clipPath>
</defs>
</svg>
