<svg width="92" height="92" viewBox="0 0 92 92" fill="none" xmlns="http://www.w3.org/2000/svg">
<g clip-path="url(#clip0_2078_8362)">
<circle cx="46" cy="46" r="46" fill="#0075FF"/>
<g clip-path="url(#clip1_2078_8362)">
<path d="M55.583 38.3339H36.4163V36.4172C36.4158 34.2924 37.1213 32.2277 38.4222 30.5476C39.723 28.8675 41.5453 27.6674 43.6026 27.1359C45.6598 26.6044 47.8354 26.7717 49.7872 27.6115C51.739 28.4512 53.3564 29.9159 54.3851 31.7751C54.5073 31.9952 54.6716 32.1891 54.8688 32.3457C55.0659 32.5023 55.292 32.6185 55.534 32.6877C55.7761 32.757 56.0294 32.7778 56.2795 32.7492C56.5296 32.7205 56.7716 32.6429 56.9918 32.5207C57.2119 32.3985 57.4058 32.2341 57.5623 32.037C57.7189 31.8398 57.8352 31.6138 57.9044 31.3717C57.9736 31.1297 57.9945 30.8764 57.9659 30.6262C57.9372 30.3761 57.8595 30.1341 57.7373 29.914C56.2966 27.3118 54.0319 25.2621 51.2993 24.0872C48.5667 22.9122 45.5212 22.6787 42.6414 23.4232C39.7616 24.1677 37.2109 25.8481 35.3902 28.2002C33.5695 30.5523 32.582 33.4428 32.583 36.4172V39.1466C30.8759 39.8916 29.423 41.1179 28.4018 42.6756C27.3806 44.2332 26.8355 46.0547 26.833 47.9172V59.4172C26.8361 61.958 27.8467 64.3938 29.6433 66.1903C31.4398 67.9869 33.8756 68.9975 36.4163 69.0006H55.583C58.1237 68.9975 60.5595 67.9869 62.3561 66.1903C64.1527 64.3938 65.1633 61.958 65.1663 59.4172V47.9172C65.1633 45.3765 64.1527 42.9407 62.3561 41.1442C60.5595 39.3476 58.1237 38.3369 55.583 38.3339ZM61.333 59.4172C61.333 60.9422 60.7272 62.4048 59.6489 63.4831C58.5705 64.5614 57.108 65.1672 55.583 65.1672H36.4163C34.8913 65.1672 33.4288 64.5614 32.3505 63.4831C31.2721 62.4048 30.6663 60.9422 30.6663 59.4172V47.9172C30.6663 46.3922 31.2721 44.9297 32.3505 43.8514C33.4288 42.773 34.8913 42.1672 36.4163 42.1672H55.583C57.108 42.1672 58.5705 42.773 59.6489 43.8514C60.7272 44.9297 61.333 46.3922 61.333 47.9172V59.4172Z" fill="white"/>
<path d="M45.9997 49.834C45.4913 49.834 45.0038 50.0359 44.6444 50.3954C44.2849 50.7548 44.083 51.2423 44.083 51.7507V55.584C44.083 56.0923 44.2849 56.5798 44.6444 56.9393C45.0038 57.2987 45.4913 57.5007 45.9997 57.5007C46.508 57.5007 46.9955 57.2987 47.355 56.9393C47.7144 56.5798 47.9163 56.0923 47.9163 55.584V51.7507C47.9163 51.2423 47.7144 50.7548 47.355 50.3954C46.9955 50.0359 46.508 49.834 45.9997 49.834Z" fill="white"/>
</g>
</g>
<defs>
<clipPath id="clip0_2078_8362">
<rect width="92" height="92" fill="white"/>
</clipPath>
<clipPath id="clip1_2078_8362">
<rect width="46" height="46" fill="white" transform="translate(23 23)"/>
</clipPath>
</defs>
</svg>
