<svg width="528" height="80" viewBox="0 0 528 80" fill="none" xmlns="http://www.w3.org/2000/svg">
<path d="M30.0366 16.9298C34.4698 8.97693 36.6865 5.00049 40.0005 5.00049C43.3145 5.00049 45.5312 8.97692 49.9644 16.9298L51.1114 18.9873C52.3712 21.2473 53.0011 22.3772 53.9832 23.1228C54.9653 23.8684 56.1885 24.1451 58.6349 24.6987L60.8621 25.2026C69.471 27.1504 73.7754 28.1244 74.7995 31.4175C75.8236 34.7107 72.8891 38.1422 67.0202 45.0052L65.5018 46.7808C63.834 48.731 63.0001 49.7061 62.625 50.9125C62.2498 52.1189 62.3759 53.4199 62.6281 56.0219L62.8576 58.3909C63.7449 67.5476 64.1886 72.1259 61.5075 74.1612C58.8264 76.1966 54.7961 74.3409 46.7356 70.6296L44.6503 69.6694C42.3598 68.6148 41.2145 68.0875 40.0005 68.0875C38.7865 68.0875 37.6412 68.6148 35.3507 69.6694L33.2654 70.6296C25.2049 74.3409 21.1746 76.1966 18.4935 74.1612C15.8124 72.1259 16.2561 67.5476 17.1434 58.3909L17.3729 56.0219C17.6251 53.4199 17.7512 52.1189 17.376 50.9125C17.0009 49.7061 16.167 48.731 14.4992 46.7808L12.9808 45.0052C7.11186 38.1422 4.17737 34.7107 5.20146 31.4175C6.22555 28.1244 10.53 27.1504 19.1389 25.2026L21.3661 24.6987C23.8125 24.1451 25.0357 23.8684 26.0178 23.1228C26.9999 22.3772 27.6298 21.2473 28.8896 18.9873L30.0366 16.9298Z" fill="#FCAF2A"/>
<path d="M142.036 16.9298C146.469 8.97693 148.686 5.00049 152 5.00049C155.314 5.00049 157.531 8.97692 161.964 16.9298L163.111 18.9873C164.371 21.2473 165.001 22.3772 165.983 23.1228C166.965 23.8684 168.188 24.1451 170.634 24.6987L172.862 25.2026C181.471 27.1504 185.775 28.1244 186.799 31.4175C187.823 34.7107 184.889 38.1422 179.02 45.0052L177.501 46.7808C175.834 48.731 175 49.7061 174.624 50.9125C174.249 52.1189 174.375 53.4199 174.628 56.0219L174.857 58.3909C175.744 67.5476 176.188 72.1259 173.507 74.1612C170.826 76.1966 166.796 74.3409 158.735 70.6296L156.65 69.6694C154.359 68.6148 153.214 68.0875 152 68.0875C150.786 68.0875 149.641 68.6148 147.35 69.6694L145.265 70.6296C137.204 74.3409 133.174 76.1966 130.493 74.1612C127.812 72.1259 128.256 67.5476 129.143 58.3909L129.372 56.0219C129.625 53.4199 129.751 52.1189 129.376 50.9125C129 49.7061 128.166 48.731 126.499 46.7808L124.98 45.0052C119.111 38.1422 116.177 34.7107 117.201 31.4175C118.225 28.1244 122.53 27.1504 131.138 25.2026L133.366 24.6987C135.812 24.1451 137.035 23.8684 138.017 23.1228C138.999 22.3772 139.629 21.2473 140.889 18.9873L142.036 16.9298Z" fill="#FCAF2A"/>
<path d="M254.036 16.9298C258.469 8.97693 260.686 5.00049 264 5.00049C267.314 5.00049 269.531 8.97692 273.964 16.9298L275.111 18.9873C276.371 21.2473 277.001 22.3772 277.983 23.1228C278.965 23.8684 280.188 24.1451 282.634 24.6987L284.862 25.2026C293.471 27.1504 297.775 28.1244 298.799 31.4175C299.823 34.7107 296.889 38.1422 291.02 45.0052L289.501 46.7808C287.834 48.731 287 49.7061 286.624 50.9125C286.249 52.1189 286.375 53.4199 286.628 56.0219L286.857 58.3909C287.744 67.5476 288.188 72.1259 285.507 74.1612C282.826 76.1966 278.796 74.3409 270.735 70.6296L268.65 69.6694C266.359 68.6148 265.214 68.0875 264 68.0875C262.786 68.0875 261.641 68.6148 259.35 69.6694L257.265 70.6296C249.204 74.3409 245.174 76.1966 242.493 74.1612C239.812 72.1259 240.256 67.5476 241.143 58.3909L241.372 56.0219C241.625 53.4199 241.751 52.1189 241.376 50.9125C241 49.7061 240.166 48.731 238.499 46.7808L236.98 45.0052C231.111 38.1422 228.177 34.7107 229.201 31.4175C230.225 28.1244 234.53 27.1504 243.138 25.2026L245.366 24.6987C247.812 24.1451 249.035 23.8684 250.017 23.1228C250.999 22.3772 251.629 21.2473 252.889 18.9873L254.036 16.9298Z" fill="#FCAF2A"/>
<path d="M366.036 16.9298C370.469 8.97693 372.686 5.00049 376 5.00049C379.314 5.00049 381.531 8.97692 385.964 16.9298L387.111 18.9873C388.371 21.2473 389.001 22.3772 389.983 23.1228C390.965 23.8684 392.188 24.1451 394.634 24.6987L396.862 25.2026C405.471 27.1504 409.775 28.1244 410.799 31.4175C411.823 34.7107 408.889 38.1422 403.02 45.0052L401.501 46.7808C399.834 48.731 399 49.7061 398.624 50.9125C398.249 52.1189 398.375 53.4199 398.628 56.0219L398.857 58.3909C399.744 67.5476 400.188 72.1259 397.507 74.1612C394.826 76.1966 390.796 74.3409 382.735 70.6296L380.65 69.6694C378.359 68.6148 377.214 68.0875 376 68.0875C374.786 68.0875 373.641 68.6148 371.35 69.6694L369.265 70.6296C361.204 74.3409 357.174 76.1966 354.493 74.1612C351.812 72.1259 352.256 67.5476 353.143 58.3909L353.372 56.0219C353.625 53.4199 353.751 52.1189 353.376 50.9125C353 49.7061 352.166 48.731 350.499 46.7808L348.98 45.0052C343.111 38.1422 340.177 34.7107 341.201 31.4175C342.225 28.1244 346.53 27.1504 355.138 25.2026L357.366 24.6987C359.812 24.1451 361.035 23.8684 362.017 23.1228C362.999 22.3772 363.629 21.2473 364.889 18.9873L366.036 16.9298Z" fill="#FCAF2A"/>
<path d="M478.036 16.9298C482.469 8.97693 484.686 5.00049 488 5.00049C491.314 5.00049 493.531 8.97692 497.964 16.9298L499.111 18.9873C500.371 21.2473 501.001 22.3772 501.983 23.1228C502.965 23.8684 504.188 24.1451 506.634 24.6987L508.862 25.2026C517.471 27.1504 521.775 28.1244 522.799 31.4175C523.823 34.7107 520.889 38.1422 515.02 45.0052L513.501 46.7808C511.834 48.731 511 49.7061 510.624 50.9125C510.249 52.1189 510.375 53.4199 510.628 56.0219L510.857 58.3909C511.744 67.5476 512.188 72.1259 509.507 74.1612C506.826 76.1966 502.796 74.3409 494.735 70.6296L492.65 69.6694C490.359 68.6148 489.214 68.0875 488 68.0875C486.786 68.0875 485.641 68.6148 483.35 69.6694L481.265 70.6296C473.204 74.3409 469.174 76.1966 466.493 74.1612C463.812 72.1259 464.256 67.5476 465.143 58.3909L465.372 56.0219C465.625 53.4199 465.751 52.1189 465.376 50.9125C465 49.7061 464.166 48.731 462.499 46.7808L460.98 45.0052C455.111 38.1422 452.177 34.7107 453.201 31.4175C454.225 28.1244 458.53 27.1504 467.138 25.2026L469.366 24.6987C471.812 24.1451 473.035 23.8684 474.017 23.1228C474.999 22.3772 475.629 21.2473 476.889 18.9873L478.036 16.9298Z" fill="#FCAF2A"/>
</svg>
