<svg width="109" height="46" viewBox="0 0 109 46" fill="none" xmlns="http://www.w3.org/2000/svg">
<path d="M85.7663 -0.000244141C75.2214 -0.000244141 59.1654 15.2699 54.3314 20.1207C49.4973 15.2699 33.4413 -0.000244141 22.8964 -0.000244141C16.8239 -0.000244141 11.0001 2.41205 6.7062 6.70596C2.41229 10.9999 0 16.8237 0 22.8962C0 28.9687 2.41229 34.7925 6.7062 39.0864C11.0001 43.3803 16.8239 45.7926 22.8964 45.7926C33.4413 45.7926 49.4973 30.5224 54.3314 25.6716C59.1654 30.5224 75.2214 45.7926 85.7663 45.7926C91.8388 45.7926 97.6626 43.3803 101.957 39.0864C106.25 34.7925 108.663 28.9687 108.663 22.8962C108.663 16.8237 106.25 10.9999 101.957 6.70596C97.6626 2.41205 91.8388 -0.000244141 85.7663 -0.000244141ZM22.8964 41.9118C17.8532 41.9118 13.0165 39.9083 9.45035 36.3422C5.88423 32.7761 3.88081 27.9394 3.88081 22.8962C3.88081 17.8529 5.88423 13.0162 9.45035 9.45011C13.0165 5.88399 17.8532 3.88057 22.8964 3.88057C31.073 3.88057 45.338 16.5576 51.6273 22.8962C45.3418 29.2347 31.0806 41.9118 22.8964 41.9118ZM85.7663 41.9118C77.5897 41.9118 63.3247 29.2347 57.0354 22.8962C63.3209 16.5567 77.5821 3.88057 85.7663 3.88057C90.8096 3.88057 95.6463 5.88399 99.2124 9.45011C102.778 13.0162 104.782 17.8529 104.782 22.8962C104.782 27.9394 102.778 32.7761 99.2124 36.3422C95.6463 39.9083 90.8096 41.9118 85.7663 41.9118Z" fill="url(#paint0_linear_803_634)"/>
<path d="M85.7663 41.9118C77.5897 41.9118 63.3247 29.2347 57.0354 22.8962C63.3209 16.5567 77.5821 3.88057 85.7663 3.88057C90.8096 3.88057 95.6463 5.88399 99.2124 9.45011C102.778 13.0162 104.782 17.8529 104.782 22.8962C104.782 27.9394 102.778 32.7761 99.2124 36.3422C95.6463 39.9083 90.8096 41.9118 85.7663 41.9118Z" fill="url(#paint1_linear_803_634)"/>
<path d="M22.8964 41.9118C17.8532 41.9118 13.0165 39.9083 9.45035 36.3422C5.88423 32.7761 3.88081 27.9394 3.88081 22.8962C3.88081 17.8529 5.88423 13.0162 9.45035 9.45011C13.0165 5.88399 17.8532 3.88057 22.8964 3.88057C31.073 3.88057 45.338 16.5576 51.6273 22.8962C45.3418 29.2347 31.0806 41.9118 22.8964 41.9118Z" fill="url(#paint2_linear_803_634)"/>
<defs>
<linearGradient id="paint0_linear_803_634" x1="0" y1="-0.000244141" x2="32.7754" y2="77.7731" gradientUnits="userSpaceOnUse">
<stop stop-color="#43CBFF"/>
<stop offset="1" stop-color="#9708CC"/>
</linearGradient>
<linearGradient id="paint1_linear_803_634" x1="0" y1="-0.000244141" x2="32.7754" y2="77.7731" gradientUnits="userSpaceOnUse">
<stop stop-color="#43CBFF"/>
<stop offset="1" stop-color="#9708CC"/>
</linearGradient>
<linearGradient id="paint2_linear_803_634" x1="0" y1="-0.000244141" x2="32.7754" y2="77.7731" gradientUnits="userSpaceOnUse">
<stop stop-color="#43CBFF"/>
<stop offset="1" stop-color="#9708CC"/>
</linearGradient>
</defs>
</svg>
