<svg width="101" height="100" viewBox="0 0 101 100" fill="none" xmlns="http://www.w3.org/2000/svg">
<g clip-path="url(#clip0_1065_234)">
<circle cx="50.1111" cy="49.9988" r="41.6667" fill="url(#paint0_linear_1065_234)" stroke="white" stroke-width="1.85185"/>
<path d="M54.8832 36.873C55.5431 36.873 56.077 36.3391 56.077 35.6792V30.8246C56.077 30.1648 55.5431 29.6309 54.8832 29.6309C54.2234 29.6309 53.6895 30.1648 53.6895 30.8246V35.6792C53.6895 36.3391 54.2234 36.873 54.8832 36.873Z" fill="white"/>
<path d="M59.1242 39.1341C59.7195 39.4298 60.4322 39.186 60.726 38.6002L62.3732 35.3069L63.5891 36.5227C63.8596 36.7944 64.2443 36.9214 64.6244 36.8573C65.0033 36.7955 65.3296 36.5554 65.5011 36.2126L67.9682 31.358C68.2632 30.7681 68.0242 30.0511 67.4343 29.7562C66.8432 29.4636 66.1286 29.7003 65.8325 30.2901L64.1056 33.6631L62.8897 32.4472C62.6193 32.1768 62.2369 32.0543 61.8545 32.1127C61.4756 32.1744 61.1492 32.4146 60.9778 32.7574L58.5902 37.5324C58.2953 38.1223 58.5343 38.8392 59.1242 39.1341Z" fill="white"/>
<path d="M65.3537 39.6953C65.1392 39.4365 64.8255 39.2803 64.4898 39.264C64.1576 39.2534 63.8265 39.3747 63.5898 39.6125L61.2023 42C60.736 42.4663 60.736 43.2218 61.2023 43.6881C61.6685 44.1544 62.424 44.1544 62.8903 43.6881L64.351 42.2274L65.9015 44.0996C66.3799 44.6761 67.2631 44.6758 67.7411 44.0996L70.2083 41.1382C70.6279 40.6311 70.558 39.878 70.0497 39.4572C69.5426 39.0375 68.7907 39.1086 68.3687 39.6157L66.8214 41.4673L65.3537 39.6953Z" fill="white"/>
<path d="M33.1715 65.1361C35.4979 67.4649 39.2768 67.4736 41.6119 65.1361L44.1451 62.6039L34.0155 52.4746L31.4835 55.0066C29.1566 57.3335 29.1566 61.1212 31.4835 63.448L33.1715 65.1361Z" fill="white"/>
<path d="M58.7583 53.4237L43.1977 37.8633C41.75 42.6574 39.1254 47.1251 35.6826 50.7664L45.8553 60.939C49.4969 57.4953 53.9659 54.8704 58.7583 53.4237Z" fill="white"/>
<path d="M64.7724 51.8668C65.1897 51.763 65.5185 51.4424 65.6339 51.0274C65.7482 50.6136 65.6316 50.1694 65.3272 49.8651L46.7561 31.2942C46.4518 30.9888 46.0053 30.8711 45.5938 30.9876C45.1788 31.103 44.8582 31.4317 44.7544 31.8491L43.915 35.2065L61.4147 52.7059L64.7724 51.8668Z" fill="white"/>
<path d="M46.8833 63.2487L43.2997 66.8312C43.0133 67.118 42.6924 67.354 42.374 67.593L44.8058 70.0242C45.2721 70.4905 46.0276 70.4905 46.4939 70.0242L49.8701 66.6481C50.3364 66.1818 50.3364 65.4264 49.8701 64.9601L47.5642 62.6543C47.3442 62.8614 47.0973 63.0346 46.8833 63.2487Z" fill="white"/>
<path d="M5.66688 88.8885C5.22821 88.8885 4.87323 88.5335 4.87323 88.0948C4.87323 85.9068 3.09297 84.1266 0.904979 84.1266C0.466302 84.1266 0.111328 83.7716 0.111328 83.3329C0.111328 82.8942 0.466302 82.5392 0.904979 82.5392C3.09297 82.5392 4.87323 80.759 4.87323 78.571C4.87323 78.1323 5.22821 77.7773 5.66688 77.7773C6.10556 77.7773 6.46053 78.1323 6.46053 78.571C6.46053 80.759 8.2408 82.5392 10.4288 82.5392C10.8675 82.5392 11.2224 82.8942 11.2224 83.3329C11.2224 83.7716 10.8675 84.1266 10.4288 84.1266C8.2408 84.1266 6.46053 85.9068 6.46053 88.0948C6.46053 88.5335 6.10556 88.8885 5.66688 88.8885Z" fill="white"/>
<path d="M94.5556 22.2205C94.1169 22.2205 93.7619 21.8655 93.7619 21.4268C93.7619 19.2388 91.9816 17.4586 89.7937 17.4586C89.355 17.4586 89 17.1036 89 16.6649C89 16.2263 89.355 15.8713 89.7937 15.8713C91.9816 15.8713 93.7619 14.091 93.7619 11.903C93.7619 11.4643 94.1169 11.1094 94.5556 11.1094C94.9942 11.1094 95.3492 11.4643 95.3492 11.903C95.3492 14.091 97.1295 15.8713 99.3175 15.8713C99.7561 15.8713 100.111 16.2263 100.111 16.6649C100.111 17.1036 99.7561 17.4586 99.3175 17.4586C97.1295 17.4586 95.3492 19.2388 95.3492 21.4268C95.3492 21.8655 94.9942 22.2205 94.5556 22.2205Z" fill="white"/>
</g>
<defs>
<linearGradient id="paint0_linear_1065_234" x1="21.0062" y1="19.4742" x2="80.6358" y2="83.363" gradientUnits="userSpaceOnUse">
<stop stop-color="#BB89F7"/>
<stop offset="1" stop-color="#6858E9"/>
</linearGradient>
<clipPath id="clip0_1065_234">
<rect width="100" height="100" fill="white" transform="translate(0.111328)"/>
</clipPath>
</defs>
</svg>
