<svg width="101" height="100" viewBox="0 0 101 100" fill="none" xmlns="http://www.w3.org/2000/svg">
<g clip-path="url(#clip0_1065_224)">
<circle cx="50.8885" cy="49.9988" r="41.6667" fill="url(#paint0_linear_1065_224)" stroke="white" stroke-width="1.85185"/>
<path d="M61.6031 36.7508C61.6031 35.6281 61.936 34.5306 62.5598 33.5971C63.1835 32.6635 64.0701 31.936 65.1073 31.5063C66.1446 31.0767 67.286 30.9643 68.3871 31.1833C69.4883 31.4023 70.4997 31.943 71.2936 32.7368C72.0875 33.5307 72.6281 34.5422 72.8472 35.6433C73.0662 36.7445 72.9538 37.8859 72.5241 38.9231C72.0945 39.9604 71.3669 40.8469 70.4334 41.4707C69.4999 42.0944 68.4024 42.4273 67.2797 42.4273C65.7741 42.4273 64.3303 41.8293 63.2657 40.7647C62.2012 39.7002 61.6031 38.2563 61.6031 36.7508ZM33.2203 38.643H55.9265C56.4284 38.643 56.9097 38.4436 57.2645 38.0888C57.6194 37.7339 57.8187 37.2526 57.8187 36.7508C57.8187 36.2489 57.6194 35.7677 57.2645 35.4128C56.9097 35.0579 56.4284 34.8586 55.9265 34.8586H33.2203C32.7185 34.8586 32.2372 35.0579 31.8823 35.4128C31.5275 35.7677 31.3281 36.2489 31.3281 36.7508C31.3281 37.2526 31.5275 37.7339 31.8823 38.0888C32.2372 38.4436 32.7185 38.643 33.2203 38.643ZM44.5734 44.3195C43.4023 44.3228 42.2608 44.6883 41.3055 45.3658C40.3502 46.0433 39.6278 46.9997 39.2375 48.1039H33.2203C32.7185 48.1039 32.2372 48.3033 31.8823 48.6581C31.5275 49.013 31.3281 49.4942 31.3281 49.9961C31.3281 50.4979 31.5275 50.9792 31.8823 51.3341C32.2372 51.6889 32.7185 51.8883 33.2203 51.8883H39.2375C39.5846 52.8701 40.1951 53.7375 41.0022 54.3956C41.8093 55.0536 42.7819 55.477 43.8135 55.6193C44.8451 55.7617 45.8959 55.6175 46.8511 55.2026C47.8062 54.7877 48.6288 54.118 49.2289 53.2669C49.8289 52.4158 50.1833 51.416 50.2531 50.377C50.323 49.338 50.1057 48.2997 49.6251 47.3759C49.1444 46.4521 48.4189 45.6783 47.5279 45.1393C46.6369 44.6002 45.6148 44.3166 44.5734 44.3195ZM71.064 48.1039H55.9265C55.4247 48.1039 54.9434 48.3033 54.5886 48.6581C54.2337 49.013 54.0344 49.4942 54.0344 49.9961C54.0344 50.4979 54.2337 50.9792 54.5886 51.3341C54.9434 51.6889 55.4247 51.8883 55.9265 51.8883H71.064C71.5659 51.8883 72.0472 51.6889 72.402 51.3341C72.7569 50.9792 72.9562 50.4979 72.9562 49.9961C72.9562 49.4942 72.7569 49.013 72.402 48.6581C72.0472 48.3033 71.5659 48.1039 71.064 48.1039ZM48.3578 61.3492H33.2203C32.7185 61.3492 32.2372 61.5486 31.8823 61.9034C31.5275 62.2583 31.3281 62.7396 31.3281 63.2414C31.3281 63.7432 31.5275 64.2245 31.8823 64.5794C32.2372 64.9342 32.7185 65.1336 33.2203 65.1336H48.3578C48.8596 65.1336 49.3409 64.9342 49.6958 64.5794C50.0506 64.2245 50.25 63.7432 50.25 63.2414C50.25 62.7396 50.0506 62.2583 49.6958 61.9034C49.3409 61.5486 48.8596 61.3492 48.3578 61.3492ZM71.064 61.3492H65.0469C64.6005 60.0867 63.7222 59.0227 62.5672 58.3451C61.4122 57.6676 60.0548 57.4201 58.7351 57.6466C57.4153 57.873 56.218 58.5587 55.3549 59.5825C54.4918 60.6064 54.0184 61.9023 54.0184 63.2414C54.0184 64.5805 54.4918 65.8764 55.3549 66.9002C56.218 67.924 57.4153 68.6098 58.7351 68.8362C60.0548 69.0626 61.4122 68.8152 62.5672 68.1377C63.7222 67.4601 64.6005 66.3961 65.0469 65.1336H71.064C71.5659 65.1336 72.0472 64.9342 72.402 64.5794C72.7569 64.2245 72.9562 63.7432 72.9562 63.2414C72.9562 62.7396 72.7569 62.2583 72.402 61.9034C72.0472 61.5486 71.5659 61.3492 71.064 61.3492Z" fill="white"/>
<path d="M6.44423 88.8885C6.00555 88.8885 5.65058 88.5335 5.65058 88.0948C5.65058 85.9068 3.87031 84.1266 1.68232 84.1266C1.24365 84.1266 0.888672 83.7716 0.888672 83.3329C0.888672 82.8942 1.24365 82.5392 1.68232 82.5392C3.87031 82.5392 5.65058 80.759 5.65058 78.571C5.65058 78.1323 6.00555 77.7773 6.44423 77.7773C6.8829 77.7773 7.23788 78.1323 7.23788 78.571C7.23788 80.759 9.01814 82.5392 11.2061 82.5392C11.6448 82.5392 11.9998 82.8942 11.9998 83.3329C11.9998 83.7716 11.6448 84.1266 11.2061 84.1266C9.01814 84.1266 7.23788 85.9068 7.23788 88.0948C7.23788 88.5335 6.8829 88.8885 6.44423 88.8885Z" fill="white"/>
<path d="M95.3329 22.2205C94.8942 22.2205 94.5392 21.8655 94.5392 21.4268C94.5392 19.2388 92.759 17.4586 90.571 17.4586C90.1323 17.4586 89.7773 17.1036 89.7773 16.6649C89.7773 16.2263 90.1323 15.8713 90.571 15.8713C92.759 15.8713 94.5392 14.091 94.5392 11.903C94.5392 11.4643 94.8942 11.1094 95.3329 11.1094C95.7716 11.1094 96.1266 11.4643 96.1266 11.903C96.1266 14.091 97.9068 15.8713 100.095 15.8713C100.533 15.8713 100.888 16.2263 100.888 16.6649C100.888 17.1036 100.533 17.4586 100.095 17.4586C97.9068 17.4586 96.1266 19.2388 96.1266 21.4268C96.1266 21.8655 95.7716 22.2205 95.3329 22.2205Z" fill="white"/>
</g>
<defs>
<linearGradient id="paint0_linear_1065_224" x1="6.87615" y1="-21.6987" x2="82.833" y2="86.9123" gradientUnits="userSpaceOnUse">
<stop stop-color="#3BFA94"/>
<stop offset="1" stop-color="#13A2C1"/>
</linearGradient>
<clipPath id="clip0_1065_224">
<rect width="100" height="100" fill="white" transform="translate(0.888672)"/>
</clipPath>
</defs>
</svg>
