<svg width="283" height="269" viewBox="0 0 283 269" fill="none" xmlns="http://www.w3.org/2000/svg">
<path d="M150.584 13.8706C150.425 13.6604 150.319 13.5028 150.266 13.3451L146.031 4.62323C145.925 4.4656 145.819 4.25544 145.713 4.09781C145.607 3.94019 145.501 3.8351 145.396 3.73002L142.59 0.945312C142.696 1.0504 142.802 1.15548 142.907 1.3131C143.013 1.47073 143.119 1.62835 143.225 1.83852L147.46 10.5604C147.566 10.7706 147.672 10.9282 147.778 11.0859C147.884 11.2435 147.99 11.3486 148.148 11.5062L150.954 14.2909C150.795 14.1333 150.69 13.9756 150.584 13.8706Z" fill="url(#paint0_linear_135_539)"/>
<path d="M140.263 0C141.428 0 142.592 0.6305 143.227 1.83896L147.463 10.5609C147.992 11.6117 148.945 12.2948 150.11 12.5049L159.797 13.9235C162.497 14.2913 163.556 17.6015 161.597 19.493L154.503 26.2183C153.656 27.0064 153.286 28.1623 153.445 29.3183L155.033 38.8808C155.403 40.9825 153.656 42.7164 151.751 42.7164C151.221 42.7164 150.745 42.6113 150.215 42.3486L141.639 37.83C141.11 37.5673 140.581 37.4097 139.998 37.4097C139.416 37.4097 138.834 37.5673 138.304 37.83L129.622 42.3486C129.093 42.6113 128.616 42.7164 128.087 42.7164C126.181 42.7164 124.487 40.9825 124.858 38.8808L126.605 29.3183C126.816 28.1623 126.446 27.0064 125.599 26.2183L118.664 19.4404C116.705 17.5489 117.817 14.2388 120.517 13.871L130.204 12.4524C131.369 12.2948 132.375 11.5592 132.904 10.5083L137.298 1.78642C137.934 0.6305 139.098 0 140.263 0Z" fill="url(#paint1_radial_135_539)"/>
<path d="M151.803 42.1446C151.38 42.1446 150.956 42.0396 150.586 41.8294L141.904 37.3108C141.321 36.9956 140.633 36.8379 139.945 36.8379C139.257 36.8379 138.568 36.9956 137.986 37.3108L129.304 41.8294C128.881 42.0396 128.51 42.1446 128.086 42.1446C127.292 42.1446 126.551 41.7769 126.075 41.1989C125.598 40.6209 125.387 39.8328 125.545 39.0447L127.292 29.4821C127.557 28.116 127.081 26.7499 126.128 25.8042L119.087 18.9738C118.346 18.2382 118.134 17.2399 118.452 16.2941C118.769 15.2958 119.563 14.6128 120.622 14.5077L130.31 13.0891C131.686 12.8789 132.851 12.0383 133.486 10.8298L137.88 2.10789C138.357 1.16214 139.257 0.636719 140.262 0.636719C141.321 0.636719 142.168 1.16214 142.645 2.10789L146.88 10.8298C147.462 12.0383 148.68 12.9315 150.003 13.0891L159.691 14.5077C160.697 14.6653 161.491 15.2958 161.809 16.2941C162.126 17.2924 161.862 18.2907 161.12 19.0263L154.08 25.8042C153.074 26.7499 152.65 28.116 152.862 29.4821L154.45 39.0447C154.556 39.8328 154.344 40.5684 153.868 41.1989C153.338 41.7769 152.544 42.1446 151.803 42.1446Z" fill="url(#paint2_linear_135_539)"/>
<path d="M164.668 21.8588C164.774 21.7537 164.88 21.596 164.933 21.491L164.986 21.4384C165.039 21.3333 165.092 21.1757 165.144 21.0706C165.144 21.0181 165.144 21.0181 165.197 20.9655C165.25 20.8605 165.25 20.7554 165.303 20.6503C165.303 20.5978 165.303 20.5978 165.303 20.5452C165.356 20.3876 165.356 20.2825 165.356 20.1249C165.356 20.1249 165.356 20.1249 165.356 20.0723C165.356 19.9147 165.356 19.7571 165.356 19.5995V19.5469C165.356 19.3893 165.303 19.2842 165.303 19.1266C165.303 19.074 165.303 19.074 165.303 19.0215C165.25 18.9164 165.25 18.8113 165.197 18.7062C165.197 18.7062 165.197 18.6537 165.144 18.6537C165.092 18.5486 165.039 18.4435 164.986 18.2859L164.933 18.2334C164.88 18.1283 164.827 18.0758 164.774 17.9707C164.774 17.9181 164.721 17.9181 164.721 17.8656C164.615 17.7605 164.562 17.6554 164.456 17.5503L161.65 14.7656C161.756 14.8707 161.862 14.9758 161.915 15.0809C161.915 15.0809 161.915 15.0809 161.968 15.1334C161.968 15.1334 161.968 15.186 162.021 15.186C162.074 15.291 162.127 15.3436 162.18 15.4487L162.233 15.5012C162.286 15.6063 162.339 15.7114 162.392 15.869V15.9215C162.445 16.0266 162.445 16.1317 162.497 16.2368C162.497 16.2893 162.497 16.2893 162.497 16.3419C162.55 16.4995 162.55 16.6046 162.55 16.7622V16.8148C162.55 16.9724 162.55 17.13 162.55 17.2876C162.55 17.4453 162.497 17.5503 162.497 17.708V17.7605V17.813C162.497 17.9181 162.445 18.0232 162.392 18.1283V18.1808C162.339 18.2859 162.286 18.4435 162.233 18.5486C162.233 18.5486 162.233 18.5486 162.233 18.6012C162.233 18.6012 162.233 18.6537 162.18 18.6537C162.127 18.8113 162.021 18.9164 161.915 19.0215C161.915 19.0215 161.915 19.0215 161.915 19.074C161.809 19.1791 161.756 19.2842 161.65 19.3368L154.504 26.2197C154.398 26.3248 154.292 26.4299 154.239 26.535C154.133 26.6926 154.027 26.8502 153.921 27.0078C153.868 27.0604 153.868 27.1129 153.868 27.1655C153.815 27.2705 153.763 27.3756 153.71 27.4282C153.71 27.4807 153.657 27.5333 153.657 27.5858C153.604 27.6909 153.604 27.796 153.551 27.901C153.551 27.9536 153.498 28.0061 153.498 28.0587C153.445 28.2163 153.445 28.3739 153.445 28.5315C153.445 28.5315 153.445 28.5315 153.445 28.5841C153.445 28.7417 153.445 28.8993 153.445 29.057C153.445 29.162 153.445 29.2671 153.498 29.3722L155.086 38.9348C155.086 39.0399 155.086 39.0924 155.139 39.145V39.1975C155.139 39.3551 155.139 39.5128 155.139 39.6704V39.7229C155.139 39.828 155.086 39.9856 155.086 40.0907V40.1433C155.086 40.1958 155.086 40.1958 155.086 40.2483C155.086 40.3534 155.033 40.406 154.98 40.511V40.5636V40.6161C154.927 40.7212 154.874 40.8263 154.821 40.9839C154.821 40.9839 154.821 40.9839 154.821 41.0365C154.715 41.1941 154.663 41.2992 154.557 41.4568C154.557 41.4568 154.557 41.5093 154.504 41.5093L154.451 41.5619C154.398 41.6144 154.345 41.667 154.345 41.7195C154.292 41.772 154.292 41.8246 154.239 41.8246C154.186 41.8771 154.133 41.9297 154.08 41.9297C154.027 41.9822 153.974 41.9822 153.974 42.0348C153.921 42.0873 153.868 42.0873 153.815 42.1398C153.763 42.1924 153.71 42.1924 153.657 42.2449C153.604 42.2975 153.551 42.2975 153.498 42.35C153.445 42.35 153.392 42.4025 153.339 42.4025C153.286 42.4551 153.233 42.4551 153.127 42.5076C153.074 42.5076 153.021 42.5602 152.968 42.5602C152.916 42.5602 152.81 42.6127 152.757 42.6127C152.704 42.6127 152.651 42.6653 152.598 42.6653C152.545 42.6653 152.439 42.7178 152.386 42.7178C152.333 42.7178 152.28 42.7178 152.28 42.7178C152.174 42.7178 152.016 42.7178 151.91 42.7178C151.38 42.7178 150.904 42.6127 150.374 42.35L141.64 37.8314C141.11 37.5687 140.581 37.4111 139.998 37.4111C139.416 37.4111 138.834 37.5687 138.304 37.8314L129.622 42.35C129.093 42.6127 128.617 42.7178 128.087 42.7178C127.187 42.7178 126.34 42.35 125.758 41.772L128.564 44.5568C129.146 45.1347 129.993 45.5025 130.893 45.5025C131.422 45.5025 131.899 45.3974 132.428 45.1347L141.11 40.6161C141.64 40.3534 142.222 40.1958 142.751 40.1958C143.334 40.1958 143.863 40.3534 144.392 40.6161L153.021 45.1347C153.551 45.3974 154.027 45.5025 154.557 45.5025C154.663 45.5025 154.821 45.5025 154.927 45.5025C154.98 45.5025 155.033 45.5025 155.033 45.5025C155.086 45.5025 155.192 45.5025 155.245 45.45C155.298 45.45 155.351 45.45 155.404 45.3974C155.457 45.3974 155.562 45.3449 155.615 45.3449C155.668 45.3449 155.721 45.2923 155.774 45.2923C155.827 45.2923 155.88 45.2398 155.986 45.1873C156.039 45.1873 156.092 45.1347 156.145 45.1347C156.198 45.0822 156.251 45.0822 156.304 45.0296C156.357 44.9771 156.41 44.9771 156.462 44.9245C156.515 44.872 156.568 44.872 156.621 44.8195C156.674 44.7669 156.727 44.7669 156.727 44.7144C156.78 44.6618 156.833 44.6618 156.833 44.6093C156.886 44.5568 156.886 44.5568 156.939 44.5042C156.992 44.4517 157.045 44.3991 157.045 44.3466C157.098 44.2941 157.098 44.294 157.098 44.2415C157.204 44.0839 157.309 43.9788 157.362 43.8212V43.7686C157.415 43.6636 157.468 43.5585 157.521 43.4008C157.521 43.3483 157.574 43.2958 157.574 43.2958C157.627 43.1907 157.627 43.1381 157.68 43.0331C157.68 42.9805 157.68 42.928 157.733 42.8754C157.733 42.7703 157.786 42.6653 157.786 42.5076V42.4551C157.786 42.2975 157.786 42.1398 157.786 41.9822C157.786 41.8771 157.786 41.7721 157.733 41.667L156.145 32.1044C156.145 31.9993 156.145 31.9468 156.092 31.8417V31.7891C156.092 31.6315 156.092 31.4739 156.092 31.3163C156.092 31.1586 156.145 31.001 156.145 30.8434C156.145 30.8434 156.145 30.8434 156.145 30.7908C156.145 30.7383 156.145 30.7383 156.198 30.6858C156.251 30.5807 156.251 30.4756 156.304 30.3705V30.318C156.304 30.2654 156.357 30.2654 156.357 30.2129C156.41 30.1078 156.462 30.0027 156.515 29.9502C156.515 29.8976 156.515 29.8976 156.568 29.8451C156.568 29.8451 156.568 29.7925 156.621 29.7925C156.727 29.6349 156.833 29.4773 156.939 29.3197C157.045 29.2146 157.151 29.1095 157.204 29.0044L164.244 22.2265C164.35 22.1215 164.403 22.0164 164.509 21.9638C164.668 21.9113 164.668 21.9113 164.668 21.8588Z" fill="url(#paint3_linear_135_539)"/>
<path d="M76.0055 35.6165C75.8676 35.509 75.7726 35.4261 75.7116 35.3342L71.4981 30.47C71.4031 30.3871 71.2991 30.2706 71.2042 30.1877C71.1092 30.1048 71.0233 30.0556 70.9373 30.0065L68.6602 28.7031C68.7461 28.7523 68.832 28.8015 68.927 28.8844C69.0219 28.9672 69.1169 29.0501 69.2209 29.1666L73.4344 34.0309C73.5384 34.1474 73.6333 34.2303 73.7283 34.3131C73.8232 34.396 73.9092 34.4452 74.0381 34.519L76.3153 35.8223C76.1864 35.7485 76.0914 35.6656 76.0055 35.6165Z" fill="url(#paint4_linear_135_539)"/>
<path d="M67.0049 28.4981C67.7515 28.2981 68.6065 28.5022 69.2214 29.1678L73.4349 34.0321C73.9548 34.6148 74.6831 34.889 75.4659 34.8237L81.9206 34.069C83.7147 33.841 84.9621 35.7813 84.0313 37.3304L80.6387 42.8607C80.231 43.5115 80.192 44.3162 80.4924 45.03L83.1533 50.8879C83.752 52.1716 82.9298 53.5834 81.708 53.9107C81.3686 54.0017 81.045 54.0162 80.6605 53.9387L74.386 52.515C74.0015 52.4375 73.635 52.4274 73.2617 52.5274C72.8883 52.6275 72.5421 52.8286 72.2478 53.0879L67.4579 57.4763C67.1636 57.7356 66.8762 57.8849 66.5368 57.9758C65.315 58.3032 63.9311 57.4826 63.8076 56.0715L63.2849 49.6407C63.2221 48.8633 62.7859 48.1859 62.1075 47.8261L56.497 44.672C54.9163 43.7958 55.0604 41.4827 56.7281 40.7831L62.6954 38.2094C63.415 37.9083 63.9335 37.2639 64.0924 36.4992L65.4111 30.1527C65.6198 29.3025 66.2582 28.6982 67.0049 28.4981Z" fill="url(#paint5_radial_135_539)"/>
<path d="M81.6414 53.5332C81.3699 53.606 81.0803 53.6114 80.8066 53.5403L74.4643 52.1348C74.0368 52.0327 73.5685 52.0499 73.1273 52.1681C72.686 52.2863 72.2719 52.5056 71.9527 52.8077L67.1628 57.1961C66.9274 57.4036 66.7079 57.5346 66.4363 57.6074C65.9273 57.7438 65.3889 57.6353 64.9842 57.3466C64.5794 57.0579 64.3083 56.589 64.2747 56.0565L63.752 49.6257C63.687 48.7044 63.1469 47.9104 62.3735 47.4678L56.6861 44.2982C56.0846 43.9539 55.7773 43.3503 55.8185 42.6894C55.8506 41.9948 56.2424 41.4205 56.9031 41.1712L62.8704 38.5975C63.7168 38.2263 64.319 37.4873 64.5187 36.6034L65.8374 30.2569C65.9804 29.5687 66.4671 29.0773 67.112 28.9045C67.7908 28.7226 68.4241 28.9139 68.892 29.4384L73.1055 34.3026C73.6865 34.9774 74.6205 35.3408 75.4961 35.2145L81.9508 34.4598C82.6227 34.3881 83.2401 34.6559 83.6153 35.2414C83.9904 35.8268 83.9922 36.5123 83.6434 37.1112L80.2938 42.6661C79.8114 43.4452 79.7745 44.3938 80.145 45.2332L82.8059 51.0911C83.0092 51.5782 82.9998 52.0862 82.8026 52.5722C82.5625 53.0337 82.1166 53.4059 81.6414 53.5332Z" fill="url(#paint6_linear_135_539)"/>
<path d="M86.4065 38.3165C86.4563 38.2309 86.4972 38.1117 86.513 38.0352L86.538 37.9924C86.5538 37.916 86.5607 37.8058 86.5766 37.7294C86.5676 37.6957 86.5676 37.6957 86.5925 37.6529C86.6084 37.5764 86.5903 37.5091 86.6062 37.4326C86.5972 37.3989 86.5972 37.3989 86.5881 37.3652C86.595 37.2551 86.577 37.1877 86.5499 37.0866C86.5499 37.0866 86.5499 37.0866 86.5409 37.053C86.5138 36.9519 86.4867 36.8508 86.4596 36.7498L86.4506 36.7161C86.4235 36.6151 86.3715 36.5568 86.3444 36.4557C86.3354 36.422 86.3354 36.422 86.3264 36.3883C86.2744 36.3301 86.2564 36.2627 86.2044 36.2044C86.2044 36.2044 86.1953 36.1707 86.1614 36.1798C86.1094 36.1216 86.0574 36.0633 85.9964 35.9713L85.9534 35.9467C85.9014 35.8885 85.8585 35.8639 85.8065 35.8056C85.7975 35.7719 85.7635 35.781 85.7545 35.7473C85.6686 35.6981 85.6166 35.6399 85.5306 35.5907L83.2534 34.2873C83.3394 34.3365 83.4253 34.3857 83.4773 34.444C83.4773 34.444 83.4773 34.444 83.5203 34.4686C83.5203 34.4686 83.5293 34.5023 83.5632 34.4932C83.6152 34.5514 83.6582 34.576 83.7102 34.6343L83.7531 34.6589C83.8051 34.7172 83.8571 34.7755 83.9181 34.8674L83.9272 34.9011C83.9792 34.9594 83.9972 35.0267 84.0492 35.085C84.0582 35.1187 84.0582 35.1187 84.0673 35.1524C84.1283 35.2444 84.1463 35.3117 84.1734 35.4128L84.1824 35.4465C84.2095 35.5475 84.2366 35.6486 84.2637 35.7496C84.2907 35.8507 84.2749 35.9272 84.3019 36.0282L84.311 36.0619L84.32 36.0956C84.338 36.1629 84.3221 36.2394 84.3063 36.3159L84.3153 36.3496C84.2994 36.426 84.2925 36.5362 84.2766 36.6126C84.2766 36.6126 84.2766 36.6126 84.2857 36.6463C84.2857 36.6463 84.2947 36.68 84.2608 36.6891C84.2539 36.7993 84.2041 36.8848 84.1542 36.9704C84.1542 36.9704 84.1542 36.9704 84.1633 37.0041C84.1134 37.0896 84.0976 37.1661 84.0387 37.218L80.6392 42.8584C80.5894 42.944 80.5396 43.0295 80.5237 43.106C80.4829 43.2252 80.4421 43.3445 80.4013 43.4637C80.3764 43.5065 80.3854 43.5402 80.3944 43.5739C80.3785 43.6503 80.3626 43.7268 80.3377 43.7696C80.3467 43.8033 80.3218 43.846 80.3309 43.8797C80.315 43.9562 80.333 44.0236 80.3171 44.1C80.3262 44.1337 80.3012 44.1765 80.3103 44.2102C80.3034 44.3203 80.3305 44.4214 80.3576 44.5224C80.3576 44.5224 80.3576 44.5224 80.3666 44.5561C80.3937 44.6572 80.4207 44.7582 80.4478 44.8593C80.4659 44.9267 80.4839 44.994 80.5359 45.0523L83.1969 50.9102C83.2149 50.9775 83.2239 51.0112 83.2669 51.0358L83.2759 51.0695C83.303 51.1706 83.3301 51.2716 83.3572 51.3727L83.3662 51.4064C83.3842 51.4737 83.3774 51.5839 83.3954 51.6513L83.4044 51.6849C83.4135 51.7186 83.4135 51.7186 83.4225 51.7523C83.4406 51.8197 83.4156 51.8625 83.3998 51.9389L83.4088 51.9726L83.4178 52.0063C83.4019 52.0828 83.386 52.1592 83.3792 52.2694C83.3792 52.2694 83.3792 52.2694 83.3882 52.3031C83.3474 52.4223 83.3315 52.4988 83.2907 52.618C83.2907 52.618 83.2997 52.6517 83.2658 52.6608L83.2409 52.7036C83.216 52.7463 83.191 52.7891 83.2001 52.8228C83.1752 52.8656 83.1842 52.8993 83.1502 52.9084C83.1253 52.9511 83.1004 52.9939 83.0665 53.003C83.0416 53.0458 83.0076 53.0549 83.0166 53.0886C82.9917 53.1314 82.9578 53.1404 82.9329 53.1832C82.908 53.226 82.874 53.2351 82.8491 53.2779C82.8242 53.3207 82.7903 53.3298 82.7653 53.3725C82.7314 53.3816 82.7065 53.4244 82.6726 53.4335C82.6476 53.4763 82.6137 53.4854 82.5548 53.5372C82.5209 53.5463 82.496 53.5891 82.462 53.5982C82.4281 53.6073 82.3693 53.6592 82.3353 53.6683C82.3014 53.6774 82.2765 53.7202 82.2425 53.7292C82.2086 53.7383 82.1497 53.7902 82.1158 53.7993C82.0818 53.8084 82.0479 53.8175 82.0479 53.8175C81.98 53.8357 81.8782 53.863 81.8103 53.8812C81.4709 53.9721 81.1474 53.9866 80.7629 53.9091L74.3866 52.5127C74.002 52.4352 73.6356 52.4251 73.2622 52.5251C72.8889 52.6252 72.5426 52.8262 72.2484 53.0856L67.4585 57.474C67.1642 57.7333 66.8768 57.8825 66.5374 57.9735C65.9604 58.1281 65.3542 58.0378 64.8816 57.7673L67.1587 59.0706C67.6314 59.3411 68.2376 59.4314 68.8146 59.2768C69.154 59.1859 69.4414 59.0367 69.7356 58.7773L74.5256 54.3889C74.8198 54.1296 75.1661 53.9285 75.5055 53.8375C75.8788 53.7375 76.2453 53.7476 76.6298 53.8251L82.9383 55.2397C83.3228 55.3172 83.6463 55.3027 83.9857 55.2118C84.0536 55.1936 84.1554 55.1663 84.2233 55.1481C84.2572 55.139 84.2912 55.1299 84.2912 55.1299C84.3251 55.1208 84.393 55.1026 84.4179 55.0599C84.4518 55.0508 84.4858 55.0417 84.5107 54.9989C84.5446 54.9898 84.6035 54.9379 84.6374 54.9288C84.6714 54.9197 84.6963 54.877 84.7302 54.8679C84.7642 54.8588 84.7891 54.816 84.8479 54.7641C84.8819 54.755 84.9068 54.7122 84.9407 54.7031C84.9656 54.6604 84.9996 54.6513 85.0245 54.6085C85.0494 54.5657 85.0833 54.5566 85.1083 54.5138C85.1332 54.4711 85.1671 54.462 85.192 54.4192C85.2169 54.3764 85.2509 54.3673 85.2418 54.3336C85.2668 54.2908 85.3007 54.2818 85.2917 54.2481C85.3166 54.2053 85.3166 54.2053 85.3415 54.1625C85.3664 54.1197 85.3913 54.077 85.3823 54.0433C85.4072 54.0005 85.4072 54.0005 85.3982 53.9668C85.439 53.8476 85.4888 53.762 85.4957 53.6519L85.4867 53.6182C85.5025 53.5417 85.5184 53.4652 85.5253 53.3551C85.5163 53.3214 85.5412 53.2786 85.5412 53.2786C85.5571 53.2022 85.548 53.1685 85.5639 53.092C85.5549 53.0583 85.5459 53.0246 85.5708 52.9819C85.5527 52.9145 85.5686 52.838 85.5416 52.737L85.5325 52.7033C85.5055 52.6022 85.4784 52.5012 85.4513 52.4001C85.4332 52.3327 85.4152 52.2654 85.3632 52.2071L82.7023 46.3492C82.6842 46.2819 82.6752 46.2482 82.6232 46.1899L82.6142 46.1562C82.5871 46.0552 82.56 45.9541 82.5329 45.853C82.5059 45.752 82.5127 45.6418 82.4856 45.5408C82.4856 45.5408 82.4856 45.5408 82.4766 45.5071C82.4676 45.4734 82.4676 45.4734 82.4925 45.4306C82.5084 45.3542 82.4903 45.2868 82.5062 45.2103L82.4972 45.1766C82.4882 45.143 82.5221 45.1339 82.5131 45.1002C82.529 45.0237 82.5449 44.9473 82.5698 44.9045C82.5608 44.8708 82.5608 44.8708 82.5857 44.828C82.5857 44.828 82.5766 44.7943 82.6106 44.7852C82.6514 44.666 82.6922 44.5467 82.733 44.4275C82.7828 44.3419 82.8326 44.2564 82.8485 44.1799L86.1982 38.625C86.248 38.5395 86.2639 38.463 86.3228 38.4111C86.4155 38.3502 86.4155 38.3502 86.4065 38.3165Z" fill="#A54A00"/>
<path d="M109.096 26.182C108.966 26.0648 108.877 25.9753 108.823 25.8791L104.974 20.722C104.885 20.6325 104.79 20.5087 104.701 20.4191C104.612 20.3296 104.53 20.2743 104.448 20.219L102.271 18.7539C102.354 18.8092 102.436 18.8645 102.524 18.954C102.613 19.0436 102.702 19.1331 102.797 19.2569L106.647 24.414C106.742 24.5378 106.83 24.6273 106.919 24.7169C107.008 24.8064 107.09 24.8617 107.213 24.9446L109.39 26.4098C109.267 26.3268 109.178 26.2373 109.096 26.182Z" fill="url(#paint7_linear_135_539)"/>
<path d="M100.637 18.4265C101.396 18.2811 102.234 18.5468 102.799 19.2553L106.648 24.4124C107.125 25.0313 107.831 25.3577 108.617 25.3493L115.109 25.0649C116.915 24.9677 118.018 26.9934 116.978 28.4709L113.193 33.7405C112.739 34.36 112.642 35.1597 112.889 35.8935L115.118 41.929C115.622 43.2528 114.7 44.6011 113.457 44.839C113.112 44.905 112.788 44.896 112.411 44.7908L106.256 42.9156C105.878 42.8104 105.513 42.7737 105.134 42.8464C104.754 42.9191 104.394 43.0945 104.082 43.3319L98.9861 47.3611C98.6738 47.5984 98.3763 47.7264 98.0312 47.7925C96.7888 48.0303 95.4681 47.1115 95.4473 45.6952L95.3926 39.2434C95.3864 38.4634 95.0005 37.7562 94.35 37.3481L88.9832 33.7953C87.4702 32.8067 87.7818 30.5101 89.4959 29.9334L95.6342 27.7994C96.3738 27.5513 96.9377 26.9463 97.1516 26.1952L98.9273 19.961C99.1972 19.1282 99.8777 18.5718 100.637 18.4265Z" fill="url(#paint8_radial_135_539)"/>
<path d="M113.42 44.46C113.144 44.5129 112.854 44.4973 112.587 44.4065L106.363 42.5445C105.944 42.4117 105.476 42.3948 105.027 42.4807C104.578 42.5666 104.149 42.7553 103.809 43.0335L98.7135 47.0627C98.4637 47.2525 98.2352 47.3673 97.9591 47.4202C97.4415 47.5193 96.9124 47.372 96.5297 47.0547C96.147 46.7374 95.9105 46.2501 95.9157 45.7165L95.861 39.2647C95.8631 38.3411 95.382 37.5101 94.6427 37.0125L89.2003 33.4386C88.6254 33.0516 88.3627 32.4272 88.4517 31.7711C88.5342 31.0807 88.9666 30.5363 89.6437 30.3356L95.782 28.2017C96.6531 27.8929 97.3074 27.1995 97.5706 26.3324L99.3464 20.0983C99.5389 19.4223 100.06 18.9675 100.716 18.8419C101.406 18.7098 102.024 18.9466 102.452 19.5036L106.302 24.6608C106.832 25.3759 107.737 25.8062 108.62 25.7437L115.112 25.4594C115.788 25.4366 116.384 25.7485 116.716 26.3596C117.047 26.9707 116.999 27.6546 116.608 28.2266L112.864 33.5238C112.327 34.2658 112.221 35.2092 112.529 36.0733L114.758 42.1089C114.926 42.6094 114.88 43.1154 114.648 43.5858C114.375 44.0287 113.903 44.3675 113.42 44.46Z" fill="url(#paint9_linear_135_539)"/>
<path d="M119.274 29.6269C119.33 29.5451 119.379 29.4292 119.4 29.3541L119.428 29.3132C119.45 29.2381 119.465 29.1287 119.486 29.0536C119.48 29.0194 119.48 29.0194 119.507 28.9785C119.529 28.9034 119.516 28.8349 119.537 28.7598C119.531 28.7255 119.531 28.7255 119.524 28.6913C119.539 28.5819 119.526 28.5134 119.506 28.4107C119.506 28.4107 119.506 28.4107 119.5 28.3764C119.48 28.2737 119.46 28.1709 119.44 28.0682L119.434 28.0339C119.414 27.9312 119.367 27.8693 119.347 27.7665C119.34 27.7323 119.34 27.7323 119.334 27.698C119.286 27.6361 119.273 27.5676 119.225 27.5057C119.225 27.5057 119.219 27.4715 119.184 27.4781C119.137 27.4162 119.089 27.3543 119.035 27.2581L118.994 27.2305C118.946 27.1686 118.905 27.1409 118.858 27.0791C118.851 27.0448 118.817 27.0514 118.81 27.0172C118.728 26.9619 118.68 26.9 118.598 26.8447L116.421 25.3796C116.504 25.4348 116.586 25.4901 116.633 25.552C116.633 25.552 116.633 25.552 116.674 25.5797C116.674 25.5797 116.681 25.6139 116.715 25.6073C116.763 25.6692 116.804 25.6969 116.852 25.7588L116.893 25.7864C116.94 25.8483 116.988 25.9102 117.042 26.0063L117.049 26.0406C117.096 26.1025 117.11 26.171 117.157 26.2329C117.164 26.2671 117.164 26.2671 117.17 26.3014C117.225 26.3975 117.238 26.466 117.257 26.5688L117.264 26.603C117.284 26.7058 117.303 26.8085 117.323 26.9113C117.343 27.014 117.321 27.0892 117.341 27.1919L117.347 27.2262L117.354 27.2604C117.367 27.3289 117.346 27.404 117.324 27.4791L117.331 27.5134C117.309 27.5885 117.295 27.6979 117.273 27.773C117.273 27.773 117.273 27.773 117.28 27.8072C117.28 27.8072 117.286 27.8415 117.252 27.8481C117.237 27.9574 117.181 28.0392 117.125 28.1209C117.125 28.1209 117.125 28.1209 117.132 28.1551C117.076 28.2368 117.054 28.312 116.992 28.3594L113.192 33.7383C113.136 33.8201 113.08 33.9018 113.059 33.9769C113.01 34.0929 112.96 34.2088 112.911 34.3248C112.883 34.3656 112.89 34.3999 112.896 34.4342C112.875 34.5093 112.853 34.5844 112.825 34.6252C112.832 34.6595 112.804 34.7003 112.811 34.7346C112.789 34.8097 112.802 34.8782 112.781 34.9533C112.787 34.9876 112.759 35.0284 112.766 35.0627C112.751 35.172 112.771 35.2748 112.791 35.3775C112.791 35.3775 112.791 35.3775 112.797 35.4118C112.817 35.5146 112.836 35.6173 112.856 35.7201C112.869 35.7886 112.882 35.8571 112.93 35.919L115.159 41.9545C115.172 42.023 115.178 42.0572 115.22 42.0849L115.226 42.1191C115.246 42.2219 115.265 42.3246 115.285 42.4274L115.292 42.4616C115.305 42.5301 115.29 42.6395 115.303 42.708L115.31 42.7423C115.316 42.7765 115.316 42.7765 115.323 42.8108C115.336 42.8793 115.308 42.9201 115.287 42.9952L115.293 43.0295L115.3 43.0637C115.278 43.1388 115.257 43.2139 115.242 43.3233C115.242 43.3233 115.242 43.3233 115.249 43.3576C115.199 43.4735 115.178 43.5486 115.128 43.6646C115.128 43.6646 115.135 43.6989 115.101 43.7055L115.073 43.7463C115.045 43.7872 115.017 43.828 115.023 43.8623C114.995 43.9032 115.002 43.9374 114.967 43.944C114.939 43.9849 114.911 44.0257 114.877 44.0323C114.849 44.0732 114.814 44.0798 114.821 44.1141C114.793 44.1549 114.759 44.1615 114.731 44.2024C114.703 44.2432 114.668 44.2498 114.64 44.2907C114.612 44.3316 114.578 44.3382 114.55 44.379C114.515 44.3856 114.487 44.4265 114.453 44.4331C114.425 44.474 114.39 44.4806 114.328 44.528C114.293 44.5346 114.265 44.5755 114.231 44.5821C114.196 44.5887 114.134 44.6362 114.099 44.6428C114.065 44.6494 114.037 44.6903 114.002 44.6969C113.968 44.7035 113.905 44.7509 113.871 44.7575C113.836 44.7642 113.802 44.7708 113.802 44.7708C113.733 44.784 113.629 44.8038 113.56 44.817C113.215 44.8831 112.892 44.874 112.514 44.7689L106.255 42.9135C105.878 42.8083 105.513 42.7716 105.133 42.8443C104.754 42.917 104.394 43.0924 104.081 43.3297L98.9856 47.359C98.6733 47.5963 98.3758 47.7243 98.0307 47.7903C97.444 47.9027 96.846 47.7686 96.3942 47.4645L98.5708 48.9297C99.0226 49.2338 99.6207 49.3678 100.207 49.2555C100.552 49.1894 100.85 49.0614 101.162 48.8241L106.258 44.7949C106.57 44.5575 106.93 44.3821 107.275 44.316C107.655 44.2433 108.02 44.28 108.398 44.3852L114.587 46.2538C114.965 46.359 115.288 46.368 115.633 46.302C115.702 46.2887 115.806 46.2689 115.875 46.2557C115.91 46.2491 115.944 46.2425 115.944 46.2425C115.979 46.2359 116.048 46.2227 116.076 46.1818C116.11 46.1752 116.145 46.1686 116.172 46.1277C116.207 46.1211 116.269 46.0737 116.304 46.0671C116.338 46.0605 116.366 46.0196 116.401 46.013C116.435 46.0064 116.463 45.9655 116.526 45.9181C116.56 45.9114 116.588 45.8706 116.623 45.864C116.651 45.8231 116.685 45.8165 116.713 45.7757C116.741 45.7348 116.776 45.7282 116.804 45.6873C116.832 45.6465 116.866 45.6399 116.894 45.599C116.922 45.5581 116.957 45.5515 116.95 45.5173C116.978 45.4764 117.012 45.4698 117.006 45.4356C117.034 45.3947 117.034 45.3947 117.062 45.3538C117.09 45.313 117.118 45.2721 117.111 45.2379C117.139 45.197 117.139 45.197 117.133 45.1628C117.182 45.0468 117.238 44.9651 117.253 44.8557L117.246 44.8215C117.267 44.7464 117.289 44.6713 117.304 44.5619C117.297 44.5276 117.325 44.4868 117.325 44.4868C117.346 44.4117 117.34 44.3774 117.361 44.3023C117.355 44.2681 117.348 44.2338 117.376 44.1929C117.363 44.1244 117.384 44.0493 117.365 43.9466L117.358 43.9123C117.339 43.8096 117.319 43.7068 117.299 43.6041C117.286 43.5356 117.273 43.4671 117.225 43.4052L114.996 37.3697C114.983 37.3012 114.977 37.2669 114.929 37.205L114.923 37.1708C114.903 37.068 114.883 36.9652 114.864 36.8625C114.844 36.7597 114.859 36.6504 114.839 36.5476C114.839 36.5476 114.839 36.5476 114.833 36.5134C114.826 36.4791 114.826 36.4791 114.854 36.4383C114.875 36.3632 114.862 36.2947 114.884 36.2195L114.877 36.1853C114.87 36.151 114.905 36.1444 114.898 36.1102C114.92 36.0351 114.941 35.96 114.969 35.9191C114.963 35.8848 114.963 35.8848 114.991 35.844C114.991 35.844 114.984 35.8097 115.019 35.8031C115.068 35.6872 115.117 35.5712 115.167 35.4552C115.222 35.3735 115.278 35.2918 115.3 35.2167L119.044 29.9195C119.1 29.8378 119.121 29.7627 119.183 29.7152C119.28 29.6611 119.28 29.6611 119.274 29.6269Z" fill="url(#paint10_linear_135_539)"/>
<path d="M207.024 35.6165C207.162 35.509 207.257 35.4261 207.318 35.3342L211.531 30.47C211.626 30.3871 211.73 30.2706 211.825 30.1877C211.92 30.1048 212.006 30.0556 212.092 30.0065L214.369 28.7031C214.283 28.7523 214.197 28.8015 214.102 28.8844C214.007 28.9672 213.912 29.0501 213.808 29.1666L209.595 34.0309C209.491 34.1474 209.396 34.2303 209.301 34.3131C209.206 34.396 209.12 34.4452 208.991 34.519L206.714 35.8223C206.843 35.7485 206.938 35.6656 207.024 35.6165Z" fill="url(#paint11_linear_135_539)"/>
<path d="M216.024 28.4981C215.278 28.2981 214.423 28.5022 213.808 29.1678L209.594 34.0321C209.074 34.6148 208.346 34.889 207.563 34.8237L201.109 34.069C199.315 33.841 198.067 35.7813 198.998 37.3304L202.391 42.8607C202.798 43.5115 202.837 44.3162 202.537 45.03L199.876 50.8879C199.277 52.1716 200.099 53.5834 201.321 53.9107C201.661 54.0017 201.984 54.0162 202.369 53.9387L208.643 52.515C209.028 52.4375 209.394 52.4274 209.768 52.5274C210.141 52.6275 210.487 52.8286 210.781 53.0879L215.571 57.4763C215.866 57.7356 216.153 57.8849 216.492 57.9758C217.714 58.3032 219.098 57.4826 219.222 56.0715L219.744 49.6407C219.807 48.8633 220.243 48.1859 220.922 47.8261L226.532 44.672C228.113 43.7958 227.969 41.4827 226.301 40.7831L220.334 38.2094C219.614 37.9083 219.096 37.2639 218.937 36.4992L217.618 30.1527C217.409 29.3025 216.771 28.6982 216.024 28.4981Z" fill="url(#paint12_radial_135_539)"/>
<path d="M201.386 53.5332C201.657 53.606 201.947 53.6114 202.221 53.5403L208.563 52.1348C208.991 52.0327 209.459 52.0499 209.9 52.1681C210.341 52.2863 210.755 52.5056 211.075 52.8077L215.865 57.1961C216.1 57.4036 216.319 57.5346 216.591 57.6074C217.1 57.7438 217.638 57.6353 218.043 57.3466C218.448 57.0579 218.719 56.589 218.753 56.0565L219.275 49.6257C219.34 48.7044 219.88 47.9104 220.654 47.4678L226.341 44.2982C226.943 43.9539 227.25 43.3503 227.209 42.6894C227.177 41.9948 226.785 41.4205 226.124 41.1712L220.157 38.5975C219.311 38.2263 218.708 37.4873 218.509 36.6034L217.19 30.2569C217.047 29.5687 216.56 29.0773 215.915 28.9045C215.237 28.7226 214.603 28.9139 214.135 29.4384L209.922 34.3026C209.341 34.9774 208.407 35.3408 207.531 35.2145L201.077 34.4598C200.405 34.3881 199.787 34.6559 199.412 35.2414C199.037 35.8268 199.035 36.5123 199.384 37.1112L202.734 42.6661C203.216 43.4452 203.253 44.3938 202.882 45.2332L200.221 51.0911C200.018 51.5782 200.028 52.0862 200.225 52.5722C200.465 53.0337 200.911 53.4059 201.386 53.5332Z" fill="url(#paint13_linear_135_539)"/>
<path d="M196.623 38.3165C196.573 38.2309 196.532 38.1117 196.516 38.0352L196.491 37.9924C196.475 37.916 196.469 37.8058 196.453 37.7294C196.462 37.6957 196.462 37.6957 196.437 37.6529C196.421 37.5764 196.439 37.5091 196.423 37.4326C196.432 37.3989 196.432 37.3989 196.441 37.3652C196.434 37.2551 196.452 37.1877 196.479 37.0866C196.479 37.0866 196.479 37.0866 196.488 37.053C196.516 36.9519 196.543 36.8508 196.57 36.7498L196.579 36.7161C196.606 36.6151 196.658 36.5568 196.685 36.4557C196.694 36.422 196.694 36.422 196.703 36.3883C196.755 36.3301 196.773 36.2627 196.825 36.2044C196.825 36.2044 196.834 36.1707 196.868 36.1798C196.92 36.1216 196.972 36.0633 197.033 35.9713L197.076 35.9467C197.128 35.8885 197.171 35.8639 197.223 35.8056C197.232 35.7719 197.266 35.781 197.275 35.7473C197.361 35.6981 197.413 35.6399 197.499 35.5907L199.776 34.2873C199.69 34.3365 199.604 34.3857 199.552 34.444C199.552 34.444 199.552 34.444 199.509 34.4686C199.509 34.4686 199.5 34.5023 199.466 34.4932C199.414 34.5514 199.371 34.576 199.319 34.6343L199.276 34.6589C199.224 34.7172 199.172 34.7755 199.111 34.8674L199.102 34.9011C199.05 34.9594 199.032 35.0267 198.98 35.085C198.971 35.1187 198.971 35.1187 198.962 35.1524C198.901 35.2444 198.883 35.3117 198.856 35.4128L198.847 35.4465C198.82 35.5475 198.793 35.6486 198.766 35.7496C198.739 35.8507 198.754 35.9272 198.727 36.0282L198.718 36.0619L198.709 36.0956C198.691 36.1629 198.707 36.2394 198.723 36.3159L198.714 36.3496C198.73 36.426 198.737 36.5362 198.753 36.6126C198.753 36.6126 198.753 36.6126 198.744 36.6463C198.744 36.6463 198.735 36.68 198.769 36.6891C198.775 36.7993 198.825 36.8848 198.875 36.9704C198.875 36.9704 198.875 36.9704 198.866 37.0041C198.916 37.0896 198.932 37.1661 198.991 37.218L202.39 42.8584C202.44 42.944 202.49 43.0295 202.506 43.106C202.546 43.2252 202.587 43.3445 202.628 43.4637C202.653 43.5065 202.644 43.5402 202.635 43.5739C202.651 43.6503 202.667 43.7268 202.692 43.7696C202.683 43.8033 202.707 43.846 202.698 43.8797C202.714 43.9562 202.696 44.0236 202.712 44.1C202.703 44.1337 202.728 44.1765 202.719 44.2102C202.726 44.3203 202.699 44.4214 202.672 44.5224C202.672 44.5224 202.672 44.5224 202.663 44.5561C202.636 44.6572 202.609 44.7582 202.581 44.8593C202.563 44.9267 202.545 44.994 202.493 45.0523L199.832 50.9102C199.814 50.9775 199.805 51.0112 199.762 51.0358L199.753 51.0695C199.726 51.1706 199.699 51.2716 199.672 51.3727L199.663 51.4064C199.645 51.4737 199.652 51.5839 199.634 51.6513L199.625 51.6849C199.616 51.7186 199.616 51.7186 199.607 51.7523C199.589 51.8197 199.614 51.8625 199.63 51.9389L199.621 51.9726L199.611 52.0063C199.627 52.0828 199.643 52.1592 199.65 52.2694C199.65 52.2694 199.65 52.2694 199.641 52.3031C199.682 52.4223 199.698 52.4988 199.739 52.618C199.739 52.618 199.73 52.6517 199.764 52.6608L199.788 52.7036C199.813 52.7463 199.838 52.7891 199.829 52.8228C199.854 52.8656 199.845 52.8993 199.879 52.9084C199.904 52.9511 199.929 52.9939 199.963 53.003C199.988 53.0458 200.022 53.0549 200.013 53.0886C200.038 53.1314 200.072 53.1404 200.096 53.1832C200.121 53.226 200.155 53.2351 200.18 53.2779C200.205 53.3207 200.239 53.3298 200.264 53.3725C200.298 53.3816 200.323 53.4244 200.357 53.4335C200.382 53.4763 200.416 53.4854 200.474 53.5372C200.508 53.5463 200.533 53.5891 200.567 53.5982C200.601 53.6073 200.66 53.6592 200.694 53.6683C200.728 53.6774 200.753 53.7202 200.787 53.7292C200.821 53.7383 200.88 53.7902 200.914 53.7993C200.947 53.8084 200.981 53.8175 200.981 53.8175C201.049 53.8357 201.151 53.863 201.219 53.8812C201.558 53.9721 201.882 53.9866 202.266 53.9091L208.643 52.5127C209.027 52.4352 209.394 52.4251 209.767 52.5251C210.14 52.6252 210.487 52.8262 210.781 53.0856L215.571 57.474C215.865 57.7333 216.153 57.8825 216.492 57.9735C217.069 58.1281 217.675 58.0378 218.148 57.7673L215.871 59.0706C215.398 59.3411 214.792 59.4314 214.215 59.2768C213.875 59.1859 213.588 59.0367 213.294 58.7773L208.504 54.3889C208.209 54.1296 207.863 53.9285 207.524 53.8375C207.15 53.7375 206.784 53.7476 206.399 53.8251L200.091 55.2397C199.707 55.3172 199.383 55.3027 199.044 55.2118C198.976 55.1936 198.874 55.1663 198.806 55.1481C198.772 55.139 198.738 55.1299 198.738 55.1299C198.704 55.1208 198.636 55.1026 198.611 55.0599C198.577 55.0508 198.544 55.0417 198.519 54.9989C198.485 54.9898 198.426 54.9379 198.392 54.9288C198.358 54.9197 198.333 54.877 198.299 54.8679C198.265 54.8588 198.24 54.816 198.181 54.7641C198.147 54.755 198.123 54.7122 198.089 54.7031C198.064 54.6604 198.03 54.6513 198.005 54.6085C197.98 54.5657 197.946 54.5566 197.921 54.5138C197.896 54.4711 197.862 54.462 197.837 54.4192C197.812 54.3764 197.778 54.3673 197.787 54.3336C197.763 54.2908 197.729 54.2818 197.738 54.2481C197.713 54.2053 197.713 54.2053 197.688 54.1625C197.663 54.1197 197.638 54.077 197.647 54.0433C197.622 54.0005 197.622 54.0005 197.631 53.9668C197.59 53.8476 197.54 53.762 197.534 53.6519L197.543 53.6182C197.527 53.5417 197.511 53.4652 197.504 53.3551C197.513 53.3214 197.488 53.2786 197.488 53.2786C197.472 53.2022 197.481 53.1685 197.465 53.092C197.474 53.0583 197.483 53.0246 197.459 52.9819C197.477 52.9145 197.461 52.838 197.488 52.737L197.497 52.7033C197.524 52.6022 197.551 52.5012 197.578 52.4001C197.596 52.3327 197.614 52.2654 197.666 52.2071L200.327 46.3492C200.345 46.2819 200.354 46.2482 200.406 46.1899L200.415 46.1562C200.442 46.0552 200.469 45.9541 200.496 45.853C200.523 45.752 200.517 45.6418 200.544 45.5408C200.544 45.5408 200.544 45.5408 200.553 45.5071C200.562 45.4734 200.562 45.4734 200.537 45.4306C200.521 45.3542 200.539 45.2868 200.523 45.2103L200.532 45.1766C200.541 45.143 200.507 45.1339 200.516 45.1002C200.5 45.0237 200.484 44.9473 200.46 44.9045C200.469 44.8708 200.469 44.8708 200.444 44.828C200.444 44.828 200.453 44.7943 200.419 44.7852C200.378 44.666 200.337 44.5467 200.296 44.4275C200.246 44.3419 200.197 44.2564 200.181 44.1799L196.831 38.625C196.781 38.5395 196.765 38.463 196.707 38.4111C196.614 38.3502 196.614 38.3502 196.623 38.3165Z" fill="url(#paint14_linear_135_539)"/>
<path d="M173.934 26.182C174.063 26.0648 174.152 25.9753 174.206 25.8791L178.056 20.722C178.144 20.6325 178.24 20.5087 178.328 20.4191C178.417 20.3296 178.499 20.2743 178.581 20.219L180.758 18.7539C180.676 18.8092 180.594 18.8645 180.505 18.954C180.416 19.0436 180.327 19.1331 180.232 19.2569L176.383 24.414C176.288 24.5378 176.199 24.6273 176.11 24.7169C176.021 24.8064 175.939 24.8617 175.816 24.9446L173.639 26.4098C173.763 26.3268 173.851 26.2373 173.934 26.182Z" fill="url(#paint15_linear_135_539)"/>
<path d="M182.392 18.4265C181.633 18.2811 180.795 18.5468 180.23 19.2553L176.381 24.4124C175.905 25.0313 175.198 25.3577 174.413 25.3493L167.92 25.0649C166.114 24.9677 165.011 26.9934 166.052 28.4709L169.837 33.7405C170.29 34.36 170.388 35.1597 170.14 35.8935L167.911 41.929C167.407 43.2528 168.33 44.6011 169.572 44.839C169.917 44.905 170.241 44.896 170.619 44.7908L176.773 42.9156C177.151 42.8104 177.516 42.7737 177.896 42.8464C178.275 42.9191 178.635 43.0945 178.948 43.3319L184.043 47.3611C184.356 47.5984 184.653 47.7264 184.998 47.7925C186.24 48.0303 187.561 47.1115 187.582 45.6952L187.637 39.2434C187.643 38.4634 188.029 37.7562 188.679 37.3481L194.046 33.7953C195.559 32.8067 195.248 30.5101 193.533 29.9334L187.395 27.7994C186.656 27.5513 186.092 26.9463 185.878 26.1952L184.102 19.961C183.832 19.1282 183.152 18.5718 182.392 18.4265Z" fill="url(#paint16_radial_135_539)"/>
<path d="M169.61 44.46C169.886 44.5129 170.175 44.4973 170.443 44.4065L176.666 42.5445C177.085 42.4117 177.554 42.3948 178.002 42.4807C178.451 42.5666 178.88 42.7553 179.22 43.0335L184.316 47.0627C184.566 47.2525 184.794 47.3673 185.07 47.4202C185.588 47.5193 186.117 47.372 186.5 47.0547C186.882 46.7374 187.119 46.2501 187.114 45.7165L187.168 39.2647C187.166 38.3411 187.647 37.5101 188.387 37.0125L193.829 33.4386C194.404 33.0516 194.667 32.4272 194.578 31.7711C194.495 31.0807 194.063 30.5363 193.386 30.3356L187.247 28.2017C186.376 27.8929 185.722 27.1995 185.459 26.3324L183.683 20.0983C183.49 19.4223 182.969 18.9675 182.314 18.8419C181.623 18.7098 181.006 18.9466 180.577 19.5036L176.728 24.6608C176.197 25.3759 175.292 25.8062 174.409 25.7437L167.917 25.4594C167.242 25.4366 166.645 25.7485 166.314 26.3596C165.982 26.9707 166.03 27.6546 166.421 28.2266L170.165 33.5238C170.703 34.2658 170.808 35.2092 170.5 36.0733L168.271 42.1089C168.104 42.6094 168.15 43.1154 168.382 43.5858C168.655 44.0287 169.126 44.3675 169.61 44.46Z" fill="url(#paint17_linear_135_539)"/>
<path d="M163.755 29.6269C163.7 29.5451 163.65 29.4292 163.629 29.3541L163.601 29.3132C163.579 29.2381 163.565 29.1287 163.543 29.0536C163.55 29.0194 163.55 29.0194 163.522 28.9785C163.5 28.9034 163.514 28.8349 163.492 28.7598C163.499 28.7255 163.499 28.7255 163.505 28.6913C163.49 28.5819 163.504 28.5134 163.523 28.4107C163.523 28.4107 163.523 28.4107 163.53 28.3764C163.549 28.2737 163.569 28.1709 163.589 28.0682L163.595 28.0339C163.615 27.9312 163.663 27.8693 163.682 27.7665C163.689 27.7323 163.689 27.7323 163.695 27.698C163.743 27.6361 163.756 27.5676 163.804 27.5057C163.804 27.5057 163.81 27.4715 163.845 27.4781C163.893 27.4162 163.94 27.3543 163.994 27.2581L164.035 27.2305C164.083 27.1686 164.124 27.1409 164.172 27.0791C164.178 27.0448 164.213 27.0514 164.219 27.0172C164.301 26.9619 164.349 26.9 164.431 26.8447L166.608 25.3796C166.526 25.4348 166.444 25.4901 166.396 25.552C166.396 25.552 166.396 25.552 166.355 25.5797C166.355 25.5797 166.348 25.6139 166.314 25.6073C166.266 25.6692 166.225 25.6969 166.178 25.7588L166.136 25.7864C166.089 25.8483 166.041 25.9102 165.987 26.0063L165.98 26.0406C165.933 26.1025 165.92 26.171 165.872 26.2329C165.866 26.2671 165.866 26.2671 165.859 26.3014C165.805 26.3975 165.792 26.466 165.772 26.5688L165.765 26.603C165.746 26.7058 165.726 26.8085 165.706 26.9113C165.687 27.014 165.708 27.0892 165.688 27.1919L165.682 27.2262L165.675 27.2604C165.662 27.3289 165.684 27.404 165.705 27.4791L165.698 27.5134C165.72 27.5885 165.735 27.6979 165.756 27.773C165.756 27.773 165.756 27.773 165.75 27.8072C165.75 27.8072 165.743 27.8415 165.777 27.8481C165.792 27.9574 165.848 28.0392 165.904 28.1209C165.904 28.1209 165.904 28.1209 165.898 28.1551C165.953 28.2368 165.975 28.312 166.037 28.3594L169.837 33.7383C169.893 33.8201 169.949 33.9018 169.97 33.9769C170.02 34.0929 170.069 34.2088 170.118 34.3248C170.146 34.3656 170.14 34.3999 170.133 34.4342C170.155 34.5093 170.176 34.5844 170.204 34.6252C170.197 34.6595 170.225 34.7003 170.219 34.7346C170.24 34.8097 170.227 34.8782 170.248 34.9533C170.242 34.9876 170.27 35.0284 170.263 35.0627C170.278 35.172 170.258 35.2748 170.239 35.3775C170.239 35.3775 170.239 35.3775 170.232 35.4118C170.213 35.5146 170.193 35.6173 170.173 35.7201C170.16 35.7886 170.147 35.8571 170.099 35.919L167.87 41.9545C167.857 42.023 167.851 42.0572 167.81 42.0849L167.803 42.1191C167.784 42.2219 167.764 42.3246 167.744 42.4274L167.738 42.4616C167.724 42.5301 167.739 42.6395 167.726 42.708L167.72 42.7423C167.713 42.7765 167.713 42.7765 167.707 42.8108C167.693 42.8793 167.721 42.9201 167.743 42.9952L167.736 43.0295L167.73 43.0637C167.751 43.1388 167.772 43.2139 167.787 43.3233C167.787 43.3233 167.787 43.3233 167.781 43.3576C167.83 43.4735 167.851 43.5486 167.901 43.6646C167.901 43.6646 167.894 43.6989 167.929 43.7055L167.957 43.7463C167.985 43.7872 168.013 43.828 168.006 43.8623C168.034 43.9032 168.027 43.9374 168.062 43.944C168.09 43.9849 168.118 44.0257 168.152 44.0323C168.18 44.0732 168.215 44.0798 168.208 44.1141C168.236 44.1549 168.271 44.1615 168.299 44.2024C168.327 44.2432 168.361 44.2498 168.389 44.2907C168.417 44.3316 168.452 44.3382 168.48 44.379C168.514 44.3856 168.542 44.4265 168.577 44.4331C168.604 44.474 168.639 44.4806 168.701 44.528C168.736 44.5346 168.764 44.5755 168.798 44.5821C168.833 44.5887 168.895 44.6362 168.93 44.6428C168.964 44.6494 168.992 44.6903 169.027 44.6969C169.061 44.7035 169.124 44.7509 169.158 44.7575C169.193 44.7642 169.227 44.7708 169.227 44.7708C169.296 44.784 169.4 44.8038 169.469 44.817C169.814 44.8831 170.138 44.874 170.516 44.7689L176.774 42.9135C177.152 42.8083 177.516 42.7716 177.896 42.8443C178.276 42.917 178.636 43.0924 178.948 43.3297L184.044 47.359C184.356 47.5963 184.653 47.7243 184.999 47.7903C185.585 47.9027 186.183 47.7686 186.635 47.4645L184.458 48.9297C184.007 49.2338 183.409 49.3678 182.822 49.2555C182.477 49.1894 182.179 49.0614 181.867 48.8241L176.771 44.7949C176.459 44.5575 176.099 44.3821 175.754 44.316C175.374 44.2433 175.01 44.28 174.632 44.3852L168.443 46.2538C168.065 46.359 167.741 46.368 167.396 46.302C167.327 46.2887 167.223 46.2689 167.154 46.2557C167.12 46.2491 167.085 46.2425 167.085 46.2425C167.051 46.2359 166.982 46.2227 166.954 46.1818C166.919 46.1752 166.885 46.1686 166.857 46.1277C166.822 46.1211 166.76 46.0737 166.725 46.0671C166.691 46.0605 166.663 46.0196 166.628 46.013C166.594 46.0064 166.566 45.9655 166.503 45.9181C166.469 45.9114 166.441 45.8706 166.406 45.864C166.378 45.8231 166.344 45.8165 166.316 45.7757C166.288 45.7348 166.254 45.7282 166.226 45.6873C166.198 45.6465 166.163 45.6399 166.135 45.599C166.107 45.5581 166.073 45.5515 166.079 45.5173C166.051 45.4764 166.017 45.4698 166.023 45.4356C165.995 45.3947 165.995 45.3947 165.967 45.3538C165.94 45.313 165.912 45.2721 165.918 45.2379C165.89 45.197 165.89 45.197 165.897 45.1628C165.847 45.0468 165.791 44.9651 165.777 44.8557L165.783 44.8215C165.762 44.7464 165.74 44.6713 165.726 44.5619C165.732 44.5276 165.704 44.4868 165.704 44.4868C165.683 44.4117 165.689 44.3774 165.668 44.3023C165.675 44.2681 165.681 44.2338 165.653 44.1929C165.666 44.1244 165.645 44.0493 165.665 43.9466L165.671 43.9123C165.691 43.8096 165.71 43.7068 165.73 43.6041C165.743 43.5356 165.756 43.4671 165.804 43.4052L168.033 37.3697C168.046 37.3012 168.052 37.2669 168.1 37.205L168.107 37.1708C168.126 37.068 168.146 36.9652 168.166 36.8625C168.185 36.7597 168.171 36.6504 168.19 36.5476C168.19 36.5476 168.19 36.5476 168.197 36.5134C168.203 36.4791 168.203 36.4791 168.175 36.4383C168.154 36.3632 168.167 36.2947 168.146 36.2195L168.152 36.1853C168.159 36.151 168.124 36.1444 168.131 36.1102C168.109 36.0351 168.088 35.96 168.06 35.9191C168.067 35.8848 168.067 35.8848 168.039 35.844C168.039 35.844 168.045 35.8097 168.011 35.8031C167.961 35.6872 167.912 35.5712 167.863 35.4552C167.807 35.3735 167.751 35.2918 167.73 35.2167L163.986 29.9195C163.93 29.8378 163.908 29.7627 163.846 29.7152C163.749 29.6611 163.749 29.6611 163.755 29.6269Z" fill="url(#paint18_linear_135_539)"/>
<path d="M89.796 255.149L87.5246 255.387C87.2825 255.413 87.0525 255.332 86.8717 255.164C82.8563 251.343 75.1176 246.258 69.9431 242.057C67.1642 243.9 62.7012 245.803 56.9024 244.978C53.034 244.441 49.3289 242.685 46.3873 240.873C42.8358 238.693 40.3464 236.414 39.8931 235.983C39.4933 235.617 39.3016 235.124 39.3605 234.687C39.3994 234.391 39.5839 234.151 39.8497 234.018C41.4331 233.222 47.1589 230.801 54.6853 232.202C56.5652 232.564 58.5731 233.146 60.7254 233.992C56.258 229.752 53.6314 226.834 49.4748 221.559C46.571 222.657 42.1847 223.514 37.1792 221.697C29.8946 219.047 24.4397 211.402 23.8597 210.542C23.5843 210.14 23.4873 209.66 23.6445 209.271C23.7435 208.992 23.9674 208.794 24.2278 208.72C25.8293 208.318 31.5373 207.17 37.9833 209.827C39.604 210.496 41.2478 211.384 42.9771 212.531C39.8896 207.89 38.1097 204.708 35.4205 199.197C32.5768 199.647 28.4558 199.591 24.2739 197.069C18.2395 193.449 14.7241 185.623 14.3529 184.753C14.1697 184.341 14.1777 183.862 14.3767 183.538C14.537 183.288 14.7785 183.146 15.0449 183.13C16.5857 183.038 21.9774 182.984 27.3273 186.525C28.6434 187.401 29.9443 188.465 31.2718 189.782C29.3616 185.029 28.3245 181.815 26.872 176.314C24.2286 176.231 20.4985 175.457 17.1899 172.482C12.484 168.303 10.6161 161.178 10.2953 159.79C10.2067 159.391 10.3003 158.95 10.54 158.68C10.7282 158.474 10.9861 158.376 11.2573 158.406C12.6633 158.585 17.5785 159.432 21.8191 163.509C22.8451 164.509 23.8164 165.654 24.7519 167.013C23.8564 162.374 23.4576 159.246 23.0342 153.998C20.6598 153.478 17.4347 152.185 14.9314 148.997C11.3809 144.498 10.783 137.811 10.7061 136.525C10.6765 136.132 10.8337 135.742 11.1038 135.539C11.3071 135.366 11.5686 135.304 11.8101 135.383C13.0614 135.753 17.3836 137.281 20.5664 141.609C21.3284 142.648 22.0091 143.8 22.6375 145.122C22.5533 140.771 22.6757 137.832 23.1103 132.983C21.0642 132.149 18.3738 130.508 16.5993 127.268C14.0823 122.73 14.4947 116.671 14.6041 115.494C14.6357 115.129 14.8324 114.782 15.1176 114.612C15.3385 114.496 15.6049 114.479 15.8258 114.584C16.8943 115.102 20.566 117.094 22.782 121.43C23.2947 122.426 23.7235 123.511 24.0735 124.734C24.6488 120.78 25.2038 118.075 26.2871 113.741C24.5815 112.708 22.4506 110.846 21.332 107.746C19.7307 103.379 20.893 98.023 21.1359 97.0066C21.2276 96.6589 21.4649 96.3659 21.7447 96.2549C21.9692 96.173 22.2277 96.1924 22.4164 96.3241C23.3066 96.9184 26.3173 99.1665 27.7008 103.346C27.995 104.259 28.2249 105.226 28.3734 106.306C29.4401 102.813 30.3174 100.401 31.8866 96.5878C30.5439 95.4583 28.91 93.555 28.3151 90.6682C27.4814 86.6175 29.1551 82.0235 29.4945 81.1485C29.6244 80.8318 29.8805 80.6067 30.1524 80.5315C30.3806 80.4842 30.6184 80.5291 30.7968 80.6736C31.5049 81.3103 33.8851 83.6597 34.597 87.5483C34.7243 88.316 34.7873 89.137 34.7974 90.0102C36.2058 86.9945 37.3087 84.9552 39.2323 81.6288C38.1905 80.4793 37.0311 78.6544 36.8659 76.0839C36.6249 72.4605 38.6105 68.6147 39.0117 67.8848C39.1683 67.6002 39.4281 67.4097 39.683 67.3946C39.9123 67.3588 40.1193 67.442 40.2643 67.6016C40.8316 68.2297 42.6359 70.5348 42.7804 74.0168C42.7997 74.6442 42.7857 75.2868 42.7036 75.9483C44.3279 73.4344 45.5546 71.6852 47.6723 68.8747C46.9297 67.7986 46.1702 66.1182 46.301 63.9246C46.4848 60.7928 48.5594 57.6837 48.974 57.0806C49.1482 56.8524 49.4128 56.7081 49.6573 56.7057C49.8776 56.6942 50.0754 56.8016 50.1871 56.9764C50.5984 57.5627 51.9337 59.7305 51.6674 62.7427C51.6303 63.1663 51.5611 63.6165 51.4597 64.0935C52.0684 63.3417 52.6523 62.6858 53.2659 61.9802C53.8911 61.2733 54.5472 60.5282 55.3732 59.6254C55.6967 59.265 56.2028 59.2002 56.5135 59.4939C56.8242 59.7877 56.8071 60.2907 56.4824 60.6396C54.8418 62.444 53.844 63.5981 52.6392 65.1119C53.0859 64.9251 53.5234 64.7625 53.9567 64.6703C56.7046 63.9735 58.9315 64.9751 59.7622 65.4474C59.9333 65.5227 60.0589 65.7193 60.0807 65.9268C60.1085 66.192 60.0059 66.4359 59.8142 66.6076C58.6944 67.5996 56.4768 69.3482 53.971 70.0195C51.8513 70.592 49.9932 70.2161 48.921 69.8858C46.8573 72.6557 45.641 74.3922 44.0513 76.9024C44.6563 76.559 45.2444 76.2757 45.8397 76.0616C48.8959 74.971 51.5883 75.8538 52.6126 76.2824C52.8207 76.3771 52.9554 76.5494 53.0154 76.7879C53.0651 77.0392 52.9905 77.3268 52.8011 77.5215C51.6734 78.7708 49.3683 81.0181 46.5876 82.0681C44.1881 82.9731 41.9871 82.7731 40.6995 82.5005C38.8093 85.8116 37.75 87.8231 36.3775 90.8467C37.053 90.2861 37.7637 89.8384 38.4725 89.4841C41.7521 87.8571 44.9233 88.5263 46.1272 88.8894C46.3547 88.9471 46.5483 89.1249 46.6071 89.3519C46.6926 89.611 46.655 89.918 46.4808 90.1462C45.3937 91.671 43.134 94.4614 40.1839 96.0071C37.5871 97.3642 35.0402 97.4221 33.5596 97.3096C32.0055 101.157 31.1889 103.481 30.1452 106.971C30.8656 106.172 31.6249 105.521 32.4193 104.983C35.7858 102.741 39.4292 103.023 40.84 103.247C41.0779 103.292 41.2909 103.433 41.4213 103.676C41.5414 103.931 41.5395 104.246 41.3932 104.518C40.2162 106.74 38.1968 109.82 35.331 111.835C32.6504 113.725 29.8067 114.176 28.1609 114.267C27.1159 118.632 26.6063 121.215 26.0529 125.155C26.7364 124.116 27.5163 123.218 28.3581 122.465C31.5438 119.612 35.3177 119.25 37.2918 119.288C37.5594 119.283 37.7954 119.421 37.9465 119.638C38.1242 119.888 38.1594 120.222 38.0489 120.502C37.1206 123.094 35.4385 126.722 32.6406 129.382C29.9987 131.863 26.9431 132.849 25.1626 133.211C24.7626 138.055 24.6741 140.874 24.779 145.2C25.363 143.879 26.0805 142.72 26.875 141.739C29.8272 138.106 33.8828 137.097 36.0329 136.813C36.3084 136.772 36.5754 136.872 36.7713 137.073C36.9825 137.307 37.0856 137.623 37.0158 137.957C36.1971 142.146 34.711 145.753 32.6789 148.379C30.2608 151.548 27.1068 153.15 25.2498 153.893C25.7144 159.09 26.1217 162.078 27.061 166.689C27.4429 165.11 28.0033 163.676 28.6892 162.438C31.1967 158.012 35.3763 156.186 37.6465 155.493C37.9172 155.406 38.2139 155.456 38.4421 155.631C38.6969 155.837 38.8589 156.158 38.8364 156.498C38.7386 161.113 37.7834 165.224 36.1153 168.43C34.0963 172.291 31.0315 174.63 29.1926 175.767C30.6748 181.219 31.6835 184.272 33.6131 188.988C33.6929 187.196 34.0038 185.497 34.5005 184.011C36.2969 178.809 40.3886 176.036 42.6875 174.839C42.9636 174.693 43.2798 174.706 43.5492 174.83C43.8465 174.997 44.0637 175.288 44.1128 175.645C44.8851 180.553 44.689 185.12 43.5761 188.839C42.1784 193.509 39.1954 196.737 37.743 198.113C40.4529 203.599 42.1776 206.588 45.2693 211.159C44.9353 209.201 44.8761 207.307 45.0912 205.583C45.8215 199.666 49.5851 195.878 51.7809 194.143C52.0291 193.954 52.3368 193.887 52.6371 193.972C52.9861 194.075 53.2573 194.326 53.3986 194.673C55.2656 199.792 56.0453 204.548 55.709 208.78C55.2731 214.06 52.8943 218.157 51.6803 219.916C55.8412 225.121 58.3585 227.887 62.792 232.026C61.9257 229.995 61.3629 227.968 61.163 226.066C60.4776 219.656 63.5575 214.798 65.4469 212.478C65.6417 212.224 65.9537 212.086 66.271 212.111C66.6461 212.13 66.9944 212.338 67.2152 212.665C70.413 217.691 72.4009 222.518 73.1205 227.035C74.0201 232.711 72.6497 237.53 71.8393 239.69C75.2535 242.339 81.5778 247.164 85.6322 250.026C87.217 251.13 88.8741 252.366 90.2921 253.768C90.7926 254.204 90.4994 255.075 89.796 255.149Z" fill="#AEAEAE"/>
<path d="M192.841 255.152L195.112 255.391C195.354 255.417 195.584 255.336 195.765 255.168C199.78 251.347 207.519 246.262 212.694 242.061C215.473 243.904 219.936 245.807 225.734 244.982C229.603 244.445 233.308 242.689 236.249 240.877C239.801 238.697 242.29 236.417 242.744 235.987C243.143 235.621 243.335 235.128 243.276 234.691C243.237 234.395 243.053 234.154 242.787 234.022C241.204 233.226 235.478 230.805 227.951 232.206C226.072 232.568 224.064 233.149 221.911 233.996C226.379 229.756 229.005 226.838 233.162 221.563C236.066 222.66 240.452 223.518 245.458 221.701C252.742 219.051 258.197 211.406 258.777 210.546C259.052 210.143 259.149 209.664 258.992 209.274C258.893 208.996 258.669 208.798 258.409 208.724C256.807 208.322 251.099 207.174 244.653 209.831C243.033 210.5 241.389 211.388 239.66 212.535C242.747 207.893 244.527 204.712 247.216 199.201C250.06 199.651 254.181 199.595 258.363 197.073C264.397 193.452 267.913 185.627 268.284 184.757C268.467 184.345 268.459 183.866 268.26 183.542C268.1 183.292 267.858 183.15 267.592 183.133C266.051 183.041 260.659 182.988 255.309 186.529C253.993 187.405 252.692 188.469 251.365 189.786C253.275 185.033 254.312 181.819 255.765 176.318C258.408 176.235 262.138 175.461 265.447 172.486C270.153 168.306 272.021 161.182 272.341 159.794C272.43 159.395 272.336 158.954 272.097 158.684C271.909 158.477 271.651 158.38 271.379 158.41C269.973 158.589 265.058 159.436 260.818 163.513C259.792 164.513 258.82 165.658 257.885 167.017C258.78 162.378 259.179 159.249 259.602 154.002C261.977 153.482 265.202 152.189 267.705 149.001C271.256 144.502 271.854 137.815 271.931 136.529C271.96 136.136 271.803 135.746 271.533 135.543C271.33 135.37 271.068 135.308 270.827 135.387C269.575 135.757 265.253 137.284 262.07 141.613C261.308 142.652 260.628 143.804 259.999 145.125C260.083 140.774 259.961 137.836 259.526 132.987C261.572 132.153 264.263 130.512 266.037 127.272C268.554 122.733 268.142 116.675 268.033 115.498C268.001 115.133 267.804 114.786 267.519 114.616C267.298 114.5 267.032 114.483 266.811 114.588C265.742 115.105 262.071 117.098 259.855 121.434C259.342 122.43 258.913 123.515 258.563 124.738C257.988 120.784 257.433 118.079 256.35 113.745C258.055 112.712 260.186 110.849 261.305 107.75C262.906 103.383 261.744 98.0269 261.501 97.0105C261.409 96.6628 261.172 96.3698 260.892 96.2588C260.667 96.1769 260.409 96.1963 260.22 96.328C259.33 96.9223 256.319 99.1704 254.936 103.35C254.642 104.263 254.412 105.23 254.263 106.31C253.197 102.817 252.319 100.405 250.75 96.5917C252.093 95.4622 253.727 93.5589 254.322 90.6721C255.155 86.6214 253.482 82.0274 253.142 81.1524C253.012 80.8357 252.756 80.6106 252.484 80.5354C252.256 80.4881 252.018 80.533 251.84 80.6775C251.132 81.3142 248.752 83.6636 248.04 87.5522C247.912 88.3199 247.849 89.1409 247.839 90.0141C246.431 86.9984 245.328 84.9591 243.404 81.6327C244.446 80.4833 245.606 78.6583 245.771 76.0878C246.012 72.4644 244.026 68.6186 243.625 67.8887C243.468 67.6041 243.209 67.4136 242.954 67.3985C242.724 67.3627 242.517 67.4459 242.372 67.6055C241.805 68.2337 240.001 70.5387 239.856 74.0207C239.837 74.6481 239.851 75.2907 239.933 75.9522C238.309 73.4383 237.082 71.6891 234.964 68.8786C235.707 67.8026 236.467 66.1221 236.336 63.9285C236.152 60.7967 234.077 57.6876 233.663 57.0845C233.489 56.8564 233.224 56.712 232.979 56.7096C232.759 56.6981 232.561 56.8055 232.45 56.9803C232.038 57.5666 230.703 59.7344 230.969 62.7466C231.006 63.1702 231.076 63.6204 231.177 64.0974C230.568 63.3456 229.984 62.6897 229.371 61.9841C228.746 61.2772 228.09 60.5321 227.263 59.6293C226.94 59.2689 226.434 59.2041 226.123 59.4978C225.813 59.7916 225.83 60.2946 226.154 60.6435C227.795 62.4479 228.793 63.602 229.998 65.1158C229.551 64.929 229.113 64.7664 228.68 64.6743C225.932 63.9774 223.705 64.9791 222.875 65.4513C222.703 65.5266 222.578 65.7232 222.556 65.9307C222.528 66.1959 222.631 66.4399 222.823 66.6116C223.942 67.6035 226.16 69.3521 228.666 70.0234C230.785 70.5959 232.644 70.22 233.716 69.8897C235.779 72.6596 236.996 74.3961 238.585 76.9063C237.98 76.563 237.392 76.2797 236.797 76.0655C233.741 74.9749 231.048 75.8577 230.024 76.2863C229.816 76.381 229.681 76.5533 229.621 76.7918C229.572 77.0431 229.646 77.3307 229.836 77.5254C230.963 78.7747 233.268 81.022 236.049 82.072C238.449 82.977 240.65 82.777 241.937 82.5044C243.827 85.8155 244.887 87.827 246.259 90.8506C245.584 90.29 244.873 89.8423 244.164 89.488C240.885 87.861 237.713 88.5302 236.51 88.8933C236.282 88.951 236.088 89.1288 236.03 89.3558C235.944 89.6149 235.982 89.9219 236.156 90.1501C237.243 91.6749 239.503 94.4653 242.453 96.011C245.05 97.3681 247.597 97.426 249.077 97.3135C250.631 101.161 251.448 103.485 252.492 106.975C251.771 106.176 251.012 105.525 250.217 104.987C246.851 102.745 243.208 103.026 241.797 103.251C241.559 103.296 241.346 103.437 241.215 103.68C241.095 103.935 241.097 104.25 241.243 104.522C242.42 106.744 244.44 109.824 247.306 111.839C249.986 113.729 252.83 114.18 254.476 114.271C255.521 118.636 256.03 121.219 256.584 125.159C255.9 124.12 255.12 123.222 254.279 122.469C251.093 119.616 247.319 119.254 245.345 119.292C245.077 119.287 244.841 119.425 244.69 119.642C244.512 119.892 244.477 120.226 244.588 120.506C245.516 123.098 247.198 126.725 249.996 129.386C252.638 131.867 255.694 132.852 257.474 133.214C257.874 138.059 257.963 140.878 257.858 145.203C257.274 143.883 256.556 142.724 255.762 141.742C252.81 138.11 248.754 137.101 246.604 136.816C246.328 136.776 246.061 136.876 245.865 137.077C245.654 137.311 245.551 137.627 245.621 137.96C246.44 142.15 247.926 145.757 249.958 148.383C252.376 151.552 255.53 153.154 257.387 153.897C256.922 159.094 256.515 162.082 255.576 166.693C255.194 165.114 254.633 163.679 253.948 162.442C251.44 158.016 247.26 156.19 244.99 155.497C244.72 155.41 244.423 155.46 244.195 155.635C243.94 155.841 243.778 156.162 243.8 156.502C243.898 161.117 244.853 165.228 246.521 168.434C248.54 172.295 251.605 174.634 253.444 175.771C251.962 181.223 250.953 184.276 249.024 188.992C248.944 187.2 248.633 185.501 248.136 184.015C246.34 178.813 242.248 176.04 239.949 174.842C239.673 174.697 239.357 174.71 239.088 174.834C238.79 175 238.573 175.292 238.524 175.649C237.752 180.557 237.948 185.124 239.061 188.843C240.458 193.513 243.441 196.74 244.894 198.117C242.184 203.603 240.459 206.592 237.367 211.163C237.701 209.205 237.761 207.311 237.546 205.587C236.815 199.669 233.052 195.882 230.856 194.147C230.608 193.958 230.3 193.89 230 193.975C229.651 194.079 229.379 194.33 229.238 194.676C227.371 199.796 226.591 204.552 226.928 208.784C227.364 214.064 229.742 218.161 230.956 219.92C226.796 225.125 224.278 227.891 219.845 232.03C220.711 229.999 221.274 227.972 221.474 226.069C222.159 219.66 219.079 214.802 217.19 212.481C216.995 212.228 216.683 212.09 216.366 212.115C215.991 212.134 215.642 212.342 215.422 212.669C212.224 217.695 210.236 222.522 209.516 227.039C208.617 232.715 209.987 237.534 210.797 239.694C207.383 242.342 201.059 247.168 197.005 250.03C195.42 251.134 193.763 252.37 192.345 253.771C191.844 254.208 192.137 255.079 192.841 255.152Z" fill="#AEAEAE"/>
<path d="M77.991 129.673L100.143 87.677H113.987L91.282 129.673H77.991ZM77.991 137.056V129.673L82.6059 126.073H129.124V137.056H77.991ZM108.634 152.562V111.213H121.002V152.562H108.634ZM142.163 153.485C139.948 153.485 138.132 152.747 136.717 151.27C135.302 149.794 134.594 147.978 134.594 145.825C134.594 143.671 135.302 141.856 136.717 140.379C138.132 138.902 139.948 138.164 142.163 138.164C144.316 138.164 146.101 138.902 147.516 140.379C148.931 141.856 149.639 143.671 149.639 145.825C149.639 147.978 148.931 149.794 147.516 151.27C146.101 152.747 144.316 153.485 142.163 153.485ZM181.382 153.485C176.767 153.485 172.768 152.686 169.383 151.086C166.061 149.486 163.446 147.24 161.538 144.348C159.692 141.456 158.769 138.195 158.769 134.564C158.769 131.549 159.354 128.811 160.523 126.35C161.692 123.889 163.353 121.827 165.507 120.166C167.722 118.443 170.306 117.243 173.26 116.566L172.983 119.612C170.522 118.997 168.43 117.92 166.707 116.382C164.984 114.843 163.692 113.028 162.83 110.936C161.969 108.782 161.538 106.567 161.538 104.291C161.538 100.783 162.369 97.7067 164.03 95.0608C165.753 92.4149 168.091 90.3536 171.045 88.8768C174.06 87.4001 177.506 86.6617 181.382 86.6617C185.259 86.6617 188.674 87.4001 191.627 88.8768C194.581 90.3536 196.888 92.4149 198.55 95.0608C200.272 97.7067 201.134 100.783 201.134 104.291C201.134 106.567 200.703 108.782 199.842 110.936C198.98 113.028 197.688 114.843 195.965 116.382C194.304 117.92 192.212 118.997 189.689 119.612L189.412 116.566C192.427 117.243 195.012 118.443 197.165 120.166C199.319 121.827 200.98 123.889 202.149 126.35C203.318 128.811 203.903 131.549 203.903 134.564C203.903 138.195 202.98 141.456 201.134 144.348C199.288 147.24 196.673 149.486 193.289 151.086C189.904 152.686 185.936 153.485 181.382 153.485ZM181.382 142.502C183.413 142.502 185.228 142.102 186.828 141.302C188.428 140.441 189.658 139.272 190.52 137.795C191.443 136.318 191.904 134.657 191.904 132.811C191.904 130.903 191.443 129.242 190.52 127.827C189.658 126.35 188.428 125.212 186.828 124.412C185.228 123.55 183.413 123.119 181.382 123.119C179.29 123.119 177.444 123.55 175.844 124.412C174.306 125.212 173.075 126.35 172.152 127.827C171.229 129.242 170.768 130.903 170.768 132.811C170.768 134.657 171.229 136.318 172.152 137.795C173.075 139.272 174.306 140.441 175.844 141.302C177.444 142.102 179.29 142.502 181.382 142.502ZM181.382 113.613C183.782 113.613 185.751 112.844 187.289 111.305C188.828 109.767 189.597 107.798 189.597 105.398C189.597 102.937 188.828 100.937 187.289 99.3988C185.751 97.8605 183.782 97.0914 181.382 97.0914C178.982 97.0914 176.983 97.8605 175.383 99.3988C173.844 100.937 173.075 102.906 173.075 105.306C173.075 107.767 173.844 109.767 175.383 111.305C176.983 112.844 178.982 113.613 181.382 113.613Z" fill="#0B0B0B"/>
<path d="M96.8226 194.239V190.692H102.278C103.393 190.692 104.252 190.413 104.855 189.855C105.479 189.275 105.792 188.483 105.792 187.479C105.792 186.564 105.479 185.806 104.855 185.203C104.252 184.578 103.393 184.266 102.278 184.266H96.8226V180.551H102.679C104.196 180.551 105.524 180.853 106.662 181.455C107.822 182.035 108.714 182.838 109.339 183.865C109.986 184.891 110.31 186.073 110.31 187.412C110.31 188.795 109.986 190 109.339 191.026C108.714 192.03 107.822 192.822 106.662 193.402C105.502 193.96 104.152 194.239 102.612 194.239H96.8226ZM93.476 204.078V180.551H98.0274V204.078H93.476ZM106.327 204.078L98.5628 193.904L102.746 192.599L111.849 204.078H106.327ZM120.259 204.413C118.787 204.413 117.459 204.045 116.277 203.308C115.094 202.572 114.168 201.568 113.499 200.296C112.83 199.025 112.495 197.597 112.495 196.013C112.495 194.406 112.83 192.967 113.499 191.696C114.168 190.424 115.094 189.42 116.277 188.684C117.459 187.947 118.787 187.579 120.259 187.579C121.419 187.579 122.457 187.814 123.372 188.282C124.286 188.751 125.011 189.409 125.547 190.257C126.105 191.082 126.406 192.019 126.45 193.068V198.891C126.406 199.962 126.105 200.91 125.547 201.735C125.011 202.561 124.286 203.219 123.372 203.71C122.457 204.179 121.419 204.413 120.259 204.413ZM121.062 200.363C122.289 200.363 123.282 199.962 124.041 199.159C124.799 198.333 125.179 197.273 125.179 195.979C125.179 195.131 125 194.384 124.643 193.737C124.309 193.068 123.829 192.555 123.204 192.198C122.602 191.818 121.888 191.629 121.062 191.629C120.259 191.629 119.545 191.818 118.921 192.198C118.318 192.555 117.838 193.068 117.481 193.737C117.147 194.384 116.979 195.131 116.979 195.979C116.979 196.849 117.147 197.619 117.481 198.288C117.838 198.935 118.318 199.449 118.921 199.828C119.545 200.185 120.259 200.363 121.062 200.363ZM124.944 204.078V199.728L125.647 195.778L124.944 191.896V187.914H129.295V204.078H124.944ZM135.55 204.078V181.187H139.934V204.078H135.55ZM131.768 191.763V187.914H143.715V191.763H131.768ZM146.181 204.078V187.914H150.598V204.078H146.181ZM148.39 185.304C147.676 185.304 147.084 185.069 146.616 184.601C146.147 184.11 145.913 183.508 145.913 182.794C145.913 182.102 146.147 181.511 146.616 181.02C147.084 180.529 147.676 180.284 148.39 180.284C149.126 180.284 149.717 180.529 150.163 181.02C150.632 181.511 150.866 182.102 150.866 182.794C150.866 183.508 150.632 184.11 150.163 184.601C149.717 185.069 149.126 185.304 148.39 185.304ZM165.359 204.078V194.808C165.359 193.849 165.057 193.068 164.455 192.465C163.853 191.863 163.072 191.562 162.112 191.562C161.488 191.562 160.93 191.696 160.439 191.963C159.948 192.231 159.558 192.61 159.268 193.101C159 193.592 158.866 194.161 158.866 194.808L157.159 193.938C157.159 192.666 157.427 191.562 157.963 190.625C158.52 189.665 159.279 188.918 160.238 188.382C161.22 187.847 162.324 187.579 163.551 187.579C164.734 187.579 165.794 187.88 166.731 188.483C167.668 189.063 168.404 189.833 168.94 190.792C169.475 191.729 169.743 192.744 169.743 193.837V204.078H165.359ZM154.482 204.078V187.914H158.866V204.078H154.482ZM180.034 211.24C178.316 211.24 176.799 210.928 175.483 210.303C174.167 209.7 173.118 208.841 172.337 207.726L175.115 204.948C175.74 205.685 176.431 206.242 177.19 206.622C177.971 207.023 178.908 207.224 180.001 207.224C181.362 207.224 182.433 206.878 183.214 206.186C184.017 205.495 184.418 204.535 184.418 203.308V199.259L185.155 195.712L184.452 192.164V187.914H188.803V203.241C188.803 204.848 188.423 206.242 187.665 207.425C186.928 208.63 185.902 209.567 184.586 210.236C183.269 210.905 181.752 211.24 180.034 211.24ZM179.834 203.643C178.383 203.643 177.078 203.297 175.918 202.606C174.758 201.892 173.843 200.921 173.174 199.694C172.527 198.467 172.203 197.095 172.203 195.578C172.203 194.061 172.527 192.7 173.174 191.495C173.843 190.29 174.758 189.342 175.918 188.65C177.078 187.936 178.383 187.579 179.834 187.579C181.038 187.579 182.098 187.814 183.013 188.282C183.95 188.751 184.686 189.398 185.222 190.223C185.757 191.026 186.047 191.974 186.092 193.068V198.155C186.047 199.226 185.746 200.185 185.188 201.033C184.653 201.858 183.916 202.505 182.979 202.974C182.065 203.42 181.016 203.643 179.834 203.643ZM180.704 199.661C181.507 199.661 182.199 199.493 182.779 199.159C183.381 198.802 183.85 198.322 184.184 197.72C184.519 197.095 184.686 196.392 184.686 195.611C184.686 194.808 184.519 194.105 184.184 193.503C183.85 192.9 183.381 192.432 182.779 192.097C182.199 191.74 181.507 191.562 180.704 191.562C179.901 191.562 179.198 191.74 178.595 192.097C177.993 192.432 177.524 192.912 177.19 193.536C176.855 194.139 176.688 194.83 176.688 195.611C176.688 196.37 176.855 197.061 177.19 197.686C177.524 198.288 177.993 198.768 178.595 199.125C179.198 199.482 179.901 199.661 180.704 199.661Z" fill="#0B0B0B"/>
<path d="M136.17 261.952C136.17 258.582 138.978 255.773 142.349 255.773C145.719 255.773 148.528 258.582 148.528 261.952C148.528 265.322 145.719 268.131 142.349 268.131C138.791 268.131 136.17 265.322 136.17 261.952Z" fill="#9F9F9F"/>
<path d="M163.32 257.275C163.32 254.653 165.38 252.594 168.001 252.594C170.623 252.594 172.682 254.653 172.682 257.275C172.682 259.896 170.623 261.955 168.001 261.955C165.38 261.955 163.32 259.896 163.32 257.275Z" fill="#9F9F9F"/>
<path d="M109.957 257.275C109.957 254.653 112.017 252.594 114.638 252.594C117.259 252.594 119.319 254.653 119.319 257.275C119.319 259.896 117.259 261.955 114.638 261.955C112.017 261.955 109.957 259.896 109.957 257.275Z" fill="#9F9F9F"/>
<defs>
<linearGradient id="paint0_linear_135_539" x1="144.463" y1="0.537116" x2="149.436" y2="16.1269" gradientUnits="userSpaceOnUse">
<stop stop-color="#F4C800"/>
<stop offset="0.4641" stop-color="#EFA300"/>
<stop offset="1" stop-color="#EA7400"/>
</linearGradient>
<radialGradient id="paint1_radial_135_539" cx="0" cy="0" r="1" gradientUnits="userSpaceOnUse" gradientTransform="translate(133.852 10.6901) scale(36.2227 35.9509)">
<stop stop-color="#F4C800"/>
<stop offset="1" stop-color="#EC8400"/>
</radialGradient>
<linearGradient id="paint2_linear_135_539" x1="118.309" y1="21.3907" x2="161.941" y2="21.3907" gradientUnits="userSpaceOnUse">
<stop stop-color="#F7971E"/>
<stop offset="1" stop-color="#FFD200"/>
</linearGradient>
<linearGradient id="paint3_linear_135_539" x1="146.248" y1="31.0438" x2="165.177" y2="54.1652" gradientUnits="userSpaceOnUse">
<stop stop-color="#A54A00"/>
<stop offset="1" stop-color="#E06A00"/>
</linearGradient>
<linearGradient id="paint4_linear_135_539" x1="69.7908" y1="28.1197" x2="75.6575" y2="37.2602" gradientUnits="userSpaceOnUse">
<stop stop-color="#F4C800"/>
<stop offset="0.4641" stop-color="#EFA300"/>
<stop offset="1" stop-color="#EA7400"/>
</linearGradient>
<radialGradient id="paint5_radial_135_539" cx="0" cy="0" r="1" gradientUnits="userSpaceOnUse" gradientTransform="translate(64.7313 36.453) rotate(-14.9999) scale(24.0421 23.8616)">
<stop stop-color="#F4C800"/>
<stop offset="1" stop-color="#EC8400"/>
</radialGradient>
<linearGradient id="paint6_linear_135_539" x1="56.6024" y1="45.9814" x2="84.5755" y2="38.486" gradientUnits="userSpaceOnUse">
<stop stop-color="#F7971E"/>
<stop offset="1" stop-color="#FFD200"/>
</linearGradient>
<linearGradient id="paint7_linear_135_539" x1="103.442" y1="18.254" x2="108.629" y2="27.7961" gradientUnits="userSpaceOnUse">
<stop stop-color="#F4C800"/>
<stop offset="0.4641" stop-color="#EFA300"/>
<stop offset="1" stop-color="#EA7400"/>
</linearGradient>
<radialGradient id="paint8_radial_135_539" cx="0" cy="0" r="1" gradientUnits="userSpaceOnUse" gradientTransform="translate(97.7922 26.1954) rotate(-10.8388) scale(24.0421 23.8616)">
<stop stop-color="#F4C800"/>
<stop offset="1" stop-color="#EC8400"/>
</radialGradient>
<linearGradient id="paint9_linear_135_539" x1="88.9947" y1="35.1113" x2="117.438" y2="29.6654" gradientUnits="userSpaceOnUse">
<stop stop-color="#F7971E"/>
<stop offset="1" stop-color="#FFD200"/>
</linearGradient>
<linearGradient id="paint10_linear_135_539" x1="108.412" y1="37.9136" x2="123.638" y2="50.6235" gradientUnits="userSpaceOnUse">
<stop stop-color="#A54A00"/>
<stop offset="1" stop-color="#E06A00"/>
</linearGradient>
<linearGradient id="paint11_linear_135_539" x1="213.238" y1="28.1197" x2="207.372" y2="37.2602" gradientUnits="userSpaceOnUse">
<stop stop-color="#F4C800"/>
<stop offset="0.4641" stop-color="#EFA300"/>
<stop offset="1" stop-color="#EA7400"/>
</linearGradient>
<radialGradient id="paint12_radial_135_539" cx="0" cy="0" r="1" gradientUnits="userSpaceOnUse" gradientTransform="translate(218.298 36.453) rotate(-165) scale(24.0421 23.8616)">
<stop stop-color="#F4C800"/>
<stop offset="1" stop-color="#EC8400"/>
</radialGradient>
<linearGradient id="paint13_linear_135_539" x1="226.425" y1="45.9814" x2="198.452" y2="38.486" gradientUnits="userSpaceOnUse">
<stop stop-color="#F7971E"/>
<stop offset="1" stop-color="#FFD200"/>
</linearGradient>
<linearGradient id="paint14_linear_135_539" x1="206.854" y1="47.3695" x2="190.747" y2="58.9411" gradientUnits="userSpaceOnUse">
<stop stop-color="#A54A00"/>
<stop offset="1" stop-color="#E06A00"/>
</linearGradient>
<linearGradient id="paint15_linear_135_539" x1="179.588" y1="18.254" x2="174.4" y2="27.7961" gradientUnits="userSpaceOnUse">
<stop stop-color="#F4C800"/>
<stop offset="0.4641" stop-color="#EFA300"/>
<stop offset="1" stop-color="#EA7400"/>
</linearGradient>
<radialGradient id="paint16_radial_135_539" cx="0" cy="0" r="1" gradientUnits="userSpaceOnUse" gradientTransform="translate(185.237 26.1954) rotate(-169.161) scale(24.0421 23.8616)">
<stop stop-color="#F4C800"/>
<stop offset="1" stop-color="#EC8400"/>
</radialGradient>
<linearGradient id="paint17_linear_135_539" x1="194.035" y1="35.1113" x2="165.591" y2="29.6654" gradientUnits="userSpaceOnUse">
<stop stop-color="#F7971E"/>
<stop offset="1" stop-color="#FFD200"/>
</linearGradient>
<linearGradient id="paint18_linear_135_539" x1="174.617" y1="37.9136" x2="159.391" y2="50.6235" gradientUnits="userSpaceOnUse">
<stop stop-color="#A54A00"/>
<stop offset="1" stop-color="#E06A00"/>
</linearGradient>
</defs>
</svg>
