<svg width="528" height="80" viewBox="0 0 528 80" fill="none" xmlns="http://www.w3.org/2000/svg">
<path d="M30.0366 16.9298C34.4698 8.97693 36.6865 5.00049 40.0005 5.00049C43.3145 5.00049 45.5311 8.97692 49.9644 16.9298L51.1114 18.9873C52.3712 21.2473 53.0011 22.3772 53.9832 23.1228C54.9653 23.8684 56.1885 24.1451 58.6349 24.6987L60.8621 25.2026C69.471 27.1504 73.7754 28.1244 74.7995 31.4175C75.8236 34.7107 72.8891 38.1422 67.0202 45.0052L65.5018 46.7808C63.834 48.731 63.0001 49.7061 62.625 50.9125C62.2498 52.1189 62.3759 53.4199 62.6281 56.0219L62.8576 58.3909C63.7449 67.5476 64.1886 72.1259 61.5075 74.1613C58.8264 76.1966 54.7961 74.3409 46.7356 70.6296L44.6503 69.6694C42.3598 68.6148 41.2145 68.0875 40.0005 68.0875C38.7865 68.0875 37.6412 68.6148 35.3507 69.6694L33.2654 70.6296C25.2049 74.3409 21.1746 76.1966 18.4935 74.1613C15.8124 72.1259 16.2561 67.5476 17.1434 58.3909L17.3729 56.0219C17.6251 53.4199 17.7512 52.1189 17.376 50.9125C17.0009 49.7061 16.167 48.731 14.4992 46.7808L12.9808 45.0052C7.11186 38.1422 4.17737 34.7107 5.20146 31.4175C6.22555 28.1244 10.53 27.1504 19.1389 25.2026L21.3661 24.6987C23.8125 24.1451 25.0357 23.8684 26.0178 23.1228C26.9999 22.3772 27.6298 21.2473 28.8896 18.9873L30.0366 16.9298Z" fill="#FCAF2A"/>
<path d="M142.036 16.9297C146.47 8.97684 148.686 5.0004 152 5.0004C155.314 5.0004 157.531 8.97684 161.964 16.9297L163.111 18.9872C164.371 21.2472 165.001 22.3772 165.983 23.1227C166.965 23.8683 168.188 24.1451 170.635 24.6986L172.862 25.2025C181.471 27.1503 185.775 28.1243 186.799 31.4175C187.823 34.7107 184.889 38.1422 179.02 45.0051L177.501 46.7807C175.834 48.7309 175 49.706 174.625 50.9124C174.25 52.1188 174.376 53.4198 174.628 56.0218L174.857 58.3908C175.745 67.5475 176.188 72.1259 173.507 74.1612C170.826 76.1965 166.796 74.3408 158.735 70.6295L156.65 69.6693C154.359 68.6147 153.214 68.0874 152 68.0874C150.786 68.0874 149.641 68.6147 147.35 69.6693L145.265 70.6295C137.205 74.3408 133.174 76.1965 130.493 74.1612C127.812 72.1259 128.256 67.5475 129.143 58.3908L129.373 56.0218C129.625 53.4198 129.751 52.1188 129.376 50.9124C129.001 49.706 128.167 48.7309 126.499 46.7807L124.981 45.0051C119.112 38.1422 116.177 34.7107 117.201 31.4175C118.225 28.1243 122.53 27.1503 131.139 25.2025L133.366 24.6986C135.812 24.1451 137.035 23.8683 138.018 23.1227C139 22.3772 139.63 21.2472 140.889 18.9872L142.036 16.9297Z" fill="#FCAF2A"/>
<path d="M254.036 16.9297C258.469 8.97684 260.686 5.0004 264 5.0004C267.314 5.0004 269.531 8.97684 273.964 16.9297L275.111 18.9872C276.371 21.2472 277.001 22.3772 277.983 23.1227C278.965 23.8683 280.188 24.1451 282.634 24.6986L284.862 25.2025C293.471 27.1503 297.775 28.1243 298.799 31.4175C299.823 34.7107 296.889 38.1422 291.02 45.0051L289.501 46.7807C287.834 48.7309 287 49.706 286.625 50.9124C286.249 52.1188 286.376 53.4198 286.628 56.0218L286.857 58.3908C287.745 67.5475 288.188 72.1259 285.507 74.1612C282.826 76.1965 278.796 74.3408 270.735 70.6295L268.65 69.6693C266.359 68.6147 265.214 68.0874 264 68.0874C262.786 68.0874 261.641 68.6147 259.35 69.6693L257.265 70.6295C249.204 74.3408 245.174 76.1965 242.493 74.1612C239.812 72.1259 240.256 67.5475 241.143 58.3908L241.373 56.0218C241.625 53.4198 241.751 52.1188 241.376 50.9124C241 49.706 240.167 48.7309 238.499 46.7807L236.98 45.0051C231.111 38.1422 228.177 34.7107 229.201 31.4175C230.225 28.1243 234.53 27.1503 243.138 25.2025L245.366 24.6986C247.812 24.1451 249.035 23.8683 250.017 23.1227C251 22.3772 251.629 21.2472 252.889 18.9872L254.036 16.9297Z" fill="#FCAF2A"/>
<path d="M366.036 16.9297C370.469 8.97684 372.686 5.0004 376 5.0004C379.314 5.0004 381.531 8.97684 385.964 16.9297L387.111 18.9872C388.371 21.2472 389.001 22.3772 389.983 23.1227C390.965 23.8683 392.188 24.1451 394.634 24.6986L396.862 25.2025C405.471 27.1503 409.775 28.1243 410.799 31.4175C411.823 34.7107 408.889 38.1422 403.02 45.0051L401.501 46.7807C399.834 48.7309 399 49.706 398.624 50.9124C398.249 52.1188 398.375 53.4198 398.628 56.0218L398.857 58.3908C399.744 67.5475 400.188 72.1259 397.507 74.1612C394.826 76.1965 390.796 74.3408 382.735 70.6295L380.65 69.6693C378.359 68.6147 377.214 68.0874 376 68.0874C374.786 68.0874 373.641 68.6147 371.35 69.6693L369.265 70.6295C361.204 74.3408 357.174 76.1965 354.493 74.1612C351.812 72.1259 352.256 67.5475 353.143 58.3908L353.372 56.0218C353.625 53.4198 353.751 52.1188 353.376 50.9124C353 49.706 352.166 48.7309 350.499 46.7807L348.98 45.0051C343.111 38.1422 340.177 34.7107 341.201 31.4175C342.225 28.1243 346.529 27.1503 355.138 25.2025L357.366 24.6986C359.812 24.1451 361.035 23.8683 362.017 23.1227C362.999 22.3772 363.629 21.2472 364.889 18.9872L366.036 16.9297Z" fill="#FCAF2A"/>
<path d="M478.036 16.9297C482.469 8.97684 484.686 5.0004 488 5.0004C491.314 5.0004 493.531 8.97684 497.964 16.9297L499.111 18.9872C500.371 21.2472 501 22.3772 501.983 23.1227C502.965 23.8683 504.188 24.1451 506.634 24.6986L508.862 25.2025C517.47 27.1503 521.775 28.1243 522.799 31.4175C523.823 34.7107 520.889 38.1422 515.02 45.0051L513.501 46.7807C511.833 48.7309 511 49.706 510.624 50.9124C510.249 52.1188 510.375 53.4198 510.627 56.0218L510.857 58.3908C511.744 67.5475 512.188 72.1259 509.507 74.1612C506.826 76.1965 502.796 74.3408 494.735 70.6295L492.65 69.6693C490.359 68.6147 489.214 68.0874 488 68.0874C486.786 68.0874 485.641 68.6147 483.35 69.6693L481.265 70.6295C473.204 74.3408 469.174 76.1965 466.493 74.1612C463.812 72.1259 464.256 67.5475 465.143 58.3908L465.372 56.0218C465.625 53.4198 465.751 52.1188 465.375 50.9124C465 49.706 464.166 48.7309 462.499 46.7807L460.98 45.0051C455.111 38.1422 452.177 34.7107 453.201 31.4175C454.225 28.1243 458.529 27.1503 467.138 25.2025L469.366 24.6986C471.812 24.1451 473.035 23.8683 474.017 23.1227C474.999 22.3772 475.629 21.2472 476.889 18.9872L478.036 16.9297Z" fill="#A0A4A6"/>
</svg>
