<svg width="165" height="165" viewBox="0 0 165 165" fill="none" xmlns="http://www.w3.org/2000/svg">
<path fill-rule="evenodd" clip-rule="evenodd" d="M82.5 0.46875C37.268 0.46875 0.46875 37.268 0.46875 82.5C0.46875 127.732 37.268 164.531 82.5 164.531C127.732 164.531 164.531 127.733 164.531 82.5C164.531 37.2669 127.732 0.46875 82.5 0.46875Z" fill="#46CC6B"/>
<path fill-rule="evenodd" clip-rule="evenodd" d="M93.9327 163.732C95.8522 163.463 97.7503 163.128 99.627 162.729C103.351 161.934 107.016 160.879 110.593 159.571L110.596 159.575C115.681 157.714 120.568 155.352 125.185 152.524L125.198 152.516C125.305 152.451 125.412 152.385 125.519 152.319C128.786 150.299 131.907 148.054 134.86 145.599C135.396 145.154 135.925 144.701 136.449 144.243C142.177 139.233 147.185 133.456 151.333 127.076C152.054 125.967 152.749 124.839 153.418 123.692C153.5 123.556 153.583 123.417 153.663 123.277C155.467 120.141 157.061 116.888 158.434 113.541L158.464 113.467L158.536 113.29L158.596 113.143L158.62 113.082C159.202 111.641 159.743 110.179 160.244 108.698L160.269 108.623L123.598 67.6814L123.864 67.9891L124.125 68.3179L124.382 68.6692L124.882 69.415L125.207 69.9462L95.3101 36.5957L95.7886 37.1542L96.2408 37.7421L96.666 38.3573L97.0639 39.002L97.4347 39.6753L97.7765 40.3753L98.0927 41.1016L98.3812 41.8536L98.6419 42.6312L98.8754 43.433L99.0805 44.2588L99.2582 45.1078L99.4083 45.9801L99.5303 46.8739L99.6243 47.7895L99.6902 48.7254L99.7278 49.6824L99.7374 50.6583L99.7186 51.6532L99.6718 52.6666L99.5962 53.6975L99.4937 54.7455L99.3611 55.8102L99.1994 56.8902L99.0094 57.984L98.7903 59.0941L98.5425 60.218L98.2653 61.3548L97.9597 62.5053L97.6244 63.6674L97.6001 63.7593L97.5807 63.8516L97.5673 63.9442L97.5591 64.0372L97.5564 64.1305L97.5588 64.2235L97.567 64.3161L97.58 64.4077L97.5984 64.4986L97.622 64.5885L97.6511 64.6774L97.6853 64.7642L97.7242 64.8493L97.7683 64.9324L97.8175 65.0134L97.8712 65.092L97.9296 65.1668L97.9922 65.2376L128.48 97.5948L128.284 98.5139L128.011 99.6641L127.708 100.81L127.376 101.949L127.083 102.878L126.773 103.792L126.446 104.689L126.105 105.57L125.747 106.433L125.374 107.28L124.986 108.108L124.583 108.919L124.165 109.711L123.733 110.485L123.289 111.239L122.83 111.974L122.357 112.689L121.871 113.384L121.372 114.059L120.86 114.713L120.336 115.348L119.801 115.959L119.254 116.548L118.696 117.116L118.125 117.66L117.544 118.182L116.953 118.681L116.351 119.156L115.739 119.607L115.117 120.034L114.486 120.436L113.845 120.812L113.196 121.164L112.896 121.313L56.8836 66.7911L57.1512 67.072L57.4055 67.3656L57.6448 67.6708L57.8704 67.9877L58.0806 68.3158L58.2757 68.6545L58.4545 69.0028L58.6162 69.3607L58.7611 69.7274L58.8886 70.1034L58.9976 70.4866L59.0878 70.8772L59.1593 71.2751L59.2109 71.6791L59.2416 72.0893L59.2526 72.5045V113.061L59.2416 113.476L59.2109 113.887L59.1593 114.291L59.0878 114.688L58.9976 115.079L58.8886 115.462L58.7611 115.838L58.6162 116.205L58.4545 116.563L58.2757 116.911L58.0806 117.25L57.8704 117.577L57.6448 117.894L57.4055 118.2L57.1512 118.494L56.8836 118.774L56.6026 119.042L56.309 119.296L56.0038 119.535L55.687 119.761L55.3588 119.972L55.0205 120.166L54.6722 120.345L54.3143 120.507L53.9476 120.652L53.5716 120.779L53.1888 120.888L52.7978 120.978L52.4002 121.05L51.9962 121.101L51.5861 121.133L51.1708 121.143H43.5829L43.168 121.133L42.7578 121.101L42.3542 121.05L41.9563 120.978L41.5656 120.888L41.1825 120.779L40.8065 120.652L40.4397 120.507L40.0819 120.345L39.7333 120.166L39.3949 119.972L39.0667 119.761L38.7499 119.535L38.4443 119.296L91.6167 164.024C92.3923 163.937 93.1643 163.839 93.9327 163.732Z" fill="#179C5F"/>
<path fill-rule="evenodd" clip-rule="evenodd" d="M51.1719 121.142H43.584C41.4413 121.139 39.3871 120.287 37.8721 118.772C36.3572 117.257 35.5051 115.202 35.5029 113.06V72.5026C35.5051 70.3598 36.3572 68.3054 37.8723 66.7902C39.3873 65.2749 41.4416 64.4225 43.5844 64.4201H51.1723C53.3151 64.4224 55.3695 65.2747 56.8847 66.7899C58.3999 68.3052 59.252 70.3597 59.2541 72.5026V113.06C59.2519 115.202 58.3997 117.257 56.8846 118.772C55.3695 120.287 53.3147 121.14 51.1719 121.142ZM127.378 101.95C124.334 111.949 118.436 119.282 111.197 122.066C96.4655 127.733 74.22 122.021 61.9584 116.504C62.3148 115.391 62.4961 114.229 62.4957 113.06V72.5026C62.4957 72.144 62.4769 71.7913 62.4444 71.4406L76.7021 55.5573C77.8133 54.3193 78.7358 53.3356 79.4768 52.5444C83.2024 48.5689 83.3436 48.21 83.28 42.9259C83.266 41.7709 83.2489 40.3323 83.2749 38.5068C83.309 36.0855 84.3122 34.3163 86.0981 33.5261C88.465 32.4764 91.6725 33.279 94.2711 35.5687C100.102 40.7073 101.356 51.211 97.6266 63.6681C97.5545 63.9084 97.5392 64.1621 97.582 64.4093C97.6247 64.6565 97.7242 64.8904 97.8728 65.0925C98.0213 65.2947 98.2147 65.4596 98.4379 65.5742C98.661 65.6888 98.9077 65.7501 99.1585 65.7531C103.556 65.8119 107.187 65.575 110.39 65.3682C118.332 64.8535 121.663 64.7988 124.383 68.6669C129.861 76.4596 131.065 89.8348 127.378 101.95Z" fill="white"/>
</svg>
