<svg width="813" height="911" viewBox="0 0 813 911" fill="none" xmlns="http://www.w3.org/2000/svg">
<g clip-path="url(#clip0_866_1510)">
<path fill-rule="evenodd" clip-rule="evenodd" d="M0 0.0849686H812.5V689.085C789.166 689.085 770.25 708.001 770.25 731.335C770.25 754.669 789.166 773.585 812.5 773.585V910.085H0V773.585C23.334 773.585 42.25 754.669 42.25 731.335C42.25 708.001 23.334 689.085 0 689.085V0.0849686Z" fill="white"/>
<path fill-rule="evenodd" clip-rule="evenodd" d="M0 0.0849686H812.5V689.085C789.166 689.085 770.25 708.001 770.25 731.335C770.25 754.669 789.166 773.585 812.5 773.585V910.085H0V773.585C23.334 773.585 42.25 754.669 42.25 731.335C42.25 708.001 23.334 689.085 0 689.085V0.0849686Z" fill="white"/>
<path fill-rule="evenodd" clip-rule="evenodd" d="M0 773.585C23.334 773.585 42.25 754.669 42.25 731.335H770.25C770.25 754.669 789.166 773.585 812.5 773.585V890.585C812.5 901.355 803.77 910.085 793 910.085H19.5C8.73044 910.085 0 901.355 0 890.585V773.585Z" fill="white"/>
<path d="M195 0.083992L0 195.084V19.584C0 8.81444 8.73045 0.083992 19.5 0.083992H195Z" fill="white"/>
<path d="M812.5 195.084L617.5 0.0839844L793 0.0839767C803.77 0.0839762 812.5 8.81442 812.5 19.584L812.5 195.084Z" fill="white"/>
<path d="M770.25 731.334H42.25" stroke="#DCAA72" stroke-width="2.275" stroke-miterlimit="10" stroke-dasharray="7.15 7.15"/>
<path d="M426.812 97.584V125.913L1039.43 125.913V97.584L426.812 97.584Z" fill="url(#paint0_linear_866_1510)"/>
<path d="M459.707 97.584V125.913L-152.913 125.913V97.584L459.707 97.584Z" fill="url(#paint1_linear_866_1510)"/>
</g>
<path d="M376.089 117.389C376.089 117.389 367.4 155.467 284.982 167.606C284.982 167.606 308.366 183.706 318.588 183.706L321.527 223.574C321.527 223.574 397.94 189.584 407.012 118.027L376.089 117.389Z" fill="url(#paint2_radial_866_1510)"/>
<path d="M320.5 208.252C361.39 190.49 381.707 167.362 391.674 150.878C402.791 132.478 403.558 118.55 403.685 117.911H402.535H401.641C401.641 118.678 400.491 132.35 389.885 149.984C380.174 166.084 360.24 188.574 320.5 206.079V208.252Z" fill="#FEDC90"/>
<path d="M292.644 172.47C329.955 164.165 351.167 150.492 362.795 140.142C376.34 128.003 379.662 117.525 379.662 117.525L381.706 118.164C381.579 118.547 378.256 129.153 364.328 141.675C352.828 152.026 331.744 165.698 295.199 174.132L292.644 172.47Z" fill="#FEDC90"/>
<path d="M437.8 117.389C437.8 117.389 446.489 155.467 528.908 167.606C528.908 167.606 505.524 183.706 495.301 183.706L492.362 223.574C492.362 223.574 415.822 189.584 406.877 118.027L437.8 117.389Z" fill="url(#paint3_radial_866_1510)"/>
<path d="M493.639 206.07C453.899 188.564 433.966 166.074 424.254 149.974C413.649 132.468 412.626 118.668 412.499 117.901H411.604H410.454C410.454 118.54 411.349 132.468 422.465 150.869C432.432 167.352 452.749 190.353 493.639 208.242V206.07Z" fill="#FEDC90"/>
<path d="M518.683 173.998C482.138 165.565 461.054 151.892 449.554 141.542C435.754 129.02 432.304 118.542 432.176 118.03L434.22 117.392C434.22 117.519 437.67 127.869 451.087 140.009C462.587 150.359 483.927 164.031 521.239 172.337L518.683 173.998Z" fill="#FEDC90"/>
<path d="M395.889 93.6215C395.889 93.6215 342.094 10.8199 314.493 31.137C287.02 51.5818 259.292 127.483 303.248 142.306C347.077 157.128 389.372 118.539 389.372 118.539L395.889 93.6215Z" fill="url(#paint4_radial_866_1510)"/>
<path d="M383.366 76.1141C383.366 76.1141 390.65 117.259 365.094 123.776L389.372 118.409L395.889 93.4922L383.366 76.1141Z" fill="#E6281E"/>
<path d="M389.371 118.54C389.371 118.54 347.076 157.257 303.12 142.435C299.67 141.285 296.603 139.624 293.919 137.707C295.836 112.534 389.371 118.54 389.371 118.54Z" fill="url(#paint5_linear_866_1510)"/>
<path d="M399.72 93.2381C399.72 93.2381 355.124 43.9149 325.735 55.5429C296.346 67.1709 303.629 126.589 303.629 126.589C303.629 126.589 344.263 110.233 399.72 120.966V93.2381Z" fill="#E6281E"/>
<path d="M301.077 45.5754C306.189 43.5309 313.344 41.9976 322.161 42.7642C345.545 45.0643 370.079 62.6979 395.379 95.4097C397.04 97.582 398.829 99.882 400.618 102.31L399.213 103.332C397.807 101.415 396.274 99.3709 394.868 97.582C363.434 56.6923 338.006 46.0865 322.033 44.5532C311.939 43.5309 304.144 45.9587 299.161 48.3866L301.077 45.5754Z" fill="#FEDC90"/>
<path d="M284.981 127.228C285.875 125.055 287.409 122.372 290.475 119.816C300.953 111 326.637 103.333 390.144 115.727C393.211 116.366 396.405 117.005 399.728 117.644L400.111 115.983C396.916 115.344 393.722 114.577 390.655 114.066C326.254 101.544 300.059 109.466 289.453 118.666C286.77 120.966 285.109 123.266 284.086 125.311L284.981 127.228Z" fill="#FEDC90"/>
<path d="M399.728 93.2375C399.728 93.2375 340.054 38.9309 322.548 60.6535C304.915 82.5039 298.781 148.311 336.476 150.994C374.172 153.678 399.728 120.966 399.728 120.966L399.728 93.2375Z" fill="url(#paint6_radial_866_1510)"/>
<path d="M399.728 120.964C399.728 120.964 374.3 153.676 336.477 150.992C333.411 150.737 330.727 150.225 328.299 149.203C324.466 129.014 399.728 120.964 399.728 120.964Z" fill="url(#paint7_linear_866_1510)"/>
<path d="M313.618 78.1555C316.429 75.7276 322.052 72.022 330.868 70.872C343.647 69.3386 365.752 73.172 398.848 100.134L399.742 99.1114L399.998 98.8559C399.87 98.8559 399.87 98.7281 399.742 98.6003C366.264 71.2553 343.647 67.5497 330.485 69.0831C323.202 69.9775 318.09 72.5331 314.64 74.961L313.618 78.1555Z" fill="#FEDC90"/>
<path d="M313.74 134.894C315.401 131.827 318.084 127.993 322.94 124.416C333.29 116.621 355.013 108.699 399.608 115.982L399.352 117.771C355.524 110.615 334.185 118.282 324.09 125.949C318.979 129.782 316.295 133.999 314.89 137.066L313.74 134.894Z" fill="#FEDC90"/>
<path d="M418.124 93.6343C418.124 93.6343 471.92 10.8327 499.52 31.1498C526.993 51.5946 554.721 127.496 510.765 142.319C466.936 157.141 424.513 118.424 424.513 118.424L418.124 93.6343Z" fill="url(#paint8_radial_866_1510)"/>
<path d="M430.523 76.1246C430.523 76.1246 423.24 117.27 448.796 123.787L424.518 118.42L418.001 93.5027L430.523 76.1246Z" fill="#E6281E"/>
<path d="M424.511 118.555C424.511 118.555 466.806 157.272 510.763 142.45C514.213 141.3 517.28 139.639 519.963 137.722C518.174 112.549 424.511 118.555 424.511 118.555Z" fill="url(#paint9_linear_866_1510)"/>
<path d="M414.288 93.2533C414.288 93.2533 458.883 43.9301 488.273 55.5581C517.662 67.1861 510.379 126.476 510.379 126.476C510.379 126.476 469.745 110.12 414.288 120.854V93.2533Z" fill="#E6281E"/>
<path d="M514.856 48.4006C509.873 45.9728 502.078 43.545 491.983 44.5672C475.883 46.1006 450.582 56.7063 419.149 97.596C417.743 99.5127 416.337 101.429 414.804 103.346L413.398 102.324C415.187 99.8961 416.849 97.7238 418.637 95.4237C443.938 62.712 468.599 45.0783 491.855 42.7783C500.8 41.8838 507.828 43.545 512.939 45.5895L514.856 48.4006Z" fill="#FEDC90"/>
<path d="M529.924 125.199C528.902 123.154 527.241 120.854 524.558 118.554C513.952 109.354 487.629 101.432 423.356 113.954C420.289 114.593 417.094 115.232 413.9 115.871L414.283 117.532C417.606 116.893 420.8 116.126 423.867 115.615C487.374 103.221 513.057 110.887 523.408 119.704C526.474 122.26 528.135 124.943 528.902 127.115L529.924 125.199Z" fill="#FEDC90"/>
<path d="M414.292 93.2514C414.292 93.2514 473.965 38.9448 491.471 60.6675C508.977 82.5179 515.11 148.197 477.415 150.88C439.72 153.564 414.164 120.852 414.164 120.852L414.292 93.2514Z" fill="url(#paint10_radial_866_1510)"/>
<path d="M414.292 120.982C414.292 120.982 439.72 153.694 477.543 151.011C480.61 150.755 483.293 150.244 485.721 149.222C489.555 129.033 414.292 120.982 414.292 120.982Z" fill="url(#paint11_linear_866_1510)"/>
<path d="M499.267 74.9814C495.945 72.6813 490.706 69.9979 483.422 69.1035C470.389 67.4423 447.772 71.2757 414.293 98.6207C414.165 98.6207 414.165 98.7485 414.038 98.8763L414.293 99.1318L415.188 100.154C448.283 73.0647 470.389 69.2313 483.167 70.8924C491.984 71.9146 497.478 75.748 500.417 78.1759L499.267 74.9814Z" fill="#FEDC90"/>
<path d="M499.263 136.823C497.857 133.756 495.174 129.667 490.063 125.706C479.968 118.039 458.629 110.372 414.8 117.528L414.544 115.739C459.012 108.583 480.735 116.378 491.213 124.173C495.94 127.75 498.752 131.584 500.413 134.651L499.263 136.823Z" fill="#FEDC90"/>
<path d="M421.312 95.1612C421.057 93.2445 420.418 92.0945 419.395 91.7111V91.8389C418.501 91.4556 417.223 91.5833 416.073 92.35C411.729 94.6501 407.001 94.6501 402.656 92.35C401.378 91.5833 400.228 91.4556 399.334 91.8389V91.7111C398.312 92.0945 397.673 93.2445 397.417 95.1612C396.778 100.272 396.523 105.384 396.651 110.495C396.651 112.156 396.778 113.945 396.778 115.606C397.034 119.951 399.59 123.401 402.912 123.401H415.945C419.14 123.401 421.823 119.951 422.079 115.606C422.207 113.817 422.207 112.156 422.207 110.367C422.207 105.511 421.951 100.4 421.312 95.1612Z" fill="url(#paint12_radial_866_1510)"/>
<defs>
<linearGradient id="paint0_linear_866_1510" x1="78.6109" y1="133.566" x2="81.0412" y2="68.9916" gradientUnits="userSpaceOnUse">
<stop stop-color="#CC0400"/>
<stop offset="0.3877" stop-color="#FE1B18"/>
<stop offset="0.6246" stop-color="#FF5E5C"/>
<stop offset="0.7739" stop-color="#FF3C38"/>
<stop offset="1" stop-color="#CC0400"/>
</linearGradient>
<linearGradient id="paint1_linear_866_1510" x1="807.909" y1="133.566" x2="805.478" y2="68.9916" gradientUnits="userSpaceOnUse">
<stop stop-color="#CC0400"/>
<stop offset="0.3877" stop-color="#FE1B18"/>
<stop offset="0.6246" stop-color="#FF5E5C"/>
<stop offset="0.7739" stop-color="#FF3C38"/>
<stop offset="1" stop-color="#CC0400"/>
</linearGradient>
<radialGradient id="paint2_radial_866_1510" cx="0" cy="0" r="1" gradientUnits="userSpaceOnUse" gradientTransform="translate(396.932 111.409) scale(141.864 141.864)">
<stop offset="0.1152" stop-color="#570000"/>
<stop offset="0.2788" stop-color="#B50000"/>
<stop offset="0.4182" stop-color="#D90700"/>
<stop offset="0.5091" stop-color="#F30200"/>
<stop offset="0.6424" stop-color="#FF1A14"/>
<stop offset="0.7636" stop-color="#FF7676"/>
<stop offset="0.9152" stop-color="#E90200"/>
<stop offset="0.928" stop-color="#EA0806"/>
<stop offset="0.9453" stop-color="#ED1917"/>
<stop offset="0.9653" stop-color="#F33534"/>
<stop offset="0.9869" stop-color="#FA5B5B"/>
<stop offset="1" stop-color="#FF7676"/>
</radialGradient>
<radialGradient id="paint3_radial_866_1510" cx="0" cy="0" r="1" gradientUnits="userSpaceOnUse" gradientTransform="translate(417.834 111.409) scale(132.202 132.202)">
<stop offset="0.1152" stop-color="#570000"/>
<stop offset="0.2788" stop-color="#B50000"/>
<stop offset="0.4182" stop-color="#D90700"/>
<stop offset="0.5091" stop-color="#F30200"/>
<stop offset="0.6424" stop-color="#FF1A14"/>
<stop offset="0.7636" stop-color="#FF7676"/>
<stop offset="0.9152" stop-color="#E90200"/>
<stop offset="0.928" stop-color="#EA0806"/>
<stop offset="0.9453" stop-color="#ED1917"/>
<stop offset="0.9653" stop-color="#F33534"/>
<stop offset="0.9869" stop-color="#FA5B5B"/>
<stop offset="1" stop-color="#FF7676"/>
</radialGradient>
<radialGradient id="paint4_radial_866_1510" cx="0" cy="0" r="1" gradientUnits="userSpaceOnUse" gradientTransform="translate(402.462 117.561) scale(133.504 133.504)">
<stop offset="0.1152" stop-color="#570000"/>
<stop offset="0.2788" stop-color="#B50000"/>
<stop offset="0.4182" stop-color="#D90700"/>
<stop offset="0.5091" stop-color="#F30200"/>
<stop offset="0.6424" stop-color="#FF1A14"/>
<stop offset="0.7636" stop-color="#FF7676"/>
<stop offset="0.9152" stop-color="#E90200"/>
<stop offset="0.928" stop-color="#EA0806"/>
<stop offset="0.9453" stop-color="#ED1917"/>
<stop offset="0.9653" stop-color="#F33534"/>
<stop offset="0.9869" stop-color="#FA5B5B"/>
<stop offset="1" stop-color="#FF7676"/>
</radialGradient>
<linearGradient id="paint5_linear_866_1510" x1="393.378" y1="119.065" x2="294.977" y2="140.283" gradientUnits="userSpaceOnUse">
<stop stop-color="#FF6E70"/>
<stop offset="0.1555" stop-color="#FF5354"/>
<stop offset="0.2545" stop-color="#FF4747"/>
<stop offset="0.4667" stop-color="#FF2C2C"/>
<stop offset="0.6398" stop-color="#F30200"/>
<stop offset="1" stop-color="#4F0000"/>
</linearGradient>
<radialGradient id="paint6_radial_866_1510" cx="0" cy="0" r="1" gradientUnits="userSpaceOnUse" gradientTransform="translate(414.972 114.28) scale(126.088 126.088)">
<stop offset="0.1152" stop-color="#570000"/>
<stop offset="0.2788" stop-color="#B50000"/>
<stop offset="0.4182" stop-color="#D90700"/>
<stop offset="0.5091" stop-color="#F30200"/>
<stop offset="0.6424" stop-color="#FF1A14"/>
<stop offset="0.7636" stop-color="#FF7676"/>
<stop offset="0.9152" stop-color="#E90200"/>
<stop offset="0.928" stop-color="#EA0806"/>
<stop offset="0.9453" stop-color="#ED1917"/>
<stop offset="0.9653" stop-color="#F33534"/>
<stop offset="0.9869" stop-color="#FA5B5B"/>
<stop offset="1" stop-color="#FF7676"/>
</radialGradient>
<linearGradient id="paint7_linear_866_1510" x1="397.095" y1="125.028" x2="320.833" y2="151.473" gradientUnits="userSpaceOnUse">
<stop stop-color="#FF6E70"/>
<stop offset="0.1555" stop-color="#FF5354"/>
<stop offset="0.2545" stop-color="#FF4747"/>
<stop offset="0.4667" stop-color="#FF2C2C"/>
<stop offset="0.6398" stop-color="#F30200"/>
<stop offset="1" stop-color="#4F0000"/>
</linearGradient>
<radialGradient id="paint8_radial_866_1510" cx="0" cy="0" r="1" gradientUnits="userSpaceOnUse" gradientTransform="translate(424.6 108.349) scale(131.071 131.071)">
<stop offset="0.1152" stop-color="#570000"/>
<stop offset="0.2788" stop-color="#B50000"/>
<stop offset="0.4182" stop-color="#D90700"/>
<stop offset="0.5091" stop-color="#F30200"/>
<stop offset="0.6424" stop-color="#FF1A14"/>
<stop offset="0.7636" stop-color="#FF7676"/>
<stop offset="0.9152" stop-color="#E90200"/>
<stop offset="0.928" stop-color="#EA0806"/>
<stop offset="0.9453" stop-color="#ED1917"/>
<stop offset="0.9653" stop-color="#F33534"/>
<stop offset="0.9869" stop-color="#FA5B5B"/>
<stop offset="1" stop-color="#FF7676"/>
</radialGradient>
<linearGradient id="paint9_linear_866_1510" x1="421.688" y1="122.306" x2="524.188" y2="139.526" gradientUnits="userSpaceOnUse">
<stop stop-color="#FF6E70"/>
<stop offset="0.1555" stop-color="#FF5354"/>
<stop offset="0.2545" stop-color="#FF4747"/>
<stop offset="0.4667" stop-color="#FF2C2C"/>
<stop offset="0.6398" stop-color="#F30200"/>
<stop offset="1" stop-color="#4F0000"/>
</linearGradient>
<radialGradient id="paint10_radial_866_1510" cx="0" cy="0" r="1" gradientUnits="userSpaceOnUse" gradientTransform="translate(409.227 113.884) scale(116.946 116.946)">
<stop offset="0.1152" stop-color="#570000"/>
<stop offset="0.2788" stop-color="#B50000"/>
<stop offset="0.4182" stop-color="#D90700"/>
<stop offset="0.5091" stop-color="#F30200"/>
<stop offset="0.6424" stop-color="#FF1A14"/>
<stop offset="0.7636" stop-color="#FF7676"/>
<stop offset="0.9152" stop-color="#E90200"/>
<stop offset="0.928" stop-color="#EA0806"/>
<stop offset="0.9453" stop-color="#ED1917"/>
<stop offset="0.9653" stop-color="#F33534"/>
<stop offset="0.9869" stop-color="#FA5B5B"/>
<stop offset="1" stop-color="#FF7676"/>
</radialGradient>
<linearGradient id="paint11_linear_866_1510" x1="414.29" y1="136.038" x2="485.857" y2="136.038" gradientUnits="userSpaceOnUse">
<stop stop-color="#FF6E70"/>
<stop offset="0.1555" stop-color="#FF5354"/>
<stop offset="0.2545" stop-color="#FF4747"/>
<stop offset="0.4667" stop-color="#FF2C2C"/>
<stop offset="0.6398" stop-color="#F30200"/>
<stop offset="1" stop-color="#4F0000"/>
</linearGradient>
<radialGradient id="paint12_radial_866_1510" cx="0" cy="0" r="1" gradientUnits="userSpaceOnUse" gradientTransform="translate(409.63 91.3264) scale(40.1823)">
<stop offset="0.1152" stop-color="#570000"/>
<stop offset="0.2788" stop-color="#B50000"/>
<stop offset="0.4182" stop-color="#D90700"/>
<stop offset="0.5091" stop-color="#F30200"/>
<stop offset="0.6424" stop-color="#FF1A14"/>
<stop offset="0.7636" stop-color="#FF7676"/>
<stop offset="0.9152" stop-color="#E90200"/>
<stop offset="0.928" stop-color="#EA0806"/>
<stop offset="0.9453" stop-color="#ED1917"/>
<stop offset="0.9653" stop-color="#F33534"/>
<stop offset="0.9869" stop-color="#FA5B5B"/>
<stop offset="1" stop-color="#FF7676"/>
</radialGradient>
<clipPath id="clip0_866_1510">
<rect y="0.083992" width="812.5" height="910" rx="71.5" fill="white"/>
</clipPath>
</defs>
</svg>
