<svg width="62" height="70" viewBox="0 0 62 70" fill="none" xmlns="http://www.w3.org/2000/svg">
<path d="M61.5192 17.7337C61.3196 17.3547 60.3875 15.6766 57.196 12.4944C54.0045 9.31229 52.3357 8.37077 51.9567 8.17121C51.3299 7.84443 50.3804 7.87121 49.8138 8.24755C49.3511 8.56617 48.9303 8.9419 48.5616 9.36586C48.1905 9.78607 47.8716 10.2497 47.612 10.7467C47.3027 11.348 47.3737 12.2855 47.746 12.8507C47.9054 13.0958 48.508 13.8069 49.8888 15.252L46.3504 18.7944C42.2108 15.4748 37.2151 13.3963 31.9424 12.7998V9.08862C35.742 9.04577 38.7728 8.93997 39.1558 8.85693C39.9594 8.6855 40.8071 7.95291 41.0616 7.1788C41.2622 6.53196 41.384 5.8633 41.4245 5.18729C41.4705 4.51146 41.4318 3.83254 41.3094 3.1663C41.15 2.36273 40.3638 1.53505 39.5509 1.27925C39.0594 1.12791 34.1576 0.499786 28.7281 0.499786C23.2987 0.499786 18.3969 1.12791 17.9054 1.28059C17.0924 1.53639 16.3062 2.36809 16.1469 3.16764C16.0246 3.83344 15.9859 4.5119 16.0317 5.18729C16.0723 5.86285 16.1942 6.53106 16.3946 7.17746C16.6491 7.95157 17.4996 8.68416 18.3004 8.85559C18.6888 8.93863 21.7143 9.04443 25.5138 9.08729V12.7998C11.4379 14.3949 0.5 26.348 0.5 40.8431C0.5 56.4337 13.1388 69.0712 28.7281 69.0712C44.3174 69.0712 56.9562 56.4337 56.9562 40.8431C56.9651 34.4944 54.8249 28.3295 50.8839 23.352L54.4424 19.7976C55.8888 21.1864 56.5987 21.7891 56.8451 21.9484C57.4156 22.3167 58.3451 22.3864 58.9491 22.0824C59.4444 21.8196 59.9062 21.4981 60.3246 21.1248C60.7479 20.7549 61.1235 20.3338 61.4429 19.8712C61.8192 19.3101 61.846 18.3592 61.5192 17.7337ZM42.2549 50.0922C41.8748 50.6498 41.2888 51.0337 40.6257 51.1593C39.9627 51.2848 39.2769 51.1419 38.7192 50.7618L27.2937 42.9498C26.9511 42.7159 26.6708 42.4019 26.4773 42.0349C26.2838 41.668 26.1829 41.2593 26.1835 40.8444V23.1498C26.1835 22.4749 26.4516 21.8277 26.9288 21.3505C27.406 20.8732 28.0532 20.6051 28.7281 20.6051C29.403 20.6051 30.0502 20.8732 30.5275 21.3505C31.0047 21.8277 31.2728 22.4749 31.2728 23.1498V39.5011L41.5853 46.5551C41.8616 46.7433 42.0981 46.9841 42.2813 47.2638C42.4645 47.5434 42.5908 47.8564 42.653 48.1849C42.7152 48.5134 42.712 48.8509 42.6437 49.1782C42.5754 49.5054 42.4433 49.816 42.2549 50.0922Z" fill="url(#paint0_linear_803_418)"/>
<defs>
<linearGradient id="paint0_linear_803_418" x1="0.5" y1="0.499786" x2="68.6361" y2="61.3571" gradientUnits="userSpaceOnUse">
<stop stop-color="#43CBFF"/>
<stop offset="1" stop-color="#9708CC"/>
</linearGradient>
</defs>
</svg>
