<svg width="28" height="28" viewBox="0 0 28 28" fill="none" xmlns="http://www.w3.org/2000/svg">
<path fill-rule="evenodd" clip-rule="evenodd" d="M14 28C7.40033 28 4.1005 28 2.05025 25.9497C0 23.8995 0 20.5997 0 14C0 7.40034 0 4.10051 2.05025 2.05025C4.1005 0 7.40034 0 14 0C20.5997 0 23.8995 0 25.9497 2.05025C28 4.1005 28 7.40033 28 14V14V14C28 20.5997 28 23.8995 25.9497 25.9497C23.8995 28 20.5997 28 14 28H14H14ZM14.5122 5.00005C19.7702 5.01772 24.0132 9.27262 23.9986 14.5132C23.984 19.7748 19.7153 24.0218 14.4635 23.9998C9.20576 23.9779 4.97641 19.7082 4.99813 14.444C5.01985 9.22416 9.2929 4.98263 14.5122 5.00005ZM8.86106 20.8425C11.8486 23.621 17.1412 23.9731 20.5895 20.4262C24.0394 16.8774 23.4942 11.6732 20.8151 8.84221L18.8533 10.8104L18.157 10.1043L20.1266 8.14181C18.0875 6.26764 14.9199 5.39991 11.9393 6.40037C8.65289 7.50348 6.66438 9.81737 6.101 13.2387C5.6737 15.8319 6.42733 18.1391 8.15302 20.172L8.85383 19.467L10.1186 18.1947L10.8281 18.8953C10.1821 19.5346 9.52183 20.1882 8.86106 20.8425ZM15.3755 14.5008L15.3753 13.7987C15.3751 13.2134 15.3749 12.628 15.376 12.0428C15.3764 11.7733 15.5247 11.5577 15.7844 11.557C15.9324 11.5566 16.0808 11.5546 16.2295 11.5525L16.2297 11.5525C16.8113 11.5446 17.3956 11.5366 17.9627 11.6267C18.9825 11.789 19.6177 12.4734 19.74 13.5073C19.8209 14.1903 19.829 14.8997 19.7423 15.581C19.6029 16.6777 18.782 17.3791 17.6703 17.4497C17.2663 17.4753 16.8607 17.4769 16.4552 17.4785C16.305 17.4791 16.1548 17.4797 16.0047 17.4815C15.9221 17.4824 15.8381 17.4695 15.757 17.4519C15.5156 17.3994 15.3764 17.228 15.3757 16.9797C15.3747 16.4118 15.375 15.8438 15.3752 15.2758V15.2758V15.2757V15.2757L15.3755 14.5008ZM16.534 12.4994V16.5135C16.6511 16.5078 16.7663 16.5045 16.8801 16.5012H16.8801H16.8801H16.8802H16.8803C17.1302 16.494 17.373 16.487 17.6125 16.4557C18.215 16.3769 18.5996 15.9873 18.6342 15.3769C18.6674 14.7966 18.6602 14.211 18.6225 13.631C18.5889 13.1122 18.215 12.6833 17.7156 12.589C17.4512 12.539 17.1793 12.5283 16.9046 12.5176H16.9045H16.9045H16.9045C16.7814 12.5127 16.6578 12.5079 16.534 12.4994ZM12.424 16.1618L12.8271 16.162L12.9199 16.4508C12.9922 16.6762 13.0635 16.8983 13.1365 17.12C13.279 17.5523 13.7421 17.6917 14.1037 17.4081C14.2665 17.2804 14.3288 17.1162 14.2541 16.9104C14.0352 16.3074 13.8167 15.7043 13.5981 15.1012L13.597 15.0981C13.2042 14.0144 12.8115 12.9307 12.417 11.8477C12.3203 11.5825 12.0808 11.4349 11.7803 11.4321C11.4802 11.4292 11.2332 11.576 11.1358 11.8367C10.5027 13.5313 9.87032 15.2265 9.24941 16.9257C9.21098 17.0312 9.23533 17.194 9.29358 17.2933C9.42702 17.5208 9.66359 17.5707 9.91186 17.5437C10.1403 17.5191 10.2907 17.3919 10.3618 17.1689C10.4545 16.8782 10.549 16.5879 10.6543 16.3019C10.6753 16.2453 10.7481 16.1687 10.798 16.168C11.3382 16.1609 11.8785 16.1613 12.424 16.1618ZM11.9604 13.5619L12.5129 15.247H10.9897L11.7354 13.0167L11.7808 13.014L11.9604 13.5619Z" fill="url(#paint0_linear_659_1777)"/>
<defs>
<linearGradient id="paint0_linear_659_1777" x1="0.350011" y1="0.350171" x2="28.175" y2="27.6502" gradientUnits="userSpaceOnUse">
<stop stop-color="#A06BFF"/>
<stop offset="1" stop-color="#7523FF"/>
</linearGradient>
</defs>
</svg>
