<svg width="168" height="168" viewBox="0 0 168 168" fill="none" xmlns="http://www.w3.org/2000/svg">
<path d="M54.6 32.551C54.6 44.7289 44.7279 54.601 32.55 54.601C20.3721 54.601 10.5 44.7289 10.5 32.551C10.5 20.3731 20.3721 10.501 32.55 10.501C44.7279 10.501 54.6 20.3731 54.6 32.551Z" fill="url(#paint0_linear_347_207)"/>
<path d="M157.5 135.451C157.5 147.629 147.628 157.501 135.45 157.501C123.272 157.501 113.4 147.629 113.4 135.451C113.4 123.273 123.272 113.401 135.45 113.401C147.628 113.401 157.5 123.273 157.5 135.451Z" fill="url(#paint1_linear_347_207)"/>
<path fill-rule="evenodd" clip-rule="evenodd" d="M71.1375 32.551C71.1375 29.5065 73.6055 27.0385 76.65 27.0385H114.369C134.591 27.0385 142.281 53.447 125.221 64.3035L48.6982 113C40.9435 117.935 44.4391 129.938 53.6306 129.938H78.0416L76.4271 128.324C74.2743 126.171 74.2743 122.681 76.4271 120.528C78.5798 118.375 82.0702 118.375 84.2229 120.528L95.2479 131.553C97.4007 133.706 97.4007 137.196 95.2479 139.349L84.2229 150.374C82.0702 152.527 78.5798 152.527 76.4271 150.374C74.2743 148.221 74.2743 144.731 76.4271 142.578L78.0416 140.963H53.6306C33.409 140.963 25.719 114.555 42.7791 103.698L119.302 55.0021C127.057 50.0674 123.561 38.0635 114.369 38.0635H76.65C73.6055 38.0635 71.1375 35.5954 71.1375 32.551Z" fill="url(#paint2_linear_347_207)"/>
<defs>
<linearGradient id="paint0_linear_347_207" x1="10.4216" y1="7.67163" x2="149.57" y2="167.307" gradientUnits="userSpaceOnUse">
<stop stop-color="#57AAFF"/>
<stop offset="1" stop-color="#1C74FF"/>
</linearGradient>
<linearGradient id="paint1_linear_347_207" x1="10.4216" y1="7.67163" x2="149.57" y2="167.307" gradientUnits="userSpaceOnUse">
<stop stop-color="#57AAFF"/>
<stop offset="1" stop-color="#1C74FF"/>
</linearGradient>
<linearGradient id="paint2_linear_347_207" x1="10.4216" y1="7.67163" x2="149.57" y2="167.307" gradientUnits="userSpaceOnUse">
<stop stop-color="#57AAFF"/>
<stop offset="1" stop-color="#1C74FF"/>
</linearGradient>
</defs>
</svg>
