<svg width="709" height="165" viewBox="0 0 709 165" fill="none" xmlns="http://www.w3.org/2000/svg">
<path d="M16.3146 1.51574C7.2338 1.53661 -0.0779933 9.92717 0.000628148 20.2797L64.6275 20.1962L60.1068 1.45312L16.3146 1.51574Z" fill="#C732B1"/>
<path d="M692.3 4.18786e-05L648.508 0.0675288L644.145 20.2911L708.811 20.2011C708.732 9.0208 701.342 -0.0224538 692.3 4.18786e-05Z" fill="#C631B0"/>
<path d="M238.14 1.02378L219.389 1.06309L16.1914 1.53482C24.5646 1.53482 33.1736 13.8391 36.2792 29.5634H36.3971L57.0746 131.45C60.2194 150.241 82.8624 164.982 108.139 164.943L601.489 163.842C626.766 163.803 649.33 148.944 652.396 130.153L672.524 28.1875H672.641C675.668 12.4239 684.199 0.0803264 692.611 0.0410156L238.14 1.02378Z" fill="url(#paint0_linear_866_2475)"/>
<defs>
<linearGradient id="paint0_linear_866_2475" x1="-11.8511" y1="32.727" x2="708.109" y2="265.327" gradientUnits="userSpaceOnUse">
<stop stop-color="#C32BAC"/>
<stop offset="1" stop-color="#FF96F9"/>
</linearGradient>
</defs>
</svg>
