<svg width="61" height="61" viewBox="0 0 61 61" fill="none" xmlns="http://www.w3.org/2000/svg">
<path d="M38.2998 23.3008L23.2998 38.2998M38.2998 38.3008L23.2998 23.3018" stroke="white" stroke-opacity="0.5" stroke-width="3.75" stroke-linecap="round" stroke-linejoin="round"/>
<path d="M7.0498 30.8008C7.0498 19.6049 7.0498 14.007 10.5279 10.5289C14.006 7.05078 19.6039 7.05078 30.7998 7.05078C41.9957 7.05078 47.5936 7.05078 51.0717 10.5289C54.5498 14.007 54.5498 19.6049 54.5498 30.8008C54.5498 41.9966 54.5498 47.5946 51.0717 51.0727C47.5936 54.5508 41.9957 54.5508 30.7998 54.5508C19.6039 54.5508 14.006 54.5508 10.5279 51.0727C7.0498 47.5946 7.0498 41.9966 7.0498 30.8008Z" stroke="white" stroke-opacity="0.5" stroke-width="3.75"/>
</svg>
