<svg width="168" height="168" viewBox="0 0 168 168" fill="none" xmlns="http://www.w3.org/2000/svg">
<path fill-rule="evenodd" clip-rule="evenodd" d="M65.0417 148.05H97.7083C120.648 148.05 132.118 148.05 140.357 142.645C143.924 140.305 146.986 137.298 149.37 133.796C154.875 125.706 154.875 114.445 154.875 91.9227C154.875 69.4003 154.875 58.139 149.37 50.0495C146.986 46.5475 143.924 43.5407 140.357 41.2007C135.063 37.7275 128.435 36.486 118.287 36.0423C113.444 36.0423 109.275 32.4395 108.325 27.7773C106.9 20.7839 100.646 15.75 93.3824 15.75H69.3676C62.1037 15.75 55.8496 20.7839 54.425 27.7773C53.4753 32.4395 49.3059 36.0423 44.4633 36.0423C34.3154 36.486 27.6873 37.7275 22.393 41.2007C18.8262 43.5407 15.7636 46.5475 13.3803 50.0495C7.875 58.139 7.875 69.4003 7.875 91.9227C7.875 114.445 7.875 125.706 13.3803 133.796C15.7636 137.298 18.8262 140.305 22.393 142.645C30.6323 148.05 42.1021 148.05 65.0417 148.05ZM81.375 61.8545C64.4613 61.8545 50.75 75.3165 50.75 91.9227C50.75 108.529 64.4613 121.991 81.375 121.991C98.2887 121.991 112 108.529 112 91.9227C112 75.3165 98.2887 61.8545 81.375 61.8545ZM81.375 73.8818C71.2268 73.8818 63 81.959 63 91.9227C63 101.886 71.2268 109.964 81.375 109.964C91.5232 109.964 99.75 101.886 99.75 91.9227C99.75 81.959 91.5232 73.8818 81.375 73.8818ZM116.083 67.8682C116.083 64.5469 118.826 61.8545 122.208 61.8545H130.375C133.758 61.8545 136.5 64.5469 136.5 67.8682C136.5 71.1894 133.758 73.8818 130.375 73.8818H122.208C118.826 73.8818 116.083 71.1894 116.083 67.8682Z" fill="url(#paint0_linear_347_223)"/>
<defs>
<linearGradient id="paint0_linear_347_223" x1="6.95614" y1="15.75" x2="155.794" y2="148.05" gradientUnits="userSpaceOnUse">
<stop stop-color="#FF85CB"/>
<stop offset="1" stop-color="#FF4AB2"/>
</linearGradient>
</defs>
</svg>
