<svg width="90" height="90" viewBox="0 0 90 90" fill="none" xmlns="http://www.w3.org/2000/svg">
<g clip-path="url(#clip0_2078_8364)">
<circle cx="45" cy="45" r="45" fill="#EDF2EE"/>
<g clip-path="url(#clip1_2078_8364)">
<path d="M65.2305 48.1851L61.5888 35.0827C60.5214 31.2443 58.2016 27.8728 54.9981 25.5041C51.7946 23.1355 47.8912 21.9056 43.9085 22.01C39.9257 22.1145 36.0922 23.5472 33.0172 26.0804C29.9422 28.6137 27.8022 32.1021 26.9374 35.9912L24.118 48.67C23.8066 50.0709 23.8138 51.524 24.1391 52.9218C24.4644 54.3196 25.0995 55.6265 25.9975 56.746C26.8954 57.8655 28.0334 58.769 29.3273 59.3898C30.6213 60.0106 32.0381 60.3329 33.4733 60.3329H35.6084C36.0483 62.4993 37.2237 64.447 38.9353 65.846C40.6469 67.2449 42.7895 68.0092 45.0001 68.0092C47.2107 68.0092 49.3533 67.2449 51.0649 65.846C52.7765 64.447 53.9519 62.4993 54.3918 60.3329H55.9979C57.4753 60.333 58.9327 59.9915 60.2563 59.3352C61.5799 58.6788 62.7338 57.7253 63.6278 56.5491C64.5219 55.373 65.1319 54.0061 65.4103 52.5551C65.6886 51.1042 65.6259 49.6086 65.2305 48.1851ZM45.0001 64.1662C43.8151 64.1613 42.6605 63.7904 41.6944 63.1042C40.7283 62.4181 39.9977 61.4501 39.6028 60.3329H50.3974C50.0024 61.4501 49.2719 62.4181 48.3058 63.1042C47.3396 63.7904 46.1851 64.1613 45.0001 64.1662ZM60.5749 54.2283C60.0408 54.9368 59.3489 55.5111 58.554 55.9053C57.7591 56.2996 56.8833 56.5031 55.996 56.4996H33.4733C32.6123 56.4994 31.7623 56.3059 30.9861 55.9333C30.2099 55.5608 29.5272 55.0186 28.9886 54.347C28.4499 53.6753 28.0689 52.8912 27.8738 52.0526C27.6787 51.214 27.6744 50.3423 27.8613 49.5018L30.6788 36.8212C31.3579 33.7664 33.0388 31.0263 35.454 29.0365C37.8693 27.0467 40.8805 25.9214 44.0087 25.8394C47.137 25.7575 50.2029 26.7236 52.7191 28.5842C55.2352 30.4448 57.0572 33.0931 57.8954 36.1082L61.5371 49.2105C61.7777 50.0641 61.816 50.9621 61.649 51.8331C61.482 52.7041 61.1142 53.5242 60.5749 54.2283Z" fill="#0075FF"/>
</g>
</g>
<defs>
<clipPath id="clip0_2078_8364">
<rect width="90" height="90" fill="white"/>
</clipPath>
<clipPath id="clip1_2078_8364">
<rect width="46" height="46" fill="white" transform="translate(22 22)"/>
</clipPath>
</defs>
</svg>
