<svg width="101" height="100" viewBox="0 0 101 100" fill="none" xmlns="http://www.w3.org/2000/svg">
<g clip-path="url(#clip0_1065_259)">
<circle cx="50.5555" cy="49.9988" r="41.6667" fill="url(#paint0_linear_1065_259)" stroke="white" stroke-width="1.85185"/>
<path d="M49.5521 53.41L46.5429 42.3761C46.1416 41.5736 45.3392 40.9718 44.5367 40.9718C43.7342 40.9718 42.9317 41.5736 42.5305 42.3761L39.3206 53.41L38.5182 56.4193V57.0211C38.5182 57.8236 39.12 58.6261 39.9225 59.0273C40.9256 59.2279 42.1293 58.6261 42.3299 57.623L42.9317 56.0181H46.1416L46.5429 57.623C46.7435 58.4255 47.5459 59.0273 48.549 59.0273H49.1509C49.9534 58.8267 50.5552 58.0242 50.5552 57.0211C50.5552 56.8205 50.5552 56.6199 50.5552 56.4193L49.5521 53.41ZM44.1355 52.0057L44.5367 50.2002L44.9379 52.0057H44.1355ZM50.5552 27.9316C38.3176 27.9316 28.4873 37.7619 28.4873 49.9995C28.4873 62.2372 38.3176 72.0674 50.5552 72.0674C62.7929 72.0674 72.6231 62.2372 72.6231 49.9995C72.6231 37.7619 62.7929 27.9316 50.5552 27.9316ZM64.5984 61.2341L62.9935 59.6292C62.191 58.8267 60.9873 58.8267 60.1848 59.6292C59.3824 60.4316 59.3824 61.6353 60.1848 62.4378L61.7898 64.0428C58.7805 66.4502 54.7682 68.0551 50.5552 68.0551C40.5243 68.0551 32.4997 60.0304 32.4997 49.9995C32.4997 45.7866 33.904 41.7742 36.512 38.765L38.1169 40.3699C38.5182 40.7711 38.9194 40.9718 39.5213 40.9718C40.1231 40.9718 40.5243 40.7711 40.9256 40.3699C41.728 39.5674 41.728 38.3637 40.9256 37.5613L39.3206 35.9563C42.3299 33.3483 46.3422 31.944 50.5552 31.944C60.5861 31.944 68.6108 39.9687 68.6108 49.9995C68.6108 54.2125 67.2064 58.2249 64.5984 61.2341ZM53.5645 40.9718C52.3608 40.9718 51.5583 41.7742 51.5583 42.9779V57.0211C51.5583 58.2249 52.3608 59.0273 53.5645 59.0273C59.7836 59.0273 63.5953 55.6168 63.5953 49.9995C63.5953 44.3823 59.7836 40.9718 53.5645 40.9718ZM55.5706 54.8144V45.1847C58.1787 45.7866 59.583 47.3915 59.583 49.9995C59.583 52.6076 58.1787 54.4131 55.5706 54.8144Z" fill="white"/>
<path d="M6.11122 88.8885C5.67254 88.8885 5.31757 88.5335 5.31757 88.0948C5.31757 85.9068 3.5373 84.1266 1.34931 84.1266C0.910638 84.1266 0.555664 83.7716 0.555664 83.3329C0.555664 82.8942 0.910638 82.5392 1.34931 82.5392C3.5373 82.5392 5.31757 80.759 5.31757 78.571C5.31757 78.1323 5.67254 77.7773 6.11122 77.7773C6.5499 77.7773 6.90487 78.1323 6.90487 78.571C6.90487 80.759 8.68513 82.5392 10.8731 82.5392C11.3118 82.5392 11.6668 82.8942 11.6668 83.3329C11.6668 83.7716 11.3118 84.1266 10.8731 84.1266C8.68513 84.1266 6.90487 85.9068 6.90487 88.0948C6.90487 88.5335 6.5499 88.8885 6.11122 88.8885Z" fill="white"/>
<path d="M94.9999 22.2205C94.5612 22.2205 94.2062 21.8655 94.2062 21.4268C94.2062 19.2388 92.426 17.4586 90.238 17.4586C89.7993 17.4586 89.4443 17.1036 89.4443 16.6649C89.4443 16.2263 89.7993 15.8713 90.238 15.8713C92.426 15.8713 94.2062 14.091 94.2062 11.903C94.2062 11.4643 94.5612 11.1094 94.9999 11.1094C95.4386 11.1094 95.7935 11.4643 95.7935 11.903C95.7935 14.091 97.5738 15.8713 99.7618 15.8713C100.2 15.8713 100.555 16.2263 100.555 16.6649C100.555 17.1036 100.2 17.4586 99.7618 17.4586C97.5738 17.4586 95.7935 19.2388 95.7935 21.4268C95.7935 21.8655 95.4386 22.2205 94.9999 22.2205Z" fill="white"/>
</g>
<defs>
<linearGradient id="paint0_linear_1065_259" x1="24.4796" y1="-15.8962" x2="78.439" y2="102.176" gradientUnits="userSpaceOnUse">
<stop stop-color="#02CCD9"/>
<stop offset="0.989583" stop-color="#1B4696"/>
</linearGradient>
<clipPath id="clip0_1065_259">
<rect width="100" height="100" fill="white" transform="translate(0.555664)"/>
</clipPath>
</defs>
</svg>
