<svg width="168" height="168" viewBox="0 0 168 168" fill="none" xmlns="http://www.w3.org/2000/svg">
<path d="M156.685 48.5126C157.5 57.7847 157.5 69.3424 157.5 84.001C157.5 114.383 157.5 131.445 150.242 142.443L106.499 98.6996L156.685 48.5126Z" fill="url(#paint0_linear_347_191)"/>
<path d="M142.448 150.24L98.7032 106.496L48.5118 156.686C57.7838 157.501 69.3415 157.501 84 157.501C114.387 157.501 131.45 157.501 142.448 150.24Z" fill="url(#paint1_linear_347_191)"/>
<path fill-rule="evenodd" clip-rule="evenodd" d="M84 10.501C118.648 10.501 135.972 10.501 146.736 21.2648C150.44 24.9682 152.869 29.4483 154.462 35.1433L35.1423 154.463C29.4473 152.87 24.9673 150.441 21.2638 146.737C10.5 135.973 10.5 118.649 10.5 84.001C10.5 49.3527 10.5 32.0286 21.2638 21.2648C32.0276 10.501 49.3518 10.501 84 10.501ZM36.225 60.1673C36.225 73.2861 44.4355 88.5945 57.2458 94.0689C60.232 95.345 63.668 95.345 66.6542 94.0689C79.4645 88.5945 87.675 73.2861 87.675 60.1673C87.675 46.9449 76.1575 36.226 61.95 36.226C47.7425 36.226 36.225 46.9449 36.225 60.1673Z" fill="url(#paint2_linear_347_191)"/>
<path d="M72.975 61.951C72.975 68.0399 68.0389 72.976 61.95 72.976C55.8611 72.976 50.925 68.0399 50.925 61.951C50.925 55.862 55.8611 50.926 61.95 50.926C68.0389 50.926 72.975 55.862 72.975 61.951Z" fill="url(#paint3_linear_347_191)"/>
<defs>
<linearGradient id="paint0_linear_347_191" x1="12.3374" y1="12.3394" x2="155.662" y2="155.664" gradientUnits="userSpaceOnUse">
<stop stop-color="#FF9090"/>
<stop offset="1" stop-color="#FF4343"/>
</linearGradient>
<linearGradient id="paint1_linear_347_191" x1="12.3374" y1="12.3394" x2="155.662" y2="155.664" gradientUnits="userSpaceOnUse">
<stop stop-color="#FF9090"/>
<stop offset="1" stop-color="#FF4343"/>
</linearGradient>
<linearGradient id="paint2_linear_347_191" x1="12.3374" y1="12.3394" x2="155.662" y2="155.664" gradientUnits="userSpaceOnUse">
<stop stop-color="#FF9090"/>
<stop offset="1" stop-color="#FF4343"/>
</linearGradient>
<linearGradient id="paint3_linear_347_191" x1="12.3374" y1="12.3394" x2="155.662" y2="155.664" gradientUnits="userSpaceOnUse">
<stop stop-color="#FF9090"/>
<stop offset="1" stop-color="#FF4343"/>
</linearGradient>
</defs>
</svg>
