<svg width="168" height="168" viewBox="0 0 168 168" fill="none" xmlns="http://www.w3.org/2000/svg">
<path d="M84.5388 15.75C51.7649 15.75 24.8223 40.7945 22.1953 72.7263H15.628C13.5503 72.7263 11.678 73.98 10.8866 75.9011C10.0953 77.8222 10.5414 80.0309 12.0163 81.4943L23.5015 92.8896C25.5007 94.8732 28.7256 94.8732 30.7248 92.8896L42.2099 81.4943C43.6849 80.0309 44.131 77.8222 43.3396 75.9011C42.5483 73.98 40.676 72.7263 38.5983 72.7263H32.4938C35.0899 46.5286 57.3672 26.0057 84.5388 26.0057C103.474 26.0057 120.05 35.9774 129.231 50.912C130.714 53.3246 133.872 54.0781 136.285 52.5949C138.698 51.1117 139.451 47.9535 137.968 45.5409C126.985 27.6759 107.159 15.75 84.5388 15.75Z" fill="url(#paint0_linear_347_199)"/>
<path d="M144.448 71.928C142.45 69.9536 139.236 69.9536 137.238 71.928L125.709 83.3233C124.23 84.7851 123.781 86.9954 124.571 88.9189C125.361 90.8424 127.234 92.0982 129.314 92.0982H135.461C132.855 118.281 110.5 138.819 83.1978 138.819C64.1734 138.819 47.5291 128.839 38.3132 113.905C36.8259 111.495 33.6665 110.747 31.2564 112.234C28.8464 113.722 28.0983 116.881 29.5857 119.291C40.6113 137.157 60.5073 149.074 83.1978 149.074C116.07 149.074 143.123 124.045 145.76 92.0982H152.372C154.451 92.0982 156.325 90.8424 157.115 88.9189C157.905 86.9954 157.456 84.7851 155.977 83.3233L144.448 71.928Z" fill="url(#paint1_linear_347_199)"/>
<defs>
<linearGradient id="paint0_linear_347_199" x1="12.2095" y1="15.75" x2="155.79" y2="149.074" gradientUnits="userSpaceOnUse">
<stop stop-color="#61E29E"/>
<stop offset="1" stop-color="#12CC6A"/>
</linearGradient>
<linearGradient id="paint1_linear_347_199" x1="12.2095" y1="15.75" x2="155.79" y2="149.074" gradientUnits="userSpaceOnUse">
<stop stop-color="#61E29E"/>
<stop offset="1" stop-color="#12CC6A"/>
</linearGradient>
</defs>
</svg>
