<svg width="101" height="100" viewBox="0 0 101 100" fill="none" xmlns="http://www.w3.org/2000/svg">
<g clip-path="url(#clip0_1065_197)">
<circle cx="50.4442" cy="49.9988" r="41.6667" fill="url(#paint0_linear_1065_197)" stroke="white" stroke-width="1.85185"/>
<path d="M47.6043 32.6076C47.6043 31.1303 48.2232 29.7977 49.2161 28.8548C49.1524 28.854 49.0886 28.8535 49.0247 28.8535C41.5719 28.8535 35.5303 34.8952 35.5303 42.3479V49.4502C35.5303 56.903 41.5719 62.9446 49.0247 62.9446C55.7525 62.9446 61.3303 58.0213 62.3518 51.5809H52.7788C49.921 51.5809 47.6042 49.2642 47.6042 46.4064L47.6043 32.6076Z" fill="white"/>
<path d="M31.5199 53.6256C32.2622 53.3718 33.0697 53.7678 33.3235 54.5101C35.5299 60.9633 41.7204 65.6231 49.025 65.6231C56.3295 65.6231 62.5201 60.9633 64.7265 54.5101C64.9803 53.7678 65.7878 53.3718 66.5301 53.6256C67.2724 53.8794 67.6684 54.6869 67.4146 55.4292C64.966 62.5909 58.3595 67.8476 50.4454 68.4134V69.8845C50.4454 70.669 49.8095 71.305 49.025 71.305C48.2405 71.305 47.6045 70.669 47.6045 69.8845V68.4134C39.6905 67.8476 33.0841 62.5909 30.6354 55.4292C30.3816 54.6869 30.7776 53.8794 31.5199 53.6256Z" fill="white"/>
<path fill-rule="evenodd" clip-rule="evenodd" d="M53.8396 28.7031C51.2827 28.7031 49.21 30.7759 49.21 33.3328V44.4439C49.21 47.0007 51.2827 49.0735 53.8396 49.0735H64.9507C67.5076 49.0735 69.5803 47.0007 69.5803 44.4439V33.3328C69.5803 30.7759 67.5076 28.7031 64.9507 28.7031H53.8396ZM55.402 34.9299C55.1372 34.665 54.7078 34.665 54.4429 34.9299L52.9902 36.3826C52.7254 36.6474 52.7254 37.0768 52.9902 37.3417C53.255 37.6065 53.6844 37.6065 53.9493 37.3417L54.9225 36.3684L55.8957 37.3417C56.1606 37.6065 56.59 37.6065 56.8548 37.3417C57.1196 37.0768 57.1196 36.6474 56.8548 36.3826L55.402 34.9299ZM64.1192 34.9299C63.8544 34.665 63.425 34.665 63.1602 34.9299L61.7074 36.3826C61.4425 36.6474 61.4425 37.0768 61.7074 37.3417C61.9722 37.6065 62.4016 37.6065 62.6664 37.3417L63.6397 36.3684L64.6129 37.3417C64.8777 37.6065 65.3071 37.6065 65.572 37.3417C65.8368 37.0768 65.8368 36.6474 65.572 36.3826L64.1192 34.9299ZM55.4024 41.4692C55.1376 41.2044 54.7082 41.2043 54.4433 41.4692C54.1785 41.734 54.1784 42.1634 54.4433 42.4282C57.115 45.1003 61.4472 45.1003 64.1189 42.4282C64.3837 42.1634 64.3837 41.734 64.1189 41.4692C63.854 41.2043 63.4246 41.2044 63.1598 41.4692C61.0178 43.6116 57.5444 43.6116 55.4024 41.4692Z" fill="white"/>
<path d="M5.99989 88.8885C5.56121 88.8885 5.20624 88.5335 5.20624 88.0948C5.20624 85.9068 3.42598 84.1266 1.23799 84.1266C0.799309 84.1266 0.444336 83.7716 0.444336 83.3329C0.444336 82.8942 0.799309 82.5392 1.23799 82.5392C3.42598 82.5392 5.20624 80.759 5.20624 78.571C5.20624 78.1323 5.56121 77.7773 5.99989 77.7773C6.43857 77.7773 6.79354 78.1323 6.79354 78.571C6.79354 80.759 8.57381 82.5392 10.7618 82.5392C11.2005 82.5392 11.5554 82.8942 11.5554 83.3329C11.5554 83.7716 11.2005 84.1266 10.7618 84.1266C8.57381 84.1266 6.79354 85.9068 6.79354 88.0948C6.79354 88.5335 6.43857 88.8885 5.99989 88.8885Z" fill="white"/>
<path d="M94.8886 22.2205C94.4499 22.2205 94.0949 21.8655 94.0949 21.4268C94.0949 19.2388 92.3146 17.4586 90.1267 17.4586C89.688 17.4586 89.333 17.1036 89.333 16.6649C89.333 16.2263 89.688 15.8713 90.1267 15.8713C92.3146 15.8713 94.0949 14.091 94.0949 11.903C94.0949 11.4643 94.4499 11.1094 94.8886 11.1094C95.3272 11.1094 95.6822 11.4643 95.6822 11.903C95.6822 14.091 97.4625 15.8713 99.6505 15.8713C100.089 15.8713 100.444 16.2263 100.444 16.6649C100.444 17.1036 100.089 17.4586 99.6505 17.4586C97.4625 17.4586 95.6822 19.2388 95.6822 21.4268C95.6822 21.8655 95.3272 22.2205 94.8886 22.2205Z" fill="white"/>
</g>
<defs>
<linearGradient id="paint0_linear_1065_197" x1="26.3083" y1="11.6655" x2="72.4502" y2="89.7519" gradientUnits="userSpaceOnUse">
<stop offset="0.00461858" stop-color="#FE5E7F"/>
<stop offset="1" stop-color="#7F3198"/>
</linearGradient>
<clipPath id="clip0_1065_197">
<rect width="100" height="100" fill="white" transform="translate(0.444336)"/>
</clipPath>
</defs>
</svg>
