<svg width="101" height="100" viewBox="0 0 101 100" fill="none" xmlns="http://www.w3.org/2000/svg">
<g clip-path="url(#clip0_1065_212)">
<circle cx="50.6658" cy="49.9988" r="41.6667" fill="url(#paint0_linear_1065_212)" stroke="white" stroke-width="1.85185"/>
<path d="M52.5839 47.6973C49.1425 49.4567 46.5211 52.5914 45.4449 56.3766C45.2682 56.3889 45.0899 56.3951 44.9101 56.3951C40.672 56.3951 37.2363 52.9592 37.2363 48.7212V35.9316C37.2363 31.6935 40.672 28.2578 44.9101 28.2578C49.1484 28.2578 52.5839 31.6935 52.5839 35.9316V47.6973Z" fill="white"/>
<path d="M46.1894 67.9049V66.1003C45.3683 64.3138 44.9104 62.3261 44.9104 60.2311C38.5532 60.2311 33.3997 55.0776 33.3997 48.7204C33.3997 48.014 32.8271 47.4414 32.1208 47.4414C31.4144 47.4414 30.8418 48.014 30.8418 48.7204C30.8418 56.0591 36.4609 62.0854 43.6315 62.7317V67.9049C43.6315 68.6111 44.2041 69.1839 44.9104 69.1839C45.6168 69.1839 46.1894 68.6111 46.1894 67.9049Z" fill="white"/>
<path d="M70.4901 60.2333C70.4901 66.5906 65.3367 71.744 58.9794 71.744C52.6222 71.744 47.4688 66.5906 47.4688 60.2333C47.4688 53.8761 52.6222 48.7227 58.9794 48.7227C65.3367 48.7227 70.4901 53.8761 70.4901 60.2333ZM53.8636 52.5596C53.1573 52.5596 52.5846 53.1323 52.5846 53.8385V57.6754C52.5846 58.3817 53.1573 58.9544 53.8636 58.9544H57.7005C58.4067 58.9544 58.9794 58.3817 58.9794 57.6754C58.9794 56.9692 58.4067 56.3964 57.7005 56.3964H56.5029C56.6315 56.3253 56.7635 56.2593 56.8986 56.1995C57.526 55.9199 58.2034 55.7698 58.8899 55.7577C59.5767 55.7457 60.2589 55.8721 60.8958 56.1294C61.5328 56.3867 62.1114 56.7697 62.5971 57.2554C63.0964 57.7547 63.9063 57.7547 64.4058 57.2554C64.9051 56.7558 64.9051 55.946 64.4058 55.4467C63.6771 54.7182 62.8094 54.1437 61.854 53.7577C60.8987 53.3717 59.8755 53.1822 58.8454 53.2003C57.8151 53.2182 56.7991 53.4436 55.858 53.8626C55.6127 53.9718 55.374 54.0935 55.1425 54.2271V53.8385C55.1425 53.1323 54.5698 52.5596 53.8636 52.5596ZM56.1048 66.709C57.0602 67.095 58.0834 67.2845 59.1135 67.2664C60.1438 67.2485 61.1598 67.0231 62.1009 66.6041C62.3462 66.4949 62.5848 66.3731 62.8163 66.2396V66.6282C62.8163 67.3344 63.3891 67.9071 64.0953 67.9071C64.8015 67.9071 65.3743 67.3344 65.3743 66.6282V62.7913C65.3743 62.085 64.8015 61.5123 64.0953 61.5123H60.2584C59.5522 61.5123 58.9794 62.085 58.9794 62.7913C58.9794 63.4975 59.5522 64.0702 60.2584 64.0702H61.456C61.3274 64.1414 61.1954 64.2073 61.0603 64.2672C60.4329 64.5468 59.7555 64.6969 59.069 64.709C58.3822 64.721 57.7 64.5946 57.063 64.3373C56.4261 64.08 55.8475 63.697 55.3618 63.2113C54.8624 62.712 54.0526 62.712 53.553 63.2113C53.0537 63.7109 53.0537 64.5207 53.553 65.02C54.2818 65.7485 55.1494 66.323 56.1048 66.709Z" fill="white"/>
<path d="M6.22157 88.8885C5.78289 88.8885 5.42792 88.5335 5.42792 88.0948C5.42792 85.9068 3.64766 84.1266 1.45967 84.1266C1.02099 84.1266 0.666016 83.7716 0.666016 83.3329C0.666016 82.8942 1.02099 82.5392 1.45967 82.5392C3.64766 82.5392 5.42792 80.759 5.42792 78.571C5.42792 78.1323 5.78289 77.7773 6.22157 77.7773C6.66025 77.7773 7.01522 78.1323 7.01522 78.571C7.01522 80.759 8.79549 82.5392 10.9835 82.5392C11.4222 82.5392 11.7771 82.8942 11.7771 83.3329C11.7771 83.7716 11.4222 84.1266 10.9835 84.1266C8.79549 84.1266 7.01522 85.9068 7.01522 88.0948C7.01522 88.5335 6.66025 88.8885 6.22157 88.8885Z" fill="white"/>
<path d="M95.1102 22.2205C94.6716 22.2205 94.3166 21.8655 94.3166 21.4268C94.3166 19.2388 92.5363 17.4586 90.3483 17.4586C89.9097 17.4586 89.5547 17.1036 89.5547 16.6649C89.5547 16.2263 89.9097 15.8713 90.3483 15.8713C92.5363 15.8713 94.3166 14.091 94.3166 11.903C94.3166 11.4643 94.6716 11.1094 95.1102 11.1094C95.5489 11.1094 95.9039 11.4643 95.9039 11.903C95.9039 14.091 97.6842 15.8713 99.8721 15.8713C100.311 15.8713 100.666 16.2263 100.666 16.6649C100.666 17.1036 100.311 17.4586 99.8721 17.4586C97.6842 17.4586 95.9039 19.2388 95.9039 21.4268C95.9039 21.8655 95.5489 22.2205 95.1102 22.2205Z" fill="white"/>
</g>
<defs>
<linearGradient id="paint0_linear_1065_212" x1="55.6349" y1="5.27662" x2="50.6658" y2="104.659" gradientUnits="userSpaceOnUse">
<stop stop-color="#73BEFB"/>
<stop offset="0.898223" stop-color="#5E38F4"/>
</linearGradient>
<clipPath id="clip0_1065_212">
<rect width="100" height="100" fill="white" transform="translate(0.666992)"/>
</clipPath>
</defs>
</svg>
