<svg width="87" height="87" viewBox="0 0 87 87" fill="none" xmlns="http://www.w3.org/2000/svg">
<path d="M83.0034 48.7682L81.5259 46.6192C80.3171 44.8731 80.1827 42.4554 81.5259 40.7092L83.0034 38.5602C84.7495 36.1425 83.9436 32.6503 81.2573 31.1728L78.9739 29.964C77.0935 28.8894 76.0189 26.8747 76.4219 24.7256L76.8248 22.1736C77.3621 19.2187 75.0787 16.398 72.1238 16.2637L69.5718 16.1294C67.4227 15.9951 65.5423 14.5176 65.005 12.5029L64.3334 9.95086C63.5275 6.99591 60.3039 5.51843 57.4833 6.72727L55.0656 7.8018C53.0509 8.6077 50.7675 8.20475 49.29 6.59296L47.5439 4.71253C45.5292 2.42916 42.0369 2.42916 40.0222 4.71253L38.2761 6.72727C36.7986 8.33907 34.5152 8.87633 32.6348 8.07043L30.2171 7.13022C27.3965 5.92138 24.3072 7.53317 23.5013 10.4881L22.8297 13.0401C22.2925 15.1892 20.4121 16.6667 18.263 16.801L15.711 16.9353C12.756 17.0696 10.4727 19.8903 11.0099 22.8452L11.4129 25.3972C11.8158 27.5463 10.7413 29.6953 8.86086 30.7699L6.57749 31.9787C3.89117 33.4562 3.21959 36.9484 4.9657 39.3661L6.44317 41.5151C7.65202 43.2613 7.78634 45.6789 6.44317 47.4251L5.23433 49.3055C3.48822 51.7232 4.29412 55.2154 6.98044 56.6929L9.26381 57.9017C11.1442 58.9762 12.2188 60.991 11.8158 63.1401L11.4129 65.692C10.8756 68.647 13.159 71.4676 16.1139 71.602L18.6659 71.7363C20.815 71.8706 22.6954 73.3481 23.2327 75.3628L23.9043 77.9148C24.7102 80.8698 27.9338 82.3472 30.7544 81.1384L33.1721 80.0639C35.1868 79.258 37.4702 79.6609 38.9477 81.2727L40.6938 83.2875C42.7085 85.5708 46.2007 85.5708 48.2155 83.2875L49.9616 81.2727C51.4391 79.6609 53.7225 79.1237 55.6029 79.9296L58.0206 80.8698C60.8412 82.0786 63.9305 80.4668 64.7364 77.5119L65.408 74.9599C65.9452 72.8108 67.8257 71.3333 69.9747 71.199L72.5267 71.0647C75.4817 70.9304 77.765 68.1097 77.2278 65.1548L76.6905 62.7371C76.2876 60.588 77.3621 58.439 79.2425 57.3645L81.5259 56.1556C84.0779 54.6781 84.7495 51.1859 83.0034 48.7682ZM44.0517 68.9156C30.2171 68.9156 19.0689 57.6331 19.0689 43.6642C19.0689 29.6953 30.2171 18.4128 44.0517 18.4128C57.8863 18.4128 69.0345 29.6953 69.0345 43.6642C69.0345 57.6331 57.8863 68.9156 44.0517 68.9156ZM59.901 40.8436L52.7822 46.8878L55.0656 56.0213C55.4686 57.7674 53.5881 59.1106 52.1107 58.1703L44.0517 53.2007L36.127 58.1703C34.6496 59.1106 32.7691 57.7674 33.1721 56.0213L35.4555 46.8878L28.3367 40.8436C26.9935 39.6347 27.6651 37.4857 29.4112 37.3513L38.8134 36.6798L42.3056 27.9492C42.9772 26.3374 45.2605 26.3374 45.9321 27.9492L49.4243 36.6798L58.8265 37.3513C60.5726 37.4857 61.2442 39.6347 59.901 40.8436Z" fill="url(#paint0_linear_2859_4648)"/>
<defs>
<linearGradient id="paint0_linear_2859_4648" x1="43.9881" y1="3" x2="43.9881" y2="85" gradientUnits="userSpaceOnUse">
<stop stop-color="#D4D4D4"/>
<stop offset="1" stop-color="#919191"/>
</linearGradient>
</defs>
</svg>
