<svg width="101" height="100" viewBox="0 0 101 100" fill="none" xmlns="http://www.w3.org/2000/svg">
<g clip-path="url(#clip0_1065_250)">
<circle cx="50.3338" cy="49.9988" r="41.6667" fill="url(#paint0_linear_1065_250)" stroke="white" stroke-width="1.85185"/>
<path d="M48.83 51.1508L51.9237 53.0074L48.83 54.8639V51.1508ZM69.8948 48.4935V57.5212C69.8948 64.9878 63.8197 71.0629 56.3531 71.0629H44.3161C36.8495 71.0629 30.7744 64.9878 30.7744 57.5212V48.4935C30.7744 41.406 36.3433 36.4564 44.3161 36.4564H47.2044L43.1413 31.3776C42.6219 30.7289 42.727 29.7818 43.3764 29.2632C44.0244 28.7452 44.9714 28.8495 45.4908 29.4983L50.3346 35.553L55.1784 29.4983C55.697 28.8473 56.6448 28.7459 57.2928 29.2632C57.9422 29.7818 58.0473 30.7289 57.5279 31.3776L53.4648 36.4564H56.3531C64.3259 36.4564 69.8948 41.406 69.8948 48.4935ZM56.3531 53.0074C56.3531 52.4791 56.0761 51.9891 55.6228 51.7173L48.0997 47.2034C47.6346 46.9242 47.055 46.9168 46.584 47.1843C46.1124 47.451 45.8207 47.9513 45.8207 48.4935V57.5212C45.8207 58.0634 46.1124 58.5638 46.584 58.8305C46.814 58.9612 47.0697 59.0259 47.3253 59.0259C47.5935 59.0259 47.8617 58.9546 48.0997 58.8114L55.6228 54.2975C56.0761 54.0256 56.3531 53.5356 56.3531 53.0074Z" fill="white"/>
<path d="M5.88954 88.8885C5.45086 88.8885 5.09589 88.5335 5.09589 88.0948C5.09589 85.9068 3.31562 84.1266 1.12764 84.1266C0.688958 84.1266 0.333984 83.7716 0.333984 83.3329C0.333984 82.8942 0.688958 82.5392 1.12764 82.5392C3.31562 82.5392 5.09589 80.759 5.09589 78.571C5.09589 78.1323 5.45086 77.7773 5.88954 77.7773C6.32822 77.7773 6.68319 78.1323 6.68319 78.571C6.68319 80.759 8.46346 82.5392 10.6514 82.5392C11.0901 82.5392 11.4451 82.8942 11.4451 83.3329C11.4451 83.7716 11.0901 84.1266 10.6514 84.1266C8.46346 84.1266 6.68319 85.9068 6.68319 88.0948C6.68319 88.5335 6.32822 88.8885 5.88954 88.8885Z" fill="white"/>
<path d="M94.7782 22.2205C94.3395 22.2205 93.9846 21.8655 93.9846 21.4268C93.9846 19.2388 92.2043 17.4586 90.0163 17.4586C89.5776 17.4586 89.2227 17.1036 89.2227 16.6649C89.2227 16.2263 89.5776 15.8713 90.0163 15.8713C92.2043 15.8713 93.9846 14.091 93.9846 11.903C93.9846 11.4643 94.3395 11.1094 94.7782 11.1094C95.2169 11.1094 95.5719 11.4643 95.5719 11.903C95.5719 14.091 97.3521 15.8713 99.5401 15.8713C99.9788 15.8713 100.334 16.2263 100.334 16.6649C100.334 17.1036 99.9788 17.4586 99.5401 17.4586C97.3521 17.4586 95.5719 19.2388 95.5719 21.4268C95.5719 21.8655 95.2169 22.2205 94.7782 22.2205Z" fill="white"/>
</g>
<defs>
<linearGradient id="paint0_linear_1065_250" x1="50.3338" y1="7.40625" x2="50.3338" y2="92.5914" gradientUnits="userSpaceOnUse">
<stop stop-color="#FE9F45"/>
<stop offset="1" stop-color="#FF3C7D"/>
</linearGradient>
<clipPath id="clip0_1065_250">
<rect width="100" height="100" fill="white" transform="translate(0.333008)"/>
</clipPath>
</defs>
</svg>
