<svg width="168" height="168" viewBox="0 0 168 168" fill="none" xmlns="http://www.w3.org/2000/svg">
<path fill-rule="evenodd" clip-rule="evenodd" d="M131.775 98.701C117.567 98.701 106.05 109.42 106.05 122.642C106.05 135.761 114.261 151.069 127.071 156.544C130.057 157.82 133.493 157.82 136.479 156.544C149.289 151.069 157.5 135.761 157.5 122.642C157.5 109.42 145.983 98.701 131.775 98.701ZM131.775 131.776C135.834 131.776 139.125 128.485 139.125 124.426C139.125 120.367 135.834 117.076 131.775 117.076C127.716 117.076 124.425 120.367 124.425 124.426C124.425 128.485 127.716 131.776 131.775 131.776Z" fill="url(#paint0_linear_347_215)"/>
<path fill-rule="evenodd" clip-rule="evenodd" d="M36.225 10.501C22.0175 10.501 10.5 21.2199 10.5 34.4423C10.5 47.5611 18.7105 62.8695 31.5208 68.3439C34.507 69.62 37.943 69.62 40.9292 68.3439C53.7395 62.8695 61.95 47.5611 61.95 34.4423C61.95 21.2199 50.4325 10.501 36.225 10.501ZM36.225 43.576C40.2843 43.576 43.575 40.2853 43.575 36.226C43.575 32.1667 40.2843 28.876 36.225 28.876C32.1657 28.876 28.875 32.1667 28.875 36.226C28.875 40.2853 32.1657 43.576 36.225 43.576Z" fill="url(#paint1_linear_347_215)"/>
<path fill-rule="evenodd" clip-rule="evenodd" d="M78.4875 32.551C78.4875 29.5065 80.9555 27.0385 84 27.0385H114.369C134.591 27.0385 142.281 53.447 125.221 64.3035L48.6982 113C40.9435 117.935 44.4391 129.938 53.6306 129.938H70.6917L69.0771 128.324C66.9243 126.171 66.9243 122.681 69.0771 120.528C71.2298 118.375 74.7202 118.375 76.8729 120.528L87.8979 131.553C90.0507 133.706 90.0507 137.196 87.8979 139.349L76.8729 150.374C74.7202 152.527 71.2298 152.527 69.0771 150.374C66.9243 148.221 66.9243 144.731 69.0771 142.578L70.6917 140.963H53.6306C33.409 140.963 25.719 114.555 42.7791 103.698L119.302 55.0021C127.057 50.0674 123.561 38.0635 114.369 38.0635H84C80.9555 38.0635 78.4875 35.5954 78.4875 32.551Z" fill="url(#paint2_linear_347_215)"/>
<defs>
<linearGradient id="paint0_linear_347_215" x1="12.3376" y1="12.3394" x2="155.663" y2="155.664" gradientUnits="userSpaceOnUse">
<stop stop-color="#FFA873"/>
<stop offset="1" stop-color="#FF7A28"/>
</linearGradient>
<linearGradient id="paint1_linear_347_215" x1="12.3376" y1="12.3394" x2="155.663" y2="155.664" gradientUnits="userSpaceOnUse">
<stop stop-color="#FFA873"/>
<stop offset="1" stop-color="#FF7A28"/>
</linearGradient>
<linearGradient id="paint2_linear_347_215" x1="12.3376" y1="12.3394" x2="155.663" y2="155.664" gradientUnits="userSpaceOnUse">
<stop stop-color="#FFA873"/>
<stop offset="1" stop-color="#FF7A28"/>
</linearGradient>
</defs>
</svg>
