<svg width="89" height="38" viewBox="0 0 89 38" fill="none" xmlns="http://www.w3.org/2000/svg">
<path d="M70.2186 0.23465C61.6894 0.23465 48.7026 12.5858 44.7926 16.5094C40.8826 12.5858 27.8958 0.23465 19.3666 0.23465C14.4549 0.23465 9.74431 2.18582 6.2712 5.65893C2.7981 9.13204 0.846924 13.8426 0.846924 18.7543C0.846924 23.666 2.7981 28.3766 6.2712 31.8497C9.74431 35.3228 14.4549 37.2739 19.3666 37.2739C27.8958 37.2739 40.8826 24.9228 44.7926 20.9992C48.7026 24.9228 61.6894 37.2739 70.2186 37.2739C75.1303 37.2739 79.8409 35.3228 83.314 31.8497C86.7871 28.3766 88.7383 23.666 88.7383 18.7543C88.7383 13.8426 86.7871 9.13204 83.314 5.65893C79.8409 2.18582 75.1303 0.23465 70.2186 0.23465ZM19.3666 34.135C15.2874 34.135 11.3752 32.5145 8.49079 29.6301C5.60636 26.7456 3.9859 22.8335 3.9859 18.7543C3.9859 14.6751 5.60636 10.763 8.49079 7.87852C11.3752 4.99409 15.2874 3.37363 19.3666 3.37363C25.9802 3.37363 37.5184 13.6274 42.6054 18.7543C37.5215 23.8812 25.9863 34.135 19.3666 34.135ZM70.2186 34.135C63.605 34.135 52.0668 23.8812 46.9798 18.7543C52.0637 13.6266 63.5989 3.37363 70.2186 3.37363C74.2978 3.37363 78.21 4.99409 81.0944 7.87852C83.9788 10.763 85.5993 14.6751 85.5993 18.7543C85.5993 22.8335 83.9788 26.7456 81.0944 29.6301C78.21 32.5145 74.2978 34.135 70.2186 34.135Z" fill="url(#paint0_linear_803_401)"/>
<path d="M70.2186 34.135C63.605 34.135 52.0668 23.8812 46.9798 18.7543C52.0637 13.6266 63.5989 3.37363 70.2186 3.37363C74.2978 3.37363 78.21 4.99409 81.0944 7.87852C83.9788 10.763 85.5993 14.6751 85.5993 18.7543C85.5993 22.8335 83.9788 26.7456 81.0944 29.6301C78.21 32.5145 74.2978 34.135 70.2186 34.135Z" fill="url(#paint1_linear_803_401)"/>
<path d="M19.3666 34.135C15.2874 34.135 11.3752 32.5145 8.49079 29.6301C5.60636 26.7456 3.9859 22.8335 3.9859 18.7543C3.9859 14.6751 5.60636 10.763 8.49079 7.87852C11.3752 4.99409 15.2874 3.37363 19.3666 3.37363C25.9802 3.37363 37.5184 13.6274 42.6054 18.7543C37.5215 23.8812 25.9863 34.135 19.3666 34.135Z" fill="url(#paint2_linear_803_401)"/>
<defs>
<linearGradient id="paint0_linear_803_401" x1="44.7926" y1="0.23465" x2="44.7926" y2="37.2739" gradientUnits="userSpaceOnUse">
<stop stop-color="#D4D4D4"/>
<stop offset="1" stop-color="#919191"/>
</linearGradient>
<linearGradient id="paint1_linear_803_401" x1="44.7926" y1="0.23465" x2="44.7926" y2="37.2739" gradientUnits="userSpaceOnUse">
<stop stop-color="#D4D4D4"/>
<stop offset="1" stop-color="#919191"/>
</linearGradient>
<linearGradient id="paint2_linear_803_401" x1="44.7926" y1="0.23465" x2="44.7926" y2="37.2739" gradientUnits="userSpaceOnUse">
<stop stop-color="#D4D4D4"/>
<stop offset="1" stop-color="#919191"/>
</linearGradient>
</defs>
</svg>
