<svg width="81" height="60" viewBox="0 0 81 60" fill="none" xmlns="http://www.w3.org/2000/svg">
<path d="M19.9475 0.689453C31.0572 0.689453 39.0769 9.86129 39.0766 23.4417C39.0055 43.1733 24.1722 57.1241 2.77316 59.8032C0.787838 60.0518 0.0223238 57.3015 1.85055 56.4886C10.0615 52.8375 14.2085 48.2045 14.7442 43.6187C15.1444 40.1926 13.2819 37.1914 10.9432 36.6294C4.88029 35.1725 0.818085 27.6222 0.818085 19.8188C0.818085 9.25397 9.3826 0.689453 19.9475 0.689453Z" fill="#ECF1FF"/>
<path d="M61.6848 0.689453C72.7945 0.689453 80.8142 9.86129 80.8139 23.4417C80.7428 43.1733 65.9095 57.1241 44.5105 59.8032C42.5251 60.0518 41.7596 57.3015 43.5879 56.4886C51.7988 52.8375 55.9458 48.2045 56.4815 43.6187C56.8817 40.1926 55.0192 37.1914 52.6805 36.6294C46.6176 35.1725 42.5554 27.6222 42.5554 19.8188C42.5554 9.25397 51.1199 0.689453 61.6848 0.689453Z" fill="#ECF1FF"/>
</svg>
