<svg width="90" height="90" viewBox="0 0 90 90" fill="none" xmlns="http://www.w3.org/2000/svg">
<g clip-path="url(#clip0_2078_8363)">
<circle cx="45" cy="45" r="45" fill="#EDF2EE"/>
<g clip-path="url(#clip1_2078_8363)">
<path d="M67.6858 38.8543C67.2937 37.6064 66.5105 36.5177 65.4518 35.7494C64.3932 34.981 63.1154 34.5738 61.8074 34.5878H53.4335L50.89 26.6605C50.4901 25.4126 49.7041 24.3241 48.6456 23.5518C47.587 22.7794 46.3105 22.3633 45.0001 22.3633C43.6898 22.3633 42.4133 22.7794 41.3547 23.5518C40.2961 24.3241 39.5102 25.4126 39.1102 26.6605L36.5668 34.5878H28.1929C26.8891 34.5897 25.6192 35.0035 24.5646 35.7702C23.51 36.5369 22.7247 37.6173 22.3208 38.857C21.9169 40.0967 21.9152 41.4323 22.3157 42.6731C22.7163 43.9138 23.4987 44.9963 24.5512 45.7658L31.3669 50.7491L28.7755 58.7742C28.3568 60.0189 28.3515 61.3656 28.7604 62.6135C29.1694 63.8614 29.9707 64.9437 31.0449 65.6991C32.1007 66.4788 33.3801 66.8965 34.6926 66.8899C36.005 66.8833 37.2803 66.4529 38.3282 65.6627L45.0001 60.7522L51.674 65.657C52.7278 66.4322 54.0004 66.8532 55.3087 66.8596C56.6169 66.866 57.8935 66.4573 58.9549 65.6924C60.0163 64.9276 60.8078 63.8458 61.2157 62.6027C61.6235 61.3596 61.6267 60.0192 61.2247 58.7742L58.6334 50.7491L65.4567 45.7658C66.5213 45.0059 67.3128 43.9235 67.7143 42.6787C68.1158 41.4339 68.1058 40.093 67.6858 38.8543ZM63.195 42.6704L55.2524 48.476C54.9261 48.714 54.6834 49.0489 54.5588 49.433C54.4342 49.8171 54.4341 50.2308 54.5585 50.615L57.5773 59.9491C57.73 60.4226 57.7287 60.9322 57.5736 61.4049C57.4184 61.8775 57.1173 62.2888 56.7137 62.5795C56.3101 62.8703 55.8246 63.0255 55.3272 63.023C54.8297 63.0205 54.3459 62.8602 53.9452 62.5654L46.1348 56.8154C45.8058 56.5737 45.4083 56.4434 45.0001 56.4434C44.5919 56.4434 44.1944 56.5737 43.8655 56.8154L36.055 62.5654C35.6546 62.8642 35.1694 63.0278 34.6698 63.0323C34.1702 63.0368 33.6821 62.8821 33.2763 62.5906C32.8705 62.2991 32.5681 61.8859 32.413 61.411C32.2578 60.936 32.258 60.424 32.4134 59.9491L35.4417 50.615C35.5661 50.2308 35.566 49.8171 35.4414 49.433C35.3168 49.0489 35.0741 48.714 34.7479 48.476L26.8052 42.6704C26.4052 42.3775 26.108 41.9657 25.956 41.4938C25.804 41.0219 25.8051 40.5141 25.959 40.0428C26.1129 39.5716 26.4118 39.161 26.813 38.8697C27.2141 38.5785 27.6971 38.4215 28.1929 38.4211H37.9679C38.3737 38.4211 38.769 38.2923 39.0969 38.0533C39.4248 37.8142 39.6684 37.4773 39.7925 37.091L42.7634 27.8316C42.9159 27.3577 43.2148 26.9445 43.6171 26.6514C44.0194 26.3582 44.5043 26.2003 45.002 26.2003C45.4998 26.2003 45.9847 26.3582 46.387 26.6514C46.7893 26.9445 47.0882 27.3577 47.2407 27.8316L50.2115 37.091C50.3357 37.4773 50.5793 37.8142 50.9072 38.0533C51.2351 38.2923 51.6304 38.4211 52.0362 38.4211H61.8112C62.307 38.4215 62.7899 38.5785 63.1911 38.8697C63.5923 39.161 63.8912 39.5716 64.0451 40.0428C64.199 40.5141 64.2 41.0219 64.0481 41.4938C63.8961 41.9657 63.5989 42.3775 63.1989 42.6704H63.195Z" fill="#0075FF"/>
</g>
</g>
<defs>
<clipPath id="clip0_2078_8363">
<rect width="90" height="90" fill="white"/>
</clipPath>
<clipPath id="clip1_2078_8363">
<rect width="46" height="46" fill="white" transform="translate(22 22)"/>
</clipPath>
</defs>
</svg>
