<svg width="165" height="165" viewBox="0 0 165 165" fill="none" xmlns="http://www.w3.org/2000/svg">
<path fill-rule="evenodd" clip-rule="evenodd" d="M82.5 0.46875C37.268 0.46875 0.46875 37.268 0.46875 82.5C0.46875 127.732 37.268 164.531 82.5 164.531C127.732 164.531 164.531 127.733 164.531 82.5C164.531 37.2669 127.732 0.46875 82.5 0.46875Z" fill="#FF5A54"/>
<path fill-rule="evenodd" clip-rule="evenodd" d="M108.467 160.317C110.083 159.776 111.676 159.186 113.246 158.547C113.442 158.468 113.637 158.388 113.832 158.308C113.909 158.277 113.986 158.246 114.062 158.214C115.243 157.72 116.409 157.199 117.561 156.651L117.601 156.632L117.663 156.603C119.48 155.737 121.258 154.808 123 153.816C126.964 151.555 130.733 148.969 134.268 146.084H134.27C134.436 145.948 134.602 145.812 134.766 145.675L134.787 145.659L134.992 145.488L134.995 145.485L135.182 145.329L135.23 145.288L135.414 145.133L135.451 145.102C136.337 144.351 137.206 143.583 138.06 142.796C138.326 142.551 138.592 142.305 138.855 142.056C139.094 141.83 139.33 141.602 139.565 141.372L139.567 141.369L139.581 141.355L139.596 141.342C140.027 140.922 140.455 140.499 140.877 140.07L140.956 139.99L141.035 139.911L141.127 139.816C142.35 138.566 143.532 137.279 144.675 135.954C147.241 132.973 149.591 129.814 151.707 126.498C156.249 119.383 159.66 111.606 161.819 103.445C162.153 102.178 162.458 100.9 162.732 99.6094L120.337 50.6788L120.86 51.3118L121.373 51.9656L121.872 52.64L122.358 53.3352L122.831 54.0506L123.29 54.7854L123.734 55.5395L124.166 56.3129L124.583 57.1052L124.986 57.916L125.375 58.7445L125.747 59.5911L126.105 60.4545L126.447 61.335L126.773 62.2325L127.083 63.1458L127.377 64.0758L127.708 65.2147L128.011 66.3604L128.285 67.5105L128.531 68.6641L128.749 69.8208L128.939 70.9781L129.1 72.1351L129.234 73.2914L129.34 74.4442L129.419 75.5937L129.47 76.7377L129.494 77.8755L129.49 79.0055L129.459 80.1273L129.401 81.2378L129.316 82.3377L129.204 83.4249L129.066 84.4979L128.901 85.5574L128.709 86.5985L128.491 87.6239L128.247 88.6288L127.976 89.6132L127.679 90.5767L127.357 91.5173L127.008 92.4337L126.632 93.3254L126.233 94.1905L125.807 95.0283L125.357 95.8366L124.883 96.6122L124.382 97.3583L124.125 97.7097L123.864 98.0385L123.598 98.3461L123.324 98.6322L123.046 98.8981L122.76 99.1439L122.466 99.3701L122.164 99.5786L121.852 99.7687L121.53 99.9396L121.197 100.096L120.852 100.237L120.495 100.361L120.125 100.471L119.741 100.567L119.343 100.65L118.929 100.719L118.499 100.776L118.052 100.822L117.588 100.856L117.106 100.881L116.604 100.896L116.083 100.902L115.542 100.9L114.979 100.889L114.395 100.872L113.788 100.848L113.157 100.819L112.503 100.784L111.823 100.746L111.118 100.702L110.387 100.655L110.086 100.636L109.781 100.616L109.474 100.596L109.164 100.577L108.852 100.558L108.818 100.557L56.8839 47.2529L57.1515 47.5335L57.4058 47.8268L57.6451 48.1327L57.8707 48.4492L58.0812 48.7777L58.276 49.1161L58.4544 49.4644L58.6165 49.8226L58.7614 50.189L58.8892 50.5649L58.9979 50.9481L59.0881 51.3388L59.1596 51.7366L59.2112 52.1406L59.2423 52.5508L59.2529 52.9661V93.523L59.2423 93.9383L59.2112 94.3484L59.1596 94.7524L59.0881 95.1503L58.9979 95.541L58.8892 95.9241L58.7614 96.3001L58.6165 96.6665L58.4544 97.0247L58.276 97.373L58.0812 97.7114L57.8707 98.0392L57.6451 98.3563L57.4058 98.6616L57.1515 98.9555L56.8839 99.2361L56.6029 99.5038L56.3093 99.7581L56.0041 99.9973L55.6873 100.223L55.3591 100.433L55.0208 100.628L54.6725 100.807L54.3146 100.969L53.9479 101.114L53.5719 101.241L53.1891 101.35L52.7984 101.44L52.4005 101.511L51.9965 101.563L51.5864 101.595L51.1711 101.605H43.5832L43.1683 101.595L42.7581 101.563L42.3544 101.511L41.9566 101.44L41.5659 101.35L41.1828 101.241L40.8068 101.114L40.44 100.969L40.0818 100.807L39.7335 100.628L39.3952 100.433L39.067 100.223L38.7502 99.997L38.4446 99.7577L38.1514 99.5034L106.446 160.963C107.124 160.756 107.797 160.541 108.467 160.317Z" fill="#DB3A3C"/>
<path fill-rule="evenodd" clip-rule="evenodd" d="M51.1719 101.607H43.584C41.4412 101.604 39.3868 100.752 37.8718 99.2361C36.3568 97.7206 35.5048 95.666 35.5029 93.5231V52.9659C35.505 50.8231 36.3571 48.7686 37.8722 47.2534C39.3873 45.7381 41.4416 44.8857 43.5844 44.8834H51.1723C53.3151 44.8857 55.3695 45.7381 56.8846 47.2533C58.3997 48.7686 59.2519 50.823 59.2541 52.9659V93.5231C59.2522 95.6662 58.4001 97.721 56.8848 99.2364C55.3696 100.752 53.315 101.604 51.1719 101.607ZM124.383 97.3598C121.664 101.228 118.333 101.173 110.39 100.658C107.186 100.453 103.557 100.217 99.1582 100.273C98.9075 100.277 98.661 100.338 98.438 100.453C98.2151 100.568 98.0218 100.732 97.8733 100.935C97.7249 101.137 97.6253 101.37 97.5824 101.617C97.5395 101.864 97.5545 102.118 97.6262 102.358C101.357 114.816 100.103 125.319 94.2711 130.458C91.6735 132.748 88.4644 133.548 86.0984 132.501C84.3122 131.71 83.3097 129.942 83.2749 127.52C83.2489 125.694 83.266 124.256 83.28 123.101C83.3439 117.816 83.2014 117.458 79.4772 113.482C78.7361 112.692 77.8136 111.707 76.7018 110.469L62.4444 94.5858C62.4769 94.2351 62.4957 93.8827 62.4957 93.5242V52.9659C62.4961 51.7968 62.3148 50.6347 61.9584 49.5212C74.2203 44.0039 96.4655 38.2918 111.198 43.9592C118.436 46.7435 124.334 54.0764 127.378 64.0756C131.065 76.1906 129.862 89.5658 124.383 97.3588V97.3598Z" fill="white"/>
</svg>
